<svg id="Layer_1" data-name="Layer 1" xmlns="http://www.w3.org/2000/svg" xmlns:xlink="http://www.w3.org/1999/xlink" viewBox="0 0 70 70">
  <defs>
    <mask id="mask" x="0" y="0" width="70" height="70" maskUnits="userSpaceOnUse">
      <g id="b">
        <path id="a" d="M4,0H65c4,0,5,1,5,5V65c0,4-1,5-5,5H4c-3,0-4-1-4-5V5C0,1,1,0,4,0Z" fill="#fff" fill-rule="evenodd"/>
      </g>
    </mask>
    <linearGradient id="linear-gradient" x1="-1083.78" y1="-216.96" x2="-1084.78" y2="-217.96" gradientTransform="matrix(70, 0, 0, -70, 75934.61, -15187.42)" gradientUnits="userSpaceOnUse">
      <stop offset="0" stop-color="#da956b"/>
      <stop offset="1" stop-color="#cc7039"/>
    </linearGradient>
  </defs>
  <g mask="url(#mask)">
    <g>
      <path d="M0,0H70V70H0Z" fill-rule="evenodd" fill="url(#linear-gradient)"/>
      <path d="M4,1H65c2.67,0,4.33.67,5,2V0H0V3C.67,1.67,2,1,4,1Z" fill="#fff" fill-opacity="0.38" fill-rule="evenodd"/>
      <path d="M30.25,69H4a3.66,3.66,0,0,1-4-4V41L20.74,20.44l12.83-5.15a29,29,0,0,1,19.12,9.54l1.93,6-8.36,8.37-3.37,5.18-9.32,9.3L35.4,55l6-2.28L52.78,41.36l-3.84,9Z" fill="#393939" fill-rule="evenodd" opacity="0.32" style="isolation: isolate"/>
      <path d="M4,69H65c2.67,0,4.33-1,5-3v4H0V66A3.92,3.92,0,0,0,4,69Z" fill-opacity="0.38" fill-rule="evenodd"/>
      <g>
        <g opacity="0.4">
          <path d="M33,24.76A12.24,12.24,0,1,0,45.24,37,12.24,12.24,0,0,0,33,24.76Zm.89,17.53v1.28a.33.33,0,0,1-.35.32H32.35a.34.34,0,0,1-.36-.32v-1.3A5.94,5.94,0,0,1,29.06,41a.29.29,0,0,1,0-.42h0l.91-1.09a.37.37,0,0,1,.5-.06,4.68,4.68,0,0,0,2.61,1c1.07,0,1.55-.58,1.55-1.11,0-1.58-5.49-1.24-5.49-4.56,0-1.42,1.15-2.57,2.89-2.93V30.43a.34.34,0,0,1,.36-.32h1.19a.34.34,0,0,1,.36.32V31.7a5.37,5.37,0,0,1,2.71,1,.31.31,0,0,1,.07.4L36,34.29a.38.38,0,0,1-.52.11,4.26,4.26,0,0,0-2.27-.77c-1,0-1.63.41-1.63,1,0,1.69,5.49,1.26,5.49,4.49A3.3,3.3,0,0,1,33.89,42.29Z"/>
          <path d="M51.84,33.19h-.08a1.05,1.05,0,0,1-.63-.29L48.2,30a1,1,0,0,1,.17-1.56L49,28a17.43,17.43,0,0,0-3.81-4.6,19,19,0,0,0-17.57-3.61A17.43,17.43,0,0,0,15.48,31.08a1,1,0,1,1-1.9-.62A19.42,19.42,0,0,1,27.12,17.83a21,21,0,0,1,19.4,4,19.21,19.21,0,0,1,4.17,5l.84-.58a1,1,0,0,1,1.56.88l-.25,5.09a.41.41,0,0,1,0,.11,1,1,0,0,1-.21.48.81.81,0,0,1-.19.18h0a1,1,0,0,1-.58.2Z"/>
          <path d="M32.71,57.6A20.6,20.6,0,0,1,19.3,52.75a19.41,19.41,0,0,1-4.17-5l-.84.58a1,1,0,0,1-1,0,1,1,0,0,1-.51-.92L13,42.38s0-.07,0-.11a1,1,0,0,1,.21-.48,1.14,1.14,0,0,1,.19-.19,1.08,1.08,0,0,1,.58-.19h.09a.91.91,0,0,1,.63.29l2.93,2.93a1,1,0,0,1,.29.82,1,1,0,0,1-.46.73l-.67.44a17.62,17.62,0,0,0,3.81,4.6,19.09,19.09,0,0,0,17.57,3.61A17.43,17.43,0,0,0,50.34,43.52a1,1,0,0,1,1.9.62A19.42,19.42,0,0,1,38.7,56.77,22,22,0,0,1,32.71,57.6Z"/>
        </g>
        <g>
          <path d="M35,22.76A12.24,12.24,0,1,0,47.24,35,12.24,12.24,0,0,0,35,22.76Zm.89,17.53v1.28a.33.33,0,0,1-.35.32H34.35a.34.34,0,0,1-.36-.32v-1.3A5.94,5.94,0,0,1,31.06,39a.29.29,0,0,1,0-.42h0l.91-1.09a.37.37,0,0,1,.5-.06,4.68,4.68,0,0,0,2.61,1c1.07,0,1.55-.58,1.55-1.11,0-1.58-5.49-1.24-5.49-4.56,0-1.42,1.15-2.57,2.89-2.93V28.43a.34.34,0,0,1,.36-.32h1.19a.34.34,0,0,1,.36.32V29.7a5.37,5.37,0,0,1,2.71,1,.31.31,0,0,1,.07.4L38,32.29a.38.38,0,0,1-.52.11,4.26,4.26,0,0,0-2.27-.77c-1,0-1.63.41-1.63,1,0,1.69,5.49,1.26,5.49,4.49A3.3,3.3,0,0,1,35.89,40.29Z" fill="#fff"/>
          <path d="M53.84,31.19h-.08a1.05,1.05,0,0,1-.63-.29L50.2,28a1,1,0,0,1,.17-1.56L51,26a17.43,17.43,0,0,0-3.81-4.6,19,19,0,0,0-17.57-3.61A17.43,17.43,0,0,0,17.48,29.08a1,1,0,1,1-1.9-.62A19.42,19.42,0,0,1,29.12,15.83a21,21,0,0,1,19.4,4,19.21,19.21,0,0,1,4.17,5l.84-.58a1,1,0,0,1,1.56.88l-.25,5.09a.41.41,0,0,1,0,.11,1,1,0,0,1-.21.48.81.81,0,0,1-.19.18h0a1,1,0,0,1-.58.2Z" fill="#fff"/>
          <path d="M34.71,55.6A20.6,20.6,0,0,1,21.3,50.75a19.41,19.41,0,0,1-4.17-5l-.84.58a1,1,0,0,1-1,0,1,1,0,0,1-.51-.92L15,40.38s0-.07,0-.11a1,1,0,0,1,.21-.48,1.14,1.14,0,0,1,.19-.19,1.08,1.08,0,0,1,.58-.19h.09a.91.91,0,0,1,.63.29l2.93,2.93a1,1,0,0,1,.29.82,1,1,0,0,1-.46.73l-.67.44a17.62,17.62,0,0,0,3.81,4.6,19.09,19.09,0,0,0,17.57,3.61A17.43,17.43,0,0,0,52.34,41.52a1,1,0,0,1,1.9.62A19.42,19.42,0,0,1,40.7,54.77,22,22,0,0,1,34.71,55.6Z" fill="#fff"/>
        </g>
      </g>
    </g>
  </g>
</svg>
