<svg xmlns="http://www.w3.org/2000/svg" xmlns:xlink="http://www.w3.org/1999/xlink" width="70" height="70"><defs><path id="a" d="M4 0h61c4 0 5 1 5 5v60c0 4-1 5-5 5H4c-3 0-4-1-4-5V5c0-4 1-5 4-5z"/><linearGradient id="c" x1="100%" x2="0%" y1="0%" y2="98.616%"><stop offset="0%" stop-color="#797C79"/><stop offset="100%" stop-color="#545554"/></linearGradient><path id="d" d="M36.411 41.224c.238-.103.443-.129.617-.077.174.05.261.2.261.449 0 .248-.118.535-.356.86-.205.274-.553.646-1.043 1.116-.49.471-.811.718-1.831 1.41a24.949 24.949 0 0 1-3.345 1.9c-1.21.574-2.696 1.07-4.46 1.49-1.762.418-3.577.628-5.443.628-1.882 0-3.764-.265-5.646-.796-1.882-.53-3.534-1.185-4.957-1.963a31.73 31.73 0 0 1-4.092-2.67c-1.305-1.001-2.353-1.9-3.143-2.695A23.636 23.636 0 0 1 .98 38.629a1.12 1.12 0 0 1-.237-.423c-.032-.128-.024-.231.024-.308a.478.478 0 0 1 .463-.231.466.466 0 0 1 .272.115c3.036 2.003 5.408 3.423 7.116 4.262 6.152 3.011 12.47 3.782 18.953 2.31 3.005-.685 5.662-1.505 8.84-3.13zm-1.398-15.66c0 .531.116 1.079.347 1.644.231.564.505 1.06.821 1.488.317.428.638.822.963 1.181.325.36.607.633.847.822l.334.282-5.827 5.75a86.335 86.335 0 0 1-2.028-1.938 71.956 71.956 0 0 1-1.489-1.502l-.488-.513c-.188-.188-.402-.47-.641-.847a9.864 9.864 0 0 1-2.503 2.63 10.568 10.568 0 0 1-3.273 1.631c-1.164.342-2.362.539-3.594.59a9.062 9.062 0 0 1-3.53-.539 10.694 10.694 0 0 1-3.016-1.681c-.89-.71-1.6-1.677-2.13-2.9-.53-1.224-.796-2.615-.796-4.172 0-1.438.24-2.755.719-3.953s1.095-2.195 1.848-2.99c.753-.796 1.664-1.507 2.734-2.131a17.442 17.442 0 0 1 3.144-1.463c1.027-.351 2.14-.646 3.337-.886 1.198-.24 2.22-.398 3.068-.475a50.501 50.501 0 0 1 2.554-.167v-3.26c0-1.112-.18-1.942-.539-2.49-.582-.907-1.617-1.36-3.106-1.36-.103 0-.244.008-.424.025-.18.018-.526.12-1.04.308-.513.189-.992.441-1.437.758-.445.316-.924.825-1.437 1.527-.514.702-.924 1.523-1.232 2.464l-7.547-.693c0-1.027.188-2.045.565-3.054.376-1.01.95-1.977 1.72-2.901a12.331 12.331 0 0 1 2.772-2.439c1.078-.701 2.374-1.262 3.889-1.681 1.514-.42 3.144-.629 4.89-.629 1.711 0 3.26.214 4.646.642 1.386.428 2.494.954 3.324 1.578a9.42 9.42 0 0 1 2.08 2.131c.556.796.94 1.532 1.155 2.208.213.676.32 1.304.32 1.886v15.12zm-17.25 1.54c0 1.472.6 2.61 1.797 3.414 1.13.753 2.32.941 3.568.565 1.438-.428 2.413-1.48 2.927-3.158.24-.77.36-1.634.36-2.592v-4.159a18.39 18.39 0 0 0-2.85.308 13.22 13.22 0 0 0-2.734.86 5.083 5.083 0 0 0-2.233 1.823c-.557.812-.835 1.792-.835 2.939zm31.85 6.863a.909.909 0 0 1 .21.678.909.909 0 0 1-.325.63l-3.15 2.638.989 1.178-1.258 1.056a4.553 4.553 0 0 1-2.933 1.101c-1.1.018-2.07-.31-2.91-.986-.8.143-1.547.61-2.242 1.404.201-.77-.262-1.102-.843-1.102.903-.455 1.533-1.03 1.892-1.725-.52-.943-.675-1.956-.467-3.037a4.553 4.553 0 0 1 1.595-2.697l1.257-1.055.99 1.179 3.143-2.645a.913.913 0 0 1 .681-.21c.256.022.465.13.627.324.163.194.233.42.21.677a.893.893 0 0 1-.324.631l-3.144 2.645 1.543 1.84 3.15-2.638a.913.913 0 0 1 .682-.21c.255.022.464.13.627.324z"/></defs><g fill="none" fill-rule="evenodd"><mask id="b" fill="#fff"><use xlink:href="#a"/></mask><g mask="url(#b)"><path fill="url(#c)" d="M0 0H70V70H0z"/><path fill="#FFF" fill-opacity=".383" d="M4 1h61c2.667 0 4.333.667 5 2V0H0v3c.667-1.333 2-2 4-2z"/><path fill="#393939" d="M4 69c-2 0-4-.143-4-4V40.04l24.267-24.584 14.424.482v23.51l10.634 1.562 1.996 3.18 6.707-3.18-3.024 6.3 5.517-2.474-2.743 3.894.559.361L43.5 69H4z" opacity=".324"/><path fill="#000" fill-opacity=".383" d="M4 69h61c2.667 0 4.333-1 5-3v4H0v-4c.667 2 2 3 4 3z"/><g transform="translate(11 12)" fill-rule="nonzero"><use fill="#000" opacity=".3" xlink:href="#d"/><path fill="#FFF" d="M36.411 39.224c.238-.103.443-.129.617-.077.174.05.261.2.261.449 0 .248-.118.535-.356.86-.205.274-.553.646-1.043 1.116-.49.471-.811.718-1.831 1.41a24.949 24.949 0 0 1-3.345 1.9c-1.21.574-2.696 1.07-4.46 1.49-1.762.418-3.577.628-5.443.628-1.882 0-3.764-.265-5.646-.796-1.882-.53-3.534-1.185-4.957-1.963a31.73 31.73 0 0 1-4.092-2.67c-1.305-1.001-2.353-1.9-3.143-2.695A23.636 23.636 0 0 1 .98 36.629a1.12 1.12 0 0 1-.237-.423c-.032-.128-.024-.231.024-.308a.478.478 0 0 1 .463-.231.466.466 0 0 1 .272.115c3.036 2.003 5.408 3.423 7.116 4.262 6.152 3.011 12.47 3.782 18.953 2.31 3.005-.685 5.662-1.505 8.84-3.13zm-1.398-15.66c0 .531.116 1.079.347 1.644.231.564.505 1.06.821 1.488.317.428.638.822.963 1.181.325.36.607.633.847.822l.334.282-5.827 5.75a86.335 86.335 0 0 1-2.028-1.938 71.956 71.956 0 0 1-1.489-1.502l-.488-.513c-.188-.188-.402-.47-.641-.847a9.864 9.864 0 0 1-2.503 2.63 10.568 10.568 0 0 1-3.273 1.631c-1.164.342-2.362.539-3.594.59a9.062 9.062 0 0 1-3.53-.539 10.694 10.694 0 0 1-3.016-1.681c-.89-.71-1.6-1.677-2.13-2.9-.53-1.224-.796-2.615-.796-4.172 0-1.438.24-2.755.719-3.953s1.095-2.195 1.848-2.99c.753-.796 1.664-1.507 2.734-2.131a17.442 17.442 0 0 1 3.144-1.463c1.027-.351 2.14-.646 3.337-.886 1.198-.24 2.22-.398 3.068-.475a50.501 50.501 0 0 1 2.554-.167v-3.26c0-1.112-.18-1.942-.539-2.49-.582-.907-1.617-1.36-3.106-1.36-.103 0-.244.008-.424.025-.18.018-.526.12-1.04.308-.513.189-.992.441-1.437.758-.445.316-.924.825-1.437 1.527-.514.702-.924 1.523-1.232 2.464l-7.547-.693c0-1.027.188-2.045.565-3.054.376-1.01.95-1.977 1.72-2.901a12.331 12.331 0 0 1 2.772-2.439c1.078-.701 2.374-1.262 3.889-1.681C20.112.209 21.742 0 23.488 0c1.711 0 3.26.214 4.646.642 1.386.428 2.494.954 3.324 1.578a9.42 9.42 0 0 1 2.08 2.131c.556.796.94 1.532 1.155 2.208.213.676.32 1.304.32 1.886v15.12zm-17.25 1.54c0 1.472.6 2.61 1.797 3.414 1.13.753 2.32.941 3.568.565 1.438-.428 2.413-1.48 2.927-3.158.24-.77.36-1.634.36-2.592v-4.159a18.39 18.39 0 0 0-2.85.308 13.22 13.22 0 0 0-2.734.86 5.083 5.083 0 0 0-2.233 1.823c-.557.812-.835 1.792-.835 2.939zm31.85 6.863a.909.909 0 0 1 .21.678.909.909 0 0 1-.325.63l-3.15 2.638.989 1.178-1.258 1.056a4.553 4.553 0 0 1-2.933 1.101c-1.1.018-2.07-.31-2.91-.986-.8.143-1.547.61-2.242 1.404.201-.77-.262-1.102-.843-1.102.903-.455 1.533-1.03 1.892-1.725-.52-.943-.675-1.956-.467-3.037a4.553 4.553 0 0 1 1.595-2.697l1.257-1.055.99 1.179 3.143-2.645a.913.913 0 0 1 .681-.21c.256.022.465.13.627.324.163.194.233.42.21.677a.893.893 0 0 1-.324.631l-3.144 2.645 1.543 1.84 3.15-2.638a.913.913 0 0 1 .682-.21c.255.022.464.13.627.324z"/></g></g></g></svg>