<svg id="Layer_1" data-name="Layer 1" xmlns="http://www.w3.org/2000/svg" xmlns:xlink="http://www.w3.org/1999/xlink" viewBox="0 0 70 70">
  <defs>
    <mask id="mask" x="0" y="0" width="70" height="70" maskUnits="userSpaceOnUse">
      <g id="b">
        <path id="a" d="M4,0H65c4,0,5,1,5,5V65c0,4-1,5-5,5H4c-3,0-4-1-4-5V5C0,1,1,0,4,0Z" fill="#fff" fill-rule="evenodd"/>
      </g>
    </mask>
    <linearGradient id="linear-gradient" x1="-1793.36" y1="568.8" x2="-1794.36" y2="567.8" gradientTransform="matrix(70, 0, 0, -70, 125604.99, 39816)" gradientUnits="userSpaceOnUse">
      <stop offset="0" stop-color="#269396"/>
      <stop offset="1" stop-color="#218689"/>
    </linearGradient>
  </defs>
  <g mask="url(#mask)">
    <g>
      <path d="M0,0H70V70H0Z" fill-rule="evenodd" fill="url(#linear-gradient)"/>
      <path d="M4,1H65c2.67,0,4.33.67,5,2V0H0V3C.67,1.67,2,1,4,1Z" fill="#fff" fill-opacity="0.38" fill-rule="evenodd"/>
      <path d="M30.87,69H4a3.66,3.66,0,0,1-4-4V47.27L29,18.33,34,26h8l-.78,4.35L36.56,35l10.8,1.78L44.84,39.3,50.25,41l-2,2,2.14,6.52Z" fill="#393939" fill-rule="evenodd" opacity="0.32" style="isolation: isolate"/>
      <path d="M4,69H65c2.67,0,4.33-1,5-3v4H0V66A3.92,3.92,0,0,0,4,69Z" fill-opacity="0.38" fill-rule="evenodd"/>
      <g>
        <g opacity="0.4">
          <path d="M27.13,38.39c0-.65,0-1.39.06-1.86a4.79,4.79,0,0,1,4.89-3.91h8.7V26.76s-9.09,2.15-9.09-1.51c0-1.18,1.64-2.12,1.64-4.29,0-2-1.64-3-3.43-3a2.88,2.88,0,0,0-3.18,2.87c0,2.09,1.87,2.64,1.87,4.52,0,4.38-10.14.17-10.14.17s2.82,9.26-.28,9.26c-1.17,0-2.1-1.66-4.25-1.66C12,33.16,11,34.82,11,36.62s1,3.23,2.84,3.23c2.06,0,2.6-1.9,4.46-1.9,3.13,0,1.34,6.31,1.34,6.31,2.66,0,9.37,1.84,9.37-1.35a2.81,2.81,0,0,0-.57-1.66l-.12-.18A4.28,4.28,0,0,1,27.13,38.39Z"/>
          <path d="M46.36,39.12H32.08a.49.49,0,0,1-.49-.48V37.11a.5.5,0,0,1,.49-.49H46.36a.5.5,0,0,1,.48.49v1.53A.51.51,0,0,1,46.36,39.12Zm2.74,4.52H34.82a.49.49,0,0,1-.48-.48V41.63a.49.49,0,0,1,.48-.49H49.1a.5.5,0,0,1,.49.49v1.53A.53.53,0,0,1,49.1,43.64ZM41.64,46.1h-9a.37.37,0,0,0-.33.41v1.65a.37.37,0,0,0,.33.4h8.18A4.28,4.28,0,0,1,41.64,46.1Zm4.19-1.33a3.92,3.92,0,1,0,3.88,3.91A3.89,3.89,0,0,0,45.83,44.77Zm.81,4.36a.3.3,0,0,1-.08.16l-1.37,1a.2.2,0,0,1-.28,0l-.45-.61a.2.2,0,0,1,0-.28l1-.73V46.47a.2.2,0,0,1,.2-.21h.77a.2.2,0,0,1,.2.21v2.66Z"/>
        </g>
        <g>
          <path d="M29.13,36.39c0-.65,0-1.39.06-1.86a4.79,4.79,0,0,1,4.89-3.91h8.7V24.76s-9.09,2.15-9.09-1.51c0-1.18,1.64-2.12,1.64-4.29,0-2-1.64-3-3.43-3a2.88,2.88,0,0,0-3.18,2.87c0,2.09,1.87,2.64,1.87,4.52,0,4.38-10.14.17-10.14.17s2.82,9.26-.28,9.26c-1.17,0-2.1-1.66-4.25-1.66C14,31.16,13,32.82,13,34.62s1,3.23,2.84,3.23c2.06,0,2.6-1.9,4.46-1.9,3.13,0,1.34,6.31,1.34,6.31,2.66,0,9.37,1.84,9.37-1.35a2.81,2.81,0,0,0-.57-1.66l-.12-.18A4.28,4.28,0,0,1,29.13,36.39Z" fill="#fff"/>
          <path d="M48.36,37.12H34.08a.49.49,0,0,1-.49-.48V35.11a.5.5,0,0,1,.49-.49H48.36a.5.5,0,0,1,.48.49v1.53A.51.51,0,0,1,48.36,37.12Zm2.74,4.52H36.82a.49.49,0,0,1-.48-.48V39.63a.49.49,0,0,1,.48-.49H51.1a.5.5,0,0,1,.49.49v1.53A.53.53,0,0,1,51.1,41.64ZM43.64,44.1h-9a.37.37,0,0,0-.33.41v1.65a.37.37,0,0,0,.33.4h8.18A4.28,4.28,0,0,1,43.64,44.1Zm4.19-1.33a3.92,3.92,0,1,0,3.88,3.91A3.89,3.89,0,0,0,47.83,42.77Zm.81,4.36a.3.3,0,0,1-.08.16l-1.37,1a.2.2,0,0,1-.28,0l-.45-.61a.2.2,0,0,1,0-.28l1-.73V44.47a.2.2,0,0,1,.2-.21h.77a.2.2,0,0,1,.2.21v2.66Z" fill="#fff"/>
        </g>
      </g>
    </g>
  </g>
</svg>
