<svg id="Layer_1" data-name="Layer 1" xmlns="http://www.w3.org/2000/svg" xmlns:xlink="http://www.w3.org/1999/xlink" viewBox="0 0 70 70">
  <defs>
    <mask id="mask" x="0" y="0" width="70" height="70" maskUnits="userSpaceOnUse">
      <g id="b">
        <path id="a" d="M4,0H65c4,0,5,1,5,5V65c0,4-1,5-5,5H4c-3,0-4-1-4-5V5C0,1,1,0,4,0Z" fill="#fff" fill-rule="evenodd"/>
      </g>
    </mask>
    <linearGradient id="linear-gradient" x1="-1793.36" y1="477.94" x2="-1794.36" y2="476.94" gradientTransform="matrix(70, 0, 0, -70, 125604.99, 33455.73)" gradientUnits="userSpaceOnUse">
      <stop offset="0" stop-color="#da956b"/>
      <stop offset="1" stop-color="#cc7039"/>
    </linearGradient>
  </defs>
  <g mask="url(#mask)">
    <g>
      <path d="M0,0H70V70H0Z" fill-rule="evenodd" fill="url(#linear-gradient)"/>
      <path d="M4,1H65c2.67,0,4.33.67,5,2V0H0V3C.67,1.67,2,1,4,1Z" fill="#fff" fill-opacity="0.38" fill-rule="evenodd"/>
      <path d="M4,69c-2,0-4-.14-4-4V32.36L18.72,13.64,28.86,31.3,35,25.18l.86,15,7.71-7.72,2.51,0,3.84-3.84,6,5.47-10,9.93,11.79,1.4L34.05,69Z" fill="#393939" fill-rule="evenodd" opacity="0.32" style="isolation: isolate"/>
      <path d="M4,69H65c2.67,0,4.33-1,5-3v4H0V66A3.92,3.92,0,0,0,4,69Z" fill-opacity="0.38" fill-rule="evenodd"/>
      <g>
        <g opacity="0.4">
          <path d="M17.64,45.89h-1a.52.52,0,0,0-.36.12.38.38,0,0,0-.14.31v4.82h-3.5a.52.52,0,0,0-.36.12.39.39,0,0,0-.14.32v.87a.37.37,0,0,0,.14.31.53.53,0,0,0,.36.13h5a.53.53,0,0,0,.36-.13.4.4,0,0,0,.14-.31V46.33A.42.42,0,0,0,18,46,.56.56,0,0,0,17.64,45.89Z"/>
          <path d="M26.52,43.79a1,1,0,0,0-1.38-.19l-1.27.93a10,10,0,0,0-2.71-2.3A9.62,9.62,0,0,0,17.64,41v-1.1h.5a1,1,0,0,0,0-2h-4a1,1,0,0,0,0,2h.5V41a9.62,9.62,0,0,0-3.52,1.24,9.85,9.85,0,0,0-3.64,3.64,10.07,10.07,0,0,0,0,10,10,10,0,0,0,3.64,3.64,10.07,10.07,0,0,0,10,0,10.08,10.08,0,0,0,3.64-3.64,9.86,9.86,0,0,0,1.34-5,9.69,9.69,0,0,0-.95-4.27l1.42-1h0a1,1,0,0,0,.18-1.41ZM22.2,54.4a7,7,0,0,1-12.12,0,7,7,0,0,1,0-7,7,7,0,0,1,2.54-2.54,6.85,6.85,0,0,1,3.52-.94h0a6.77,6.77,0,0,1,3.51.94,7,7,0,0,1,3.49,6.06A6.87,6.87,0,0,1,22.2,54.4Z"/>
          <path d="M27.59,36.18a16.14,16.14,0,0,1-.42-3,13.31,13.31,0,0,1,2.34-8c-.42.11-.81.2-1.15.27a4.65,4.65,0,0,1-2.62-.16,2.28,2.28,0,0,1-1.41-1.84,4,4,0,0,1,.09-1.81A6.18,6.18,0,0,1,25.07,20a6.14,6.14,0,0,0,.64-1.62,4.37,4.37,0,0,0,.06-2,3.76,3.76,0,0,0-1.89-2.75,5,5,0,0,0-3.46-.46A5.59,5.59,0,0,0,17.16,15a3.76,3.76,0,0,0-.83,3.38,6,6,0,0,0,.76,2,6.66,6.66,0,0,0,1.11,1.41,9.62,9.62,0,0,1,1.07,1.14,2.75,2.75,0,0,1,.6,1.16,3.13,3.13,0,0,1-.69,2.38,4.06,4.06,0,0,1-2.67,1.4,39.08,39.08,0,0,1-6,.57,4,4,0,0,0-.53,0l-.85,0H8.65L10,35.63a14.58,14.58,0,0,1,4.6-.74c4.77,0,8,1.4,10.16,3.38l.45-.1a5.41,5.41,0,0,1,2.48.07c-.07-.51-.12-1-.14-1.56C27.58,36.51,27.59,36.34,27.59,36.18Z"/>
          <path id="e" d="M56.4,45.69a.63.63,0,0,1,.58.66v.54a.63.63,0,0,1-.58.66H32.82a.63.63,0,0,1-.58-.66V27.12a.63.63,0,0,1,.58-.66h.83a.63.63,0,0,1,.58.66V45.69ZM46.88,29.54l2.75,2.74-3.48,4-2.69-3.05a.52.52,0,0,0-.81,0L36.9,39.7a.71.71,0,0,0,0,.92l1.37,1.62a.53.53,0,0,0,.83,0l4-4.51,2.68,3.05a.53.53,0,0,0,.75.07l.07-.07,5.28-6,2.77,2.83,1.11-9.75Z"/>
        </g>
        <g>
          <path d="M19.64,43.89h-1a.48.48,0,0,0-.36.12.41.41,0,0,0-.14.31v4.82h-3.5a.48.48,0,0,0-.36.12.41.41,0,0,0-.14.31v.88a.41.41,0,0,0,.14.31.53.53,0,0,0,.36.13h5a.53.53,0,0,0,.36-.13.41.41,0,0,0,.14-.31V44.32A.41.41,0,0,0,20,44,.52.52,0,0,0,19.64,43.89Z" fill="#fff"/>
          <path d="M28.52,41.79a1,1,0,0,0-1.38-.19l-1.27.93a10,10,0,0,0-2.71-2.3A9.62,9.62,0,0,0,19.64,39v-1.1h.5a1,1,0,0,0,0-2h-4a1,1,0,0,0,0,2h.5V39a9.62,9.62,0,0,0-3.52,1.24A10,10,0,0,0,9.48,53.91a10,10,0,0,0,3.64,3.64,10.07,10.07,0,0,0,10,0,10.08,10.08,0,0,0,3.64-3.64,10.12,10.12,0,0,0,.4-9.29l1.41-1h0a1,1,0,0,0,.18-1.41ZM24.2,52.4A7,7,0,0,1,21.65,55a7,7,0,0,1-9.57-2.55,7,7,0,0,1,0-7,7,7,0,0,1,2.55-2.54,6.79,6.79,0,0,1,3.51-.94h0a6.88,6.88,0,0,1,3.51.95,7,7,0,0,1,2.55,2.54,7,7,0,0,1,0,7Z" fill="#fff"/>
          <path d="M29.59,34.17a16.77,16.77,0,0,1-.42-3,13.38,13.38,0,0,1,2.34-8c-.42.11-.81.2-1.15.27a4.65,4.65,0,0,1-2.62-.16,2.28,2.28,0,0,1-1.41-1.84,4,4,0,0,1,.09-1.81A6.66,6.66,0,0,1,27.07,18a5.63,5.63,0,0,0,.64-1.61,4.37,4.37,0,0,0,.06-2,3.76,3.76,0,0,0-1.89-2.75,5,5,0,0,0-3.45-.46A5.62,5.62,0,0,0,19.16,13a3.76,3.76,0,0,0-.82,3.38,5.72,5.72,0,0,0,.75,2,6.36,6.36,0,0,0,1.12,1.41,9.54,9.54,0,0,1,1.06,1.14,2.75,2.75,0,0,1,.6,1.16,3.13,3.13,0,0,1-.69,2.38,4.11,4.11,0,0,1-2.67,1.4,39.08,39.08,0,0,1-6,.57,4,4,0,0,0-.53,0l-.85,0h-.44l1.4,7.17a14.47,14.47,0,0,1,4.59-.74c4.78,0,8,1.4,10.17,3.38l.44-.1a5.41,5.41,0,0,1,2.48.07c-.07-.51-.12-1-.14-1.56C29.58,34.51,29.59,34.34,29.59,34.17Z" fill="#fff"/>
          <path id="e-2" data-name="e" d="M58.4,43.69a.63.63,0,0,1,.58.66v.54a.63.63,0,0,1-.58.66H34.82a.63.63,0,0,1-.58-.66V25.12a.63.63,0,0,1,.58-.66h.83a.63.63,0,0,1,.58.66V43.69ZM48.88,27.53l2.75,2.75-3.48,4-2.68-3.06a.54.54,0,0,0-.82,0L38.9,37.69a.73.73,0,0,0,0,.93l1.38,1.62a.52.52,0,0,0,.82,0l4-4.51,2.68,3.05a.53.53,0,0,0,.75.07l.07-.07,5.28-6,2.77,2.84,1.11-9.76Z" fill="#fff"/>
        </g>
      </g>
    </g>
  </g>
</svg>
