<svg id="Layer_1" data-name="Layer 1" xmlns="http://www.w3.org/2000/svg" xmlns:xlink="http://www.w3.org/1999/xlink" viewBox="0 0 70 70">
  <defs>
    <mask id="mask" x="0" y="0" width="70" height="70.01" maskUnits="userSpaceOnUse">
      <g id="icon-b">
        <path id="icon-a" d="M4,0H65c4,0,5,1,5,5V65c0,4-1,5-5,5H4c-3,0-4-1-4-5V5C0,1,1,0,4,0Z" fill="#fff" fill-rule="evenodd"/>
      </g>
    </mask>
    <linearGradient id="linear-gradient" x1="-998.54" y1="477.92" x2="-999.52" y2="476.94" gradientTransform="matrix(70, 0, 0, -70, 69966.3, 33455.73)" gradientUnits="userSpaceOnUse">
      <stop offset="0" stop-color="#797da5"/>
      <stop offset="0.51" stop-color="#6d7194"/>
      <stop offset="1" stop-color="#626584"/>
    </linearGradient>
  </defs>
  <g mask="url(#mask)">
    <g>
      <path d="M0,0H70V70H0Z" fill-rule="evenodd" fill="url(#linear-gradient)"/>
      <path d="M4,1H65q4,0,5,2V0H0V3C.66,1.68,2,1,4,1Z" fill="#fff" fill-opacity="0.38" fill-rule="evenodd"/>
      <path d="M4,69H65q4,0,5-3v4H0V66A3.92,3.92,0,0,0,4,69Z" fill-opacity="0.38" fill-rule="evenodd"/>
      <path d="M4,69c-2,0-4-.14-4-4.07v-25L29.2,10.72l11.43,2.62L37.4,16.56l12,7.62,5.77.63-2.35,2.36L49.49,50.65,31.13,69Z" fill="#393939" fill-rule="evenodd" opacity="0.32" style="isolation: isolate"/>
      <g>
        <g opacity="0.4">
          <path d="M20,62.14a2,2,0,0,1-2-1.79l-.93-8.73a2,2,0,0,1,1.42-2.12l7.87-2.35A2,2,0,1,1,27.55,51l-6.29,1.87L22,59.93a2,2,0,0,1-1.77,2.2Z"/>
          <path d="M32.84,18A20.71,20.71,0,0,0,12.06,36.78,20.27,20.27,0,0,0,13,45a1.88,1.88,0,0,0,2.34,1.19h0a2.12,2.12,0,0,0,1.4-2.62,16.42,16.42,0,0,1-.63-7.2,16.57,16.57,0,1,1,3.61,12.7l-2.48,3.22A20.55,20.55,0,1,0,32.84,18Z"/>
          <path d="M34.08,43.18H26.73a2,2,0,1,1,0-4h5.35V30.11a2,2,0,0,1,4,0V41.18A2,2,0,0,1,34.08,43.18Z"/>
          <rect x="30.75" y="13.6" width="4" height="6.4"/>
          <path d="M37.21,16H28.65a2,2,0,0,1,0-4h8.56a2,2,0,0,1,0,4Z"/>
          <path d="M48,30.26a2,2,0,0,1-1.22-3.59l3.93-3a2,2,0,0,1,2.42,3.19l-3.93,3A1.94,1.94,0,0,1,48,30.26Z"/>
        </g>
        <g>
          <path d="M22.08,60.08a2,2,0,0,1-2-1.78l-.92-8.73a2,2,0,0,1,1.41-2.13l7.88-2.35a2,2,0,1,1,1.14,3.83L23.32,50.8l.75,7.07a2,2,0,0,1-1.78,2.2Z" fill="#fff"/>
          <path d="M34.89,16a20.54,20.54,0,0,0-19.82,27,1.88,1.88,0,0,0,2.34,1.19h0a2.11,2.11,0,0,0,1.41-2.62,16.27,16.27,0,0,1-.63-7.2A16.58,16.58,0,1,1,21.8,47l-2.48,3.22A20.55,20.55,0,1,0,34.89,16Z" fill="#fff"/>
          <path d="M36.13,41.13H28.78a2,2,0,1,1,0-4h5.35V28.06a2,2,0,1,1,4,0V39.13A2,2,0,0,1,36.13,41.13Z" fill="#fff"/>
          <rect x="32.81" y="11.54" width="4" height="6.4" fill="#fff"/>
          <path d="M39.27,13.92H30.71a2,2,0,0,1,0-4h8.56a2,2,0,0,1,0,4Z" fill="#fff"/>
          <path d="M50,28.2a2,2,0,0,1-1.21-3.59l3.92-3a2,2,0,1,1,2.42,3.18l-3.92,3A2,2,0,0,1,50,28.2Z" fill="#fff"/>
        </g>
      </g>
    </g>
  </g>
</svg>
