<svg id="Layer_1" data-name="Layer 1" xmlns="http://www.w3.org/2000/svg" xmlns:xlink="http://www.w3.org/1999/xlink" viewBox="0 0 70 70">
  <defs>
    <mask id="mask" x="0" y="0" width="70" height="70" maskUnits="userSpaceOnUse">
      <g id="b">
        <path id="a" d="M4,0H65c4,0,5,1,5,5V65c0,4-1,5-5,5H4c-3,0-4-1-4-5V5C0,1,1,0,4,0Z" fill="#fff" fill-rule="evenodd"/>
      </g>
    </mask>
    <linearGradient id="linear-gradient" x1="-1353.37" y1="809.68" x2="-1354.37" y2="808.68" gradientTransform="matrix(70, 0, 0, -70, 94806, 56677.64)" gradientUnits="userSpaceOnUse">
      <stop offset="0" stop-color="#1dc5f2"/>
      <stop offset="1" stop-color="#1da1f2"/>
    </linearGradient>
  </defs>
  <g mask="url(#mask)">
    <g>
      <path d="M0,0H70V70H0Z" fill-rule="evenodd" fill="url(#linear-gradient)"/>
      <path d="M4,1H65c2.67,0,4.33.67,5,2V0H0V3C.67,1.67,2,1,4,1Z" fill="#fff" fill-opacity="0.38" fill-rule="evenodd"/>
      <path d="M44.71,69H4a3.66,3.66,0,0,1-4-4V35.43L17.76,19.91l9.33,11.14L38.62,19.5,48.7,21c1.56,0,3.37-.93,5.22-2l-.66,3.93A7,7,0,0,0,55,22.26Z" fill="#393939" fill-rule="evenodd" opacity="0.32" style="isolation: isolate"/>
      <path d="M4,69H65c2.67,0,4.33-1,5-3v4H0V66A3.92,3.92,0,0,0,4,69Z" fill-opacity="0.38" fill-rule="evenodd"/>
      <g>
        <path d="M26.07,52.63c15.12,0,23.38-12.52,23.38-23.38,0-.36,0-.71,0-1.06a16.94,16.94,0,0,0,4.1-4.26,16.48,16.48,0,0,1-4.72,1.3,8.28,8.28,0,0,0,3.61-4.55,16.57,16.57,0,0,1-5.22,2,8.22,8.22,0,0,0-14,7.49,23.29,23.29,0,0,1-16.93-8.59,8.22,8.22,0,0,0,2.54,11,8.12,8.12,0,0,1-3.73-1v.11a8.21,8.21,0,0,0,6.59,8.05,8.16,8.16,0,0,1-3.71.14,8.23,8.23,0,0,0,7.68,5.71,16.42,16.42,0,0,1-10.21,3.52,18.21,18.21,0,0,1-1.95-.11,23.24,23.24,0,0,0,12.59,3.68" opacity="0.4"/>
        <path d="M27.57,51C42.68,51,51,38.43,51,27.57c0-.35,0-.71,0-1.06A16.57,16.57,0,0,0,55,22.26a16.46,16.46,0,0,1-4.72,1.29A8.28,8.28,0,0,0,53.92,19a16.64,16.64,0,0,1-5.22,2,8.22,8.22,0,0,0-14,7.49,23.35,23.35,0,0,1-16.94-8.58,8.23,8.23,0,0,0,2.55,11,8.12,8.12,0,0,1-3.73-1V30A8.23,8.23,0,0,0,23.17,38a8.16,8.16,0,0,1-3.71.14,8.23,8.23,0,0,0,7.68,5.71,16.56,16.56,0,0,1-10.21,3.52A16,16,0,0,1,15,47.26,23.31,23.31,0,0,0,27.57,51" fill="#fff"/>
      </g>
    </g>
  </g>
</svg>
