<svg id="Layer_1" data-name="Layer 1" xmlns="http://www.w3.org/2000/svg" xmlns:xlink="http://www.w3.org/1999/xlink" viewBox="0 0 70 70">
  <defs>
    <mask id="mask" x="0" y="0" width="70" height="70" maskUnits="userSpaceOnUse">
      <g id="b">
        <path id="a" d="M4,0H65c4,0,5,1,5,5V65c0,4-1,5-5,5H4c-3,0-4-1-4-5V5C0,1,1,0,4,0Z" fill="#fff" fill-rule="evenodd"/>
      </g>
    </mask>
    <linearGradient id="linear-gradient" x1="-1527.21" y1="568.8" x2="-1528.21" y2="567.8" gradientTransform="matrix(70, 0, 0, -70, 106974.99, 39816)" gradientUnits="userSpaceOnUse">
      <stop offset="0" stop-color="#b06161"/>
      <stop offset="0.46" stop-color="#984e4e"/>
      <stop offset="1" stop-color="#7c3838"/>
    </linearGradient>
  </defs>
  <g mask="url(#mask)">
    <g>
      <path d="M0,0H70V70H0Z" fill-rule="evenodd" fill="url(#linear-gradient)"/>
      <path d="M4,1H65c2.67,0,4.33.67,5,2V0H0V3C.67,1.67,2,1,4,1Z" fill="#fff" fill-opacity="0.38" fill-rule="evenodd"/>
      <path d="M4,69a3.66,3.66,0,0,1-4-4V37.68L25.47,12.17,43.29,11,24.5,29.66v3.58L43.73,13.93s9.79-.62,12.75-.39l-.83,12.59L35.89,45.9l3.08.27L56.69,28.3l1.7-1.56c1.3,6.47.28,13.75-3.93,22.15L34.67,69Z" fill="#393939" fill-rule="evenodd" opacity="0.32" style="isolation: isolate"/>
      <path d="M4,69H65c2.67,0,4.33-1,5-3v4H0V66A3.92,3.92,0,0,0,4,69Z" fill-opacity="0.38" fill-rule="evenodd"/>
      <g>
        <g opacity="0.4">
          <path id="e" d="M38.22,28.53c.74.74,2.8-1.7,4.2-.3a2,2,0,0,1,.08,2.66l.55.56a.21.21,0,0,1,0,.29l-.49.48a.21.21,0,0,1-.29,0l-.56-.57a3.28,3.28,0,0,1-1.77.64.18.18,0,0,1-.2-.16l-.11-.85a.22.22,0,0,1,.19-.24,2.62,2.62,0,0,0,1.49-.65.78.78,0,0,0,.15-1.12c-.69-.68-2.79,1.72-4.24.27a1.93,1.93,0,0,1-.09-2.46l-.58-.58a.2.2,0,0,1,0-.29l.48-.49a.21.21,0,0,1,.29,0l.55.55a3,3,0,0,1,1.56-.67.19.19,0,0,1,.2.14l.23.8a.22.22,0,0,1-.15.26h0a2.32,2.32,0,0,0-1.26.6C38,27.82,37.94,28.26,38.22,28.53Z"/>
          <path d="M39.64,40.34a3,3,0,0,1-2.16-.85l-8.11-7.67a3,3,0,0,1-.92-2.15,2.88,2.88,0,0,1,.92-2.13l11.8-11.16a5.75,5.75,0,0,1,2-1.21,6.38,6.38,0,0,1,2.29-.49H52.3a3.1,3.1,0,0,1,2.17.87,2.89,2.89,0,0,1,.93,2.13v6.5a5.68,5.68,0,0,1-.51,2.22,5.87,5.87,0,0,1-1.29,1.92L41.83,39.49A3.16,3.16,0,0,1,39.64,40.34Zm5.8-23.66a4.36,4.36,0,0,0-1.56.35,4,4,0,0,0-1.33.79L30.75,29a.84.84,0,0,0-.3.67,1,1,0,0,0,.31.72L38.85,38a1.19,1.19,0,0,0,1.63,0L52.22,26.87a3.78,3.78,0,0,0,.83-1.26,3.58,3.58,0,0,0,.35-1.43v-6.5a.88.88,0,0,0-.31-.68,1.08,1.08,0,0,0-.79-.32Zm3.69,7A3.1,3.1,0,0,1,47,22.82a2.92,2.92,0,0,1,0-4.28,3.09,3.09,0,0,1,2.18-.86,3.06,3.06,0,0,1,2.18.86,2.93,2.93,0,0,1,0,4.28A3.06,3.06,0,0,1,49.13,23.68Zm0-4a1.12,1.12,0,0,0-.8.31.92.92,0,0,0,0,1.38,1.17,1.17,0,0,0,1.61,0,.88.88,0,0,0,.3-.69.9.9,0,0,0-.3-.69A1.12,1.12,0,0,0,49.13,19.68Z"/>
          <path d="M54.61,30.44a20.25,20.25,0,0,1,.82,5.7,20.77,20.77,0,0,1-2.85,10.5L46.43,41a13.87,13.87,0,0,0,.83-3.7l-3.58,3.39a10.8,10.8,0,0,1-2.47,3.73,10.61,10.61,0,0,1-7.78,3.22,11,11,0,0,1-11-11,10.59,10.59,0,0,1,3.22-7.78l.42-.38A4.53,4.53,0,0,1,27.43,26l3.18-3a16.17,16.17,0,0,0-2.27.61l-5.91-6.15a22.58,22.58,0,0,1,11-2.85,22.34,22.34,0,0,1,5.36.65l1.65-1.57a6.25,6.25,0,0,1,.78-.62,24.3,24.3,0,0,0-17.81.48,24.78,24.78,0,0,0-7.82,5.23,24.53,24.53,0,0,0-5.22,7.82,24.3,24.3,0,0,0,0,19,24,24,0,0,0,13,13,24.3,24.3,0,0,0,19,0,24.53,24.53,0,0,0,7.82-5.22,24.78,24.78,0,0,0,5.23-7.82,24,24,0,0,0,1.94-9.52,23.71,23.71,0,0,0-1.12-7.25C55.76,29.41,55.19,29.93,54.61,30.44ZM20.43,41l-6.15,5.64a20.77,20.77,0,0,1,0-21l6.15,5.64a13.88,13.88,0,0,0-.89,4.86A13.67,13.67,0,0,0,20.43,41Zm13,16.64a22.58,22.58,0,0,1-11-2.85l5.91-6.15a15,15,0,0,0,10.18,0l5.91,6.15A22.61,22.61,0,0,1,33.43,57.64Z" fill-rule="evenodd"/>
        </g>
        <g>
          <path id="e-2" data-name="e" d="M40.24,26.5c.74.74,2.81-1.7,4.21-.29a2,2,0,0,1,.07,2.66l.56.55a.21.21,0,0,1,0,.29l-.49.49a.19.19,0,0,1-.28,0l-.57-.56a3.33,3.33,0,0,1-1.76.64.21.21,0,0,1-.21-.17l-.1-.85a.2.2,0,0,1,.18-.23,2.63,2.63,0,0,0,1.49-.65c.44-.44.39-.89.16-1.12-.69-.69-2.79,1.71-4.24.27a1.92,1.92,0,0,1-.09-2.46l-.58-.59a.21.21,0,0,1,0-.29l.49-.48a.21.21,0,0,1,.29,0l.55.56a3.09,3.09,0,0,1,1.56-.68.21.21,0,0,1,.2.15l.22.79a.2.2,0,0,1-.15.26h0a2.45,2.45,0,0,0-1.27.59C40.06,25.79,40,26.23,40.24,26.5Z" fill="#fff"/>
          <path d="M41.67,38.32a3.05,3.05,0,0,1-2.17-.86L31.4,29.8a3,3,0,0,1-.93-2.15,2.86,2.86,0,0,1,.93-2.13L43.19,14.35a6,6,0,0,1,2-1.21,6.27,6.27,0,0,1,2.29-.48h6.85a3.09,3.09,0,0,1,2.17.86,2.88,2.88,0,0,1,.94,2.14v6.49a5.54,5.54,0,0,1-.52,2.23,5.83,5.83,0,0,1-1.29,1.92L43.86,37.46A3.16,3.16,0,0,1,41.67,38.32Zm5.8-23.66a4.32,4.32,0,0,0-1.56.34,4.09,4.09,0,0,0-1.33.79L32.77,27a.86.86,0,0,0-.3.68,1,1,0,0,0,.32.71L40.88,36a1.17,1.17,0,0,0,1.62,0L54.24,24.85a4,4,0,0,0,.84-1.27,3.76,3.76,0,0,0,.35-1.43V15.66a.89.89,0,0,0-.31-.68,1.1,1.1,0,0,0-.8-.32Zm3.69,7A3.08,3.08,0,0,1,49,20.79a2.92,2.92,0,0,1,0-4.27,3.21,3.21,0,0,1,4.36,0,2.89,2.89,0,0,1,.93,2.14,2.86,2.86,0,0,1-.93,2.14A3.09,3.09,0,0,1,51.16,21.65Zm0-4a1,1,0,0,0-.8.31.91.91,0,0,0,0,1.37,1.15,1.15,0,0,0,1.6,0A.91.91,0,0,0,52,18,1,1,0,0,0,51.16,17.66Z" fill="#fff"/>
          <path d="M56.64,28.41a20.69,20.69,0,0,1-2,16.21L48.45,39a13.89,13.89,0,0,0,.84-3.7l-3.58,3.4a10.93,10.93,0,0,1-2.48,3.72,11,11,0,0,1-15.55,0,11,11,0,0,1,0-15.55c.13-.14.27-.25.41-.38A4.57,4.57,0,0,1,29.46,24l3.18-3a15.4,15.4,0,0,0-2.28.62l-5.91-6.15a22.69,22.69,0,0,1,16.36-2.21l1.66-1.56a6.18,6.18,0,0,1,.77-.63,24.35,24.35,0,0,0-17.8.49,24.1,24.1,0,0,0-13,13,24.3,24.3,0,0,0,0,19,24.16,24.16,0,0,0,13.05,13,24.3,24.3,0,0,0,19,0,24.1,24.1,0,0,0,13-13,24.29,24.29,0,0,0,.83-16.77C57.78,27.39,57.21,27.9,56.64,28.41ZM22.45,39l-6.14,5.65a20.7,20.7,0,0,1,0-21l6.14,5.64a13.83,13.83,0,0,0,0,9.71Zm13,16.65a22.51,22.51,0,0,1-11-2.86l5.91-6.14a15.16,15.16,0,0,0,10.18,0l5.91,6.14A22.48,22.48,0,0,1,35.45,55.62Z" fill="#fff" fill-rule="evenodd"/>
        </g>
      </g>
    </g>
  </g>
</svg>
