<svg id="Layer_1" data-name="Layer 1" xmlns="http://www.w3.org/2000/svg" xmlns:xlink="http://www.w3.org/1999/xlink" viewBox="0 0 70 70">
  <defs>
    <mask id="mask" x="0" y="0" width="70" height="70" maskUnits="userSpaceOnUse">
      <g id="b">
        <path id="a" d="M4,0H65c4,0,5,1,5,5V65c0,4-1,5-5,5H4c-3,0-4-1-4-5V5C0,1,1,0,4,0Z" fill="#fff" fill-rule="evenodd"/>
      </g>
    </mask>
    <linearGradient id="linear-gradient" x1="-1349.78" y1="568.8" x2="-1350.78" y2="567.81" gradientTransform="matrix(70, 0, 0, -70, 94554.99, 39816)" gradientUnits="userSpaceOnUse">
      <stop offset="0" stop-color="#797c79"/>
      <stop offset="1" stop-color="#545554"/>
    </linearGradient>
  </defs>
  <g mask="url(#mask)">
    <g>
      <path d="M0,0H70V70H0Z" fill-rule="evenodd" fill="url(#linear-gradient)"/>
      <path d="M4,1H65c2.67,0,4.33.67,5,2V0H0V3C.67,1.67,2,1,4,1Z" fill="#fff" fill-opacity="0.38" fill-rule="evenodd"/>
      <path d="M4,69c-2,0-4-.14-4-4V40.35L30.37,10a9.16,9.16,0,0,0-1.13,3.44l-3.45,3.36L26,19.81,40,6.08l5.86,1.18-2.51,4.33,10.41,9,9.07,3-15,15,3.93,3.59,5.59-5.56,2.1-1.07L54.29,49.11,34.41,69Z" fill="#393939" fill-rule="evenodd" opacity="0.32" style="isolation: isolate"/>
      <path d="M4,69H65c2.67,0,4.33-1,5-3v4H0V66A3.92,3.92,0,0,0,4,69Z" fill-opacity="0.38" fill-rule="evenodd"/>
      <g>
        <g opacity="0.4">
          <path d="M38.48,24.38a.7.7,0,0,1,0,1.4h-.35v.78a6.8,6.8,0,0,1,2.47.86A7.12,7.12,0,0,1,42.49,29l.89-.65a.71.71,0,0,1,1,.14l.2.26a.69.69,0,0,1-.12,1h0l-1,.73a6.88,6.88,0,0,1,.67,3A7,7,0,0,1,43.15,37a7,7,0,0,1-2.56,2.55,7,7,0,0,1-7-12.14A6.8,6.8,0,0,1,36,26.56v-.78h-.35a.7.7,0,0,1,0-1.4Zm-1.4,4.2a4.77,4.77,0,0,0-2.46.66A5,5,0,0,0,32.83,31a4.91,4.91,0,0,0,0,4.92,5,5,0,0,0,1.79,1.79,5,5,0,0,0,4.92,0A5,5,0,0,0,41.33,36a4.91,4.91,0,0,0-4.25-7.37ZM38.13,30a.34.34,0,0,1,.25.08.28.28,0,0,1,.1.22v4.29a.29.29,0,0,1-.1.23.38.38,0,0,1-.25.08h-3.5a.38.38,0,0,1-.26-.08.28.28,0,0,1-.09-.23V34a.27.27,0,0,1,.09-.22.34.34,0,0,1,.26-.08h2.45V30.29a.28.28,0,0,1,.1-.22.33.33,0,0,1,.25-.08ZM42.5,7.42a2.66,2.66,0,0,1,1.33,1.93,3.21,3.21,0,0,1,0,1.38,4.29,4.29,0,0,1-.45,1.13A4.77,4.77,0,0,0,42.88,13a2.73,2.73,0,0,0-.06,1.27,1.61,1.61,0,0,0,1,1.29,3.18,3.18,0,0,0,1.83.11,24.1,24.1,0,0,0,3-.85c1.28-.42,2.18-.7,2.71-.82v0a1.88,1.88,0,0,0,0,.31q0,.27,0,.6a1.68,1.68,0,0,1,0,.38,29.79,29.79,0,0,0,.41,4.26,2.91,2.91,0,0,0,1,1.88,2.18,2.18,0,0,0,1.66.49,2,2,0,0,0,.81-.42,8,8,0,0,0,.79-.75A4.41,4.41,0,0,1,57,20a3.85,3.85,0,0,1,1.35-.53,2.62,2.62,0,0,1,2.36.58A4,4,0,0,1,62,22.29a3.59,3.59,0,0,1-.31,2.45,2.57,2.57,0,0,1-1.91,1.33,3.06,3.06,0,0,1-1.38,0,4.35,4.35,0,0,1-1.12-.45,4.32,4.32,0,0,0-1.08-.47,2.73,2.73,0,0,0-1.27-.06c-1.24.24-1.72,1.07-1.45,2.48a11,11,0,0,0,.65,1.91,9.75,9.75,0,0,1,.64,1.91l0,.08-.56.13c-.38.11-.92.28-1.61.52s-1.34.44-1.92.61S49.56,33,49,33.1A3.3,3.3,0,0,1,47.2,33a1.57,1.57,0,0,1-1-1.28,2.6,2.6,0,0,1,.06-1.27,4.32,4.32,0,0,1,.45-1.09,3.81,3.81,0,0,0,.45-1.13,3.07,3.07,0,0,0,0-1.38A2.64,2.64,0,0,0,45.9,24.9a3.51,3.51,0,0,0-2.44-.32l-.31.07A10.11,10.11,0,0,0,36,22.28a10.06,10.06,0,0,0-3.22.52l-1-5h.31l.59,0h.38a27.86,27.86,0,0,0,4.23-.4,2.84,2.84,0,0,0,1.87-1,2.19,2.19,0,0,0,.48-1.67,2,2,0,0,0-.42-.81,7,7,0,0,0-.74-.8,4.23,4.23,0,0,1-.79-1,4.17,4.17,0,0,1-.52-1.36,2.62,2.62,0,0,1,.57-2.37,3.89,3.89,0,0,1,2.29-1.25A3.52,3.52,0,0,1,42.5,7.42Z"/>
          <path d="M55.29,38.8a20.94,20.94,0,0,1-2.67,7.79L46.48,41c.05-.15.09-.3.14-.45a21.94,21.94,0,0,1-2.73-.28,10.75,10.75,0,0,1-2.64,4.15,10.59,10.59,0,0,1-7.77,3.22,11,11,0,0,1-11-11,10.57,10.57,0,0,1,3.22-7.77,11.38,11.38,0,0,1,2.53-1.91A22.23,22.23,0,0,1,27,22.16l-4.53-4.71a22.64,22.64,0,0,1,4.73-2,18.5,18.5,0,0,1,1.14-3.44,23.21,23.21,0,0,0-4.89,1.49,24,24,0,0,0-13,13,24.3,24.3,0,0,0,0,19,24,24,0,0,0,13,13,24.3,24.3,0,0,0,19,0,24,24,0,0,0,13-13,23.82,23.82,0,0,0,1.86-7.88A20.72,20.72,0,0,1,55.29,38.8ZM20.48,41l-6.15,5.64a20.77,20.77,0,0,1,0-21l6.15,5.65a13.69,13.69,0,0,0,0,9.71Zm13,16.64a22.58,22.58,0,0,1-11-2.85l5.91-6.15a15,15,0,0,0,10.17,0l5.92,6.15A22.61,22.61,0,0,1,33.48,57.59Z" fill-rule="evenodd"/>
        </g>
        <g>
          <path d="M40.49,22.37a.71.71,0,0,1,0,1.41h-.35v.77a6.77,6.77,0,0,1,2.46.87A6.68,6.68,0,0,1,44.5,27l.89-.66a.71.71,0,0,1,1,.14l.2.26a.71.71,0,0,1-.12,1h0l-1,.72a6.9,6.9,0,0,1,.66,3A6.82,6.82,0,0,1,45.15,35a6.93,6.93,0,0,1-2.55,2.55,7,7,0,0,1-7,0A6.93,6.93,0,0,1,33,35a7.06,7.06,0,0,1,0-7,7.08,7.08,0,0,1,2.55-2.55A6.94,6.94,0,0,1,38,24.55v-.78h-.35a.7.7,0,1,1,0-1.4Zm-1.4,4.21A4.89,4.89,0,0,0,34.84,29a4.91,4.91,0,0,0,0,4.92,4.9,4.9,0,0,0,8.49,0A4.71,4.71,0,0,0,44,31.48,4.77,4.77,0,0,0,43.33,29a4.83,4.83,0,0,0-1.78-1.78,4.76,4.76,0,0,0-2.46-.66Zm1,1.4a.37.37,0,0,1,.25.09.29.29,0,0,1,.1.22v4.29a.32.32,0,0,1-.1.22.33.33,0,0,1-.25.08H36.63a.33.33,0,0,1-.25-.08.32.32,0,0,1-.1-.22V32a.32.32,0,0,1,.1-.22.38.38,0,0,1,.25-.08h2.46V28.29a.25.25,0,0,1,.09-.22.39.39,0,0,1,.26-.09ZM44.51,5.42a2.6,2.6,0,0,1,1.32,1.93,3.07,3.07,0,0,1,0,1.38,3.81,3.81,0,0,1-.45,1.13A4.41,4.41,0,0,0,44.89,11a2.6,2.6,0,0,0-.06,1.27,1.56,1.56,0,0,0,1,1.28,3.18,3.18,0,0,0,1.83.11,26.7,26.7,0,0,0,3-.84c1.28-.43,2.18-.7,2.71-.83v.34c0,.19,0,.38,0,.6a2.76,2.76,0,0,1,0,.38,28.13,28.13,0,0,0,.41,4.26,2.84,2.84,0,0,0,1,1.88,2.14,2.14,0,0,0,1.66.49,2,2,0,0,0,.81-.42,6.91,6.91,0,0,0,.78-.75,4.93,4.93,0,0,1,1-.78,4,4,0,0,1,1.36-.53,2.63,2.63,0,0,1,2.36.59A3.94,3.94,0,0,1,64,20.29a3.6,3.6,0,0,1-.3,2.45,2.64,2.64,0,0,1-1.92,1.33A3,3,0,0,1,60.39,24a4.35,4.35,0,0,1-1.12-.45,4.35,4.35,0,0,0-1.09-.46A2.56,2.56,0,0,0,56.92,23c-1.24.24-1.73,1.07-1.45,2.48a10.17,10.17,0,0,0,.65,1.91,10,10,0,0,1,.64,1.91v.09l-.55.12c-.38.11-.92.28-1.62.52s-1.33.44-1.91.61-1.12.31-1.64.41A3.3,3.3,0,0,1,49.21,31a1.61,1.61,0,0,1-1-1.29,2.73,2.73,0,0,1,.06-1.27,4.76,4.76,0,0,1,.46-1.09,4.43,4.43,0,0,0,.45-1.13,3.06,3.06,0,0,0,0-1.38,2.66,2.66,0,0,0-1.33-1.93,3.54,3.54,0,0,0-2.43-.32l-.31.07A10.17,10.17,0,0,0,38,20.27a10.15,10.15,0,0,0-3.22.52l-1-5h.31l.59,0h.38a28.32,28.32,0,0,0,4.23-.39,2.86,2.86,0,0,0,1.86-1,2.16,2.16,0,0,0,.49-1.67,2,2,0,0,0-.42-.81,7,7,0,0,0-.75-.79,4.74,4.74,0,0,1-.78-1,4.24,4.24,0,0,1-.53-1.37,2.64,2.64,0,0,1,.58-2.37A3.89,3.89,0,0,1,42.09,5.1,3.47,3.47,0,0,1,44.51,5.42Z" fill="#fff"/>
          <path d="M57.3,36.79a21.23,21.23,0,0,1-2.67,7.8l-6.15-5.65c.06-.15.09-.3.15-.45a20.34,20.34,0,0,1-2.74-.28,11.1,11.1,0,0,1-10.41,7.38,11,11,0,0,1-11-11,10.6,10.6,0,0,1,3.23-7.78,11,11,0,0,1,2.52-1.9A22.93,22.93,0,0,1,29,20.15l-4.53-4.71a23.61,23.61,0,0,1,4.74-2A18.48,18.48,0,0,1,30.35,10a23.3,23.3,0,0,0-4.88,1.49,24.37,24.37,0,0,0-7.82,5.22,24.78,24.78,0,0,0-5.23,7.82,24.3,24.3,0,0,0,0,19,24.16,24.16,0,0,0,13.05,13,24.3,24.3,0,0,0,19,0,24.78,24.78,0,0,0,7.82-5.23,24.37,24.37,0,0,0,5.22-7.82,23.56,23.56,0,0,0,1.85-7.87A21.57,21.57,0,0,1,57.3,36.79ZM22.48,38.94l-6.15,5.65a20.77,20.77,0,0,1,0-21l6.15,5.64a13.83,13.83,0,0,0,0,9.71Zm13,16.65a22.61,22.61,0,0,1-11-2.85l5.91-6.15a15.16,15.16,0,0,0,10.18,0l5.91,6.15A22.58,22.58,0,0,1,35.48,55.59Z" fill="#fff" fill-rule="evenodd"/>
        </g>
      </g>
    </g>
  </g>
</svg>
