<?xml version="1.0" encoding="utf-8"?>
<!-- Generator: Adobe Illustrator 26.3.1, SVG Export Plug-In . SVG Version: 6.00 Build 0)  -->
<svg version="1.1" id="Layer_1" xmlns="http://www.w3.org/2000/svg" xmlns:xlink="http://www.w3.org/1999/xlink" x="0px" y="0px"
	 viewBox="0 0 70 70" style="enable-background:new 0 0 70 70;" xml:space="preserve">
<style type="text/css">
	.st0{fill-rule:evenodd;clip-rule:evenodd;fill:url(#SVGID_1_);}
	.st1{fill-rule:evenodd;clip-rule:evenodd;fill:#FFFFFF;fill-opacity:0.383;}
	.st2{opacity:0.324;fill-rule:evenodd;clip-rule:evenodd;fill:#393939;enable-background:new    ;}
	.st3{fill-rule:evenodd;clip-rule:evenodd;fill-opacity:0.383;}
	.st4{opacity:0.3;enable-background:new    ;}
	.st5{fill:#FFFFFF;}
</style>
<g>
	<g>
		
			<linearGradient id="SVGID_1_" gradientUnits="userSpaceOnUse" x1="-773.7838" y1="439.3347" x2="-774.7591" y2="438.3593" gradientTransform="matrix(70 0 0 -70 54234 30754.2891)">
			<stop  offset="0" style="stop-color:#94B6C8"/>
			<stop  offset="1" style="stop-color:#6A9EBA"/>
		</linearGradient>
		<path class="st0" d="M3,0h64c1.7,0,3,1.3,3,3v64c0,1.7-1.3,3-3,3H3c-1.7,0-3-1.3-3-3V3C0,1.3,1.3,0,3,0z"/>
		<path class="st1" d="M4,1h61c2.7,0,4.3,0.7,5,2l0,0c0-1.7-1.3-3-3-3H3C1.3,0,0,1.3,0,3l0,0C0.7,1.7,2,1,4,1z"/>
		<path class="st2" d="M44.5,69H4c-2,0-4-1-4-4V48l14.8-18l8.2-2.5c0-2.1,6.4-10.4,13-10.4s12.7,1.8,13.2,10.6l8.9,5.7l0.1,9.6
			L44.5,69z"/>
		<path class="st3" d="M4,69h61c2.7,0,4.3-1,5-3v1c0,1.7-1.3,3-3,3H3c-1.7,0-3-1.3-3-3v-1C0.7,68,2,69,4,69z"/>
		<path class="st4" d="M60.1,38.8c0-5.7-4.3-10.3-9.8-10.9c-0.8-2.8-2.5-5.4-4.8-7.3c-2.6-2.2-6-3.4-9.4-3.4s-6.8,1.2-9.4,3.4
			c-2.3,1.9-4,4.5-4.8,7.3c-5.5,0.6-9.8,5.3-9.8,10.9l0,0c0,0.5,0.1,4.4,3,7.4c2.2,2.3,5.4,3.4,9.5,3.4c3.9,0,7.8-0.7,11.5-2
			c1.2,0.4,2.4,0.8,3.6,1.1c2.6,0.6,5.3,1,8,1c4.1,0,7.3-1.2,9.5-3.4C60,43.2,60.1,39.4,60.1,38.8L60.1,38.8z M57.1,38.8L57.1,38.8
			c0,0,0,3.1-2.1,5.3c-1.6,1.6-4.1,2.5-7.3,2.5c-5.5,0-9.9-1.5-12.7-2.7c-2.6-1.2-4.2-2.4-4.7-2.7l-0.1-0.1V41v-6.3
			c0-0.1,0.1-0.2,0.2-0.3l5.6-2.9c0.1,0,0.2,0,0.3,0l5.6,2.9c0.1,0.1,0.2,0.2,0.2,0.3V41c0,0.1,0,0.2-0.1,0.2
			c-0.3,0.2-1.3,0.9-2.8,1.8c1.3,0.4,2.7,0.7,4.2,0.9c0.3-0.2,0.5-0.4,0.5-0.4l0,0c0.5-0.4,1.1-1.3,1.1-2.5v-6.3
			c0-1.2-0.7-2.4-1.8-2.9l-5.6-2.9c-0.9-0.5-2.1-0.5-3,0L29,31.8c-1.1,0.6-1.8,1.7-1.8,2.9V41c0,1.1,0.6,2,1.1,2.5l0,0
			c0.1,0.1,1.3,1.1,3.6,2.3c-2.4,0.6-4.8,0.9-7.3,0.9c-3.2,0-5.7-0.8-7.3-2.5c-2.2-2.2-2.1-5.3-2.1-5.3l0,0l0,0l0,0c0-4.4,3.6-8,8-8
			h1.2l0.2-1.2c0.5-2.6,1.9-5,4-6.7s4.8-2.7,7.5-2.7s5.4,1,7.5,2.7s3.5,4.1,4,6.7l0.2,1.2H49C53.5,30.8,57.1,34.4,57.1,38.8
			L57.1,38.8L57.1,38.8z"/>
		<path class="st5" d="M60.1,37.1c0-5.7-4.3-10.3-9.8-10.9c-0.8-2.8-2.5-5.4-4.8-7.3c-2.6-2.2-6-3.4-9.4-3.4s-6.8,1.2-9.4,3.4
			c-2.3,1.9-4,4.5-4.8,7.3c-5.5,0.6-9.8,5.3-9.8,10.9l0,0c0,0.5,0.1,4.4,3,7.4c2.2,2.3,5.4,3.4,9.5,3.4c3.9,0,7.8-0.7,11.5-2
			c1.2,0.4,2.4,0.8,3.6,1.1c2.6,0.6,5.3,1,8,1c4.1,0,7.3-1.2,9.5-3.4C60,41.5,60.1,37.7,60.1,37.1L60.1,37.1z M57.1,37.1L57.1,37.1
			c0,0,0,3.1-2.1,5.3c-1.6,1.6-4.1,2.5-7.3,2.5c-5.5,0-9.9-1.5-12.7-2.7c-2.6-1.2-4.2-2.4-4.7-2.7l-0.1-0.1v-0.1V33
			c0-0.1,0.1-0.2,0.2-0.3l5.6-2.9c0.1,0,0.2,0,0.3,0l5.6,2.9c0.1,0.1,0.2,0.2,0.2,0.3v6.3c0,0.1,0,0.2-0.1,0.2
			c-0.3,0.2-1.3,0.9-2.8,1.8c1.3,0.4,2.7,0.7,4.2,0.9c0.3-0.2,0.5-0.4,0.5-0.4l0,0c0.5-0.4,1.1-1.3,1.1-2.5V33
			c0-1.2-0.7-2.4-1.8-2.9l-5.6-2.9c-0.9-0.5-2.1-0.5-3,0L28.9,30c-1.1,0.6-1.8,1.7-1.8,2.9v6.3c0,1.1,0.6,2,1.1,2.5l0,0
			c0.1,0.1,1.3,1.1,3.6,2.3c-2.4,0.6-4.8,0.9-7.3,0.9c-3.2,0-5.7-0.8-7.3-2.5c-2.2-2.2-2.1-5.3-2.1-5.3l0,0l0,0l0,0c0-4.4,3.6-8,8-8
			h1.2l0.2-1.2c0.5-2.6,1.9-5,4-6.7s4.8-2.7,7.5-2.7s5.4,1,7.5,2.7s3.5,4.1,4,6.7l0.2,1.2h1.2C53.5,29.1,57.1,32.7,57.1,37.1
			L57.1,37.1L57.1,37.1z"/>
	</g>
</g>
<polygon class="st4" points="13.4,52 12.7,52 12.7,51.6 14.7,51.6 14.7,52 14,52 14,53.9 13.4,53.9 "/>
<polygon class="st4" points="14.9,51.6 15.7,51.6 16.2,53.2 16.2,53.2 16.7,51.6 17.5,51.6 17.5,53.9 17,53.9 17,52.3 17,52.3 
	16.4,53.9 16,53.9 15.4,52.3 15.4,52.3 15.4,53.9 14.9,53.9 "/>
<polygon class="st5" points="13.4,50.9 12.7,50.9 12.7,50.5 14.7,50.5 14.7,50.9 14,50.9 14,52.8 13.4,52.8 "/>
<polygon class="st5" points="14.9,50.5 15.7,50.5 16.2,52.1 16.2,52.1 16.7,50.5 17.5,50.5 17.5,52.8 17,52.8 17,51.2 17,51.2 
	16.4,52.8 16,52.8 15.4,51.2 15.4,51.2 15.4,52.8 14.9,52.8 "/>
</svg>
