<svg id="Layer_1" data-name="Layer 1" xmlns="http://www.w3.org/2000/svg" xmlns:xlink="http://www.w3.org/1999/xlink" viewBox="0 0 70 70">
  <defs>
    <mask id="mask" x="0" y="0" width="70" height="70" maskUnits="userSpaceOnUse">
      <g id="b">
        <path id="a" d="M4,0H65c4,0,5,1,5,5V65c0,4-1,5-5,5H4c-3,0-4-1-4-5V5C0,1,1,0,4,0Z" fill="#fff" fill-rule="evenodd"/>
      </g>
    </mask>
    <linearGradient id="linear-gradient" x1="-1527.21" y1="477.94" x2="-1528.21" y2="476.94" gradientTransform="matrix(70, 0, 0, -70, 106974.99, 33455.73)" gradientUnits="userSpaceOnUse">
      <stop offset="0" stop-color="#7cc098"/>
      <stop offset="1" stop-color="#5f8a71"/>
    </linearGradient>
  </defs>
  <g mask="url(#mask)">
    <g>
      <path d="M0,0H70V70H0Z" fill-rule="evenodd" fill="url(#linear-gradient)"/>
      <path d="M4,1H65c2.67,0,4.33.67,5,2V0H0V3C.67,1.67,2,1,4,1Z" fill="#fff" fill-opacity="0.38" fill-rule="evenodd"/>
      <path d="M40,69H4a3.66,3.66,0,0,1-4-4V37.34l8.21-8.21,7.62-1.59,2.75,2.53,2.6-2.6,1.95,1.47,6.4-1.31,1.54,3.27,3.06-3,8.43,1.82-2.11,2.14,1.11.31,4.24-4.27,3.44,2.63,2.59-2.57,2.89.65,5.86-1.85.12,11.53-3.15,3.15,2.69.2.2-.2,1.42,1.22,1.23-1.22h1.07v3.47Z" fill="#393939" fill-rule="evenodd" opacity="0.32" style="isolation: isolate"/>
      <path d="M4,69H65c2.67,0,4.33-1,5-3v4H0V66A3.92,3.92,0,0,0,4,69Z" fill-opacity="0.38" fill-rule="evenodd"/>
      <g>
        <g opacity="0.4">
          <path d="M57,28.39h.63l.19,0,.39.11a2.64,2.64,0,0,1,.38.18,2.69,2.69,0,0,1,.41.33,3.83,3.83,0,0,1,.39.51,3.69,3.69,0,0,1,.26.53,3.4,3.4,0,0,1,.18.66,3.86,3.86,0,0,1,.09.68,1.08,1.08,0,0,0,0,.28h0l0,0v.15c0,.07,0,1.52,0,3.23v3.12h0a.37.37,0,0,0,0,.17,1.59,1.59,0,0,1-.06.36,3.39,3.39,0,0,1-.19.48,2.77,2.77,0,0,1-.44.58,3.11,3.11,0,0,1-.52.43l-.4.19a4.31,4.31,0,0,1-.59.12c-.21,0-1.35,0-2.53,0H53v3.9l-1.69.56-1.68.55V37.23c0-4.62,0-8.41,0-8.43s.75,0,1.68,0l1.7,0v.39c0,.29,0,.38,0,.37s.36-.12.74-.24l1.34-.43,1-.29.57-.12.28,0M53,35.05v-3l1.19-.4a6.28,6.28,0,0,1,1.47-.4.65.65,0,0,1,.68.37l.1.2v6.23H53v-3" fill-rule="evenodd"/>
          <path d="M6,38.36V31H6l0-.08c0-.05,0-.18.06-.3a2.39,2.39,0,0,1,.2-.56,2.21,2.21,0,0,1,.42-.58,2.88,2.88,0,0,1,.45-.39,3.2,3.2,0,0,1,.49-.24L8,28.77h3.3c3.13,0,3.31,0,3.55.08l.4.18a2.71,2.71,0,0,1,.38.25,3.18,3.18,0,0,1,.41.41,2.89,2.89,0,0,1,.27.43,2.8,2.8,0,0,1,.18.45c.08.25.09.5.09,4.13v3.86l-.11.32a2.55,2.55,0,0,1-.27.58,3.63,3.63,0,0,1-.46.53,2.24,2.24,0,0,1-.49.36,3.81,3.81,0,0,1-.45.19c-.23.08-.43.09-3.48.09s-3.25,0-3.48-.09a3.74,3.74,0,0,1-.51-.22,2.54,2.54,0,0,1-.53-.4,2.83,2.83,0,0,1-.42-.54,4.83,4.83,0,0,1-.22-.5c0-.13-.08-.3-.1-.38l0-.14M9.5,34.68V31.31h3.64v6.74H9.5V34.68" fill-rule="evenodd"/>
          <path d="M33.18,40.61a2,2,0,0,1-1.75-1.72,8.94,8.94,0,0,1-.05-1.09V37h1.71l1.72,0v.5l0,.51h3v-.63a4.48,4.48,0,0,0,0-.7c0-.11-.25-.2-.94-.39l-1-.28c-2-.57-2.49-.73-2.83-.84A2.64,2.64,0,0,1,31.52,34l-.12-.25,0-1.42c0-1.56,0-1.68.28-2.22A3,3,0,0,1,32.74,29c.58-.26.51-.26,3.35-.27,1.66,0,2.76,0,3,0a2.33,2.33,0,0,1,2,1.43,3,3,0,0,1,.12,1.12v.86H37.89v-.95h-3.1v1.18l.13.12a2.38,2.38,0,0,0,.82.33c1.85.55,3.42,1,3.72,1.17a3.31,3.31,0,0,1,1.19.77c.62.61.72,1,.69,2.77A4,4,0,0,1,41,39.52a1.91,1.91,0,0,1-.81.85c-.47.23-.46.23-3.73.26-1.7,0-3.18,0-3.3,0" fill-rule="evenodd"/>
          <path d="M43.6,34.7v-6h3.63v11.9H43.6V34.7" fill-rule="evenodd"/>
          <path d="M18.8,34.65V28.7h3.41v.47a3.1,3.1,0,0,0,0,.48l.27-.09,1.22-.39,1.14-.36a4.36,4.36,0,0,1,1.53-.26,2.21,2.21,0,0,1,1.28.27,3,3,0,0,1,1.27,1.88l.12.45v4.73l0,4.73H25.67v-4.4c0-4.29,0-4.39-.1-4.57a.66.66,0,0,0-.67-.38,5.07,5.07,0,0,0-1.4.38l-1.2.41c-.07,0-.08.27-.08,4.29v4.27H18.8v-6" fill-rule="evenodd"/>
          <polygon points="56.47 44.03 55.43 44.03 55.43 43.39 58.26 43.39 58.26 44.03 57.23 44.03 57.23 46.87 56.47 46.87 56.47 44.03 56.47 44.03"/>
          <polygon points="58.43 43.39 59.5 43.39 60.31 45.78 60.32 45.78 61.08 43.39 62.15 43.39 62.15 46.87 61.44 46.87 61.44 44.4 61.43 44.4 60.59 46.87 60 46.87 59.15 44.43 59.14 44.43 59.14 46.87 58.43 46.87 58.43 43.39"/>
        </g>
        <g>
          <path d="M59,26.38h.63l.19,0,.39.11c.11,0,.28.13.38.18a2.7,2.7,0,0,1,.41.34,3.92,3.92,0,0,1,.39.5,5.11,5.11,0,0,1,.26.53c0,.14.13.44.18.66a3.75,3.75,0,0,1,.08.68.9.9,0,0,0,0,.29h0l0,0a.35.35,0,0,0,0,.15c0,.06,0,1.52,0,3.23v3.11h0a.41.41,0,0,0,0,.17,1.77,1.77,0,0,1-.06.37c0,.11-.12.32-.19.47a2.37,2.37,0,0,1-.45.59,3.54,3.54,0,0,1-.51.42l-.41.19a4,4,0,0,1-.58.13c-.21,0-1.35,0-2.53,0H55v3.9l-1.69.56-1.68.56v-8.4c0-4.61,0-8.41,0-8.42a16.49,16.49,0,0,1,1.69-.05H55v.38c0,.29,0,.38.05.37l.73-.23,1.35-.43c.37-.12.8-.26,1-.3s.42-.09.58-.11l.28,0M55,33l0-3,1.19-.4a5.21,5.21,0,0,1,1.47-.4.61.61,0,0,1,.67.36l.1.2V36H55V33" fill="#fff" fill-rule="evenodd"/>
          <path d="M8.05,36.35V29h0l0-.08a1.68,1.68,0,0,0,.07-.3,2.5,2.5,0,0,1,.2-.55,2.44,2.44,0,0,1,.42-.59,3.53,3.53,0,0,1,.45-.39c.1-.06.33-.17.49-.24l.3-.12h3.3c3.13,0,3.31,0,3.55.09a2.31,2.31,0,0,1,.41.17c.08.05.25.16.38.26a2.65,2.65,0,0,1,.41.41,3.2,3.2,0,0,1,.27.42,4.2,4.2,0,0,1,.18.45,26.25,26.25,0,0,1,.08,4.13v3.87l-.1.31a3.1,3.1,0,0,1-.27.58,3.17,3.17,0,0,1-.46.53,2.24,2.24,0,0,1-.49.36l-.45.2a19.09,19.09,0,0,1-3.48.08,19.17,19.17,0,0,1-3.49-.08,5.44,5.44,0,0,1-.5-.22,3,3,0,0,1-.53-.41,2.83,2.83,0,0,1-.42-.54,3.06,3.06,0,0,1-.23-.5,2.44,2.44,0,0,1-.09-.37l0-.15m3.46-3.68V29.3h3.63V36H11.51V32.67" fill="#fff" fill-rule="evenodd"/>
          <path d="M35.19,38.6a2,2,0,0,1-1.76-1.71c0-.17,0-.66,0-1.09V35l1.72,0h1.72v1H39.9v-.63a6.61,6.61,0,0,0,0-.7c0-.11-.25-.19-.94-.39l-1-.28c-1.95-.57-2.48-.72-2.83-.84A2.59,2.59,0,0,1,33.53,32l-.12-.25,0-1.42c0-1.56,0-1.68.27-2.22A3.16,3.16,0,0,1,34.75,27c.57-.26.5-.25,3.35-.27,1.66,0,2.75,0,3,0a2.37,2.37,0,0,1,2,1.43,2.89,2.89,0,0,1,.11,1.12l0,.87H39.9v-.94H36.8v1.17l.13.12a2.39,2.39,0,0,0,.81.33c1.86.56,3.42,1.05,3.73,1.17a3.6,3.6,0,0,1,1.19.77c.62.61.72,1,.68,2.77A4,4,0,0,1,43,37.52a2,2,0,0,1-.81.85c-.48.23-.46.23-3.74.25-1.7,0-3.17,0-3.29,0" fill="#fff" fill-rule="evenodd"/>
          <path d="M45.6,32.69V26.74h3.64V38.65H45.6v-6" fill="#fff" fill-rule="evenodd"/>
          <path d="M20.8,32.65V26.7h3.42v.47a4.05,4.05,0,0,0,0,.47l.28-.09,1.21-.38,1.15-.37a4.36,4.36,0,0,1,1.53-.26,2.33,2.33,0,0,1,1.28.28,2.92,2.92,0,0,1,1.26,1.88l.12.44,0,4.73V38.6H27.68l0-4.39c0-4.29,0-4.4-.09-4.57a.67.67,0,0,0-.68-.38,4.93,4.93,0,0,0-1.4.37L24.3,30c-.08,0-.08.28-.08,4.3V38.6H20.8v-6" fill="#fff" fill-rule="evenodd"/>
          <polygon points="58.47 42.03 57.44 42.03 57.44 41.39 60.27 41.39 60.27 42.03 59.23 42.03 59.23 44.86 58.47 44.86 58.47 42.03 58.47 42.03" fill="#fff"/>
          <polygon points="60.44 41.39 61.51 41.39 62.31 43.77 62.32 43.77 63.09 41.39 64.16 41.39 64.16 44.86 63.45 44.86 63.45 42.4 63.44 42.4 62.59 44.86 62 44.86 61.16 42.42 61.15 42.42 61.15 44.86 60.44 44.86 60.44 41.39" fill="#fff"/>
        </g>
      </g>
    </g>
  </g>
</svg>
