<svg id="Layer_1" data-name="Layer 1" xmlns="http://www.w3.org/2000/svg" xmlns:xlink="http://www.w3.org/1999/xlink" viewBox="0 0 70 70">
  <defs>
    <mask id="mask" x="0" y="0" width="70" height="70" maskUnits="userSpaceOnUse">
      <g id="b">
        <path id="a" d="M4,0H65c4,0,5,1,5,5V65c0,4-1,5-5,5H4c-3,0-4-1-4-5V5C0,1,1,0,4,0Z" fill="#fff" fill-rule="evenodd"/>
      </g>
    </mask>
    <linearGradient id="linear-gradient" x1="-998.51" y1="-4.39" x2="-999.51" y2="-5.39" gradientTransform="matrix(70, 0, 0, -70, 69966, -307.17)" gradientUnits="userSpaceOnUse">
      <stop offset="0" stop-color="#7cc098"/>
      <stop offset="1" stop-color="#5f8a71"/>
    </linearGradient>
  </defs>
  <g mask="url(#mask)">
    <g>
      <path d="M0,0H70V70H0Z" fill-rule="evenodd" fill="url(#linear-gradient)"/>
      <path d="M4,1H65q4,0,5,2V0H0V3C.67,1.67,2,1,4,1Z" fill="#fff" fill-opacity="0.38" fill-rule="evenodd"/>
      <path d="M36.46,69H4c-2,0-4-.15-4-4.08V34.52L17.76,16.76l5.16-1.83H41L51.09,27l.37,25.83-1.75,2.84Z" fill="#393939" fill-rule="evenodd" opacity="0.32" style="isolation: isolate"/>
      <path d="M4,69H65q4,0,5-3v4H0V66A3.92,3.92,0,0,0,4,69Z" fill-opacity="0.38" fill-rule="evenodd"/>
      <g>
        <g opacity="0.4">
          <path d="M50.84,52.71V29.31a1.26,1.26,0,0,0-.32-.83l-.37-.42-8.87-10L39.42,16a1.21,1.21,0,0,0-.93-.42H20.85a5.7,5.7,0,0,0-5.69,5.69V52.71a5.7,5.7,0,0,0,5.69,5.69h24.3A5.7,5.7,0,0,0,50.84,52.71Zm-4-24.65H38.52v-9.3Zm1.54,2.5V52.71a3.2,3.2,0,0,1-3.19,3.19H20.85a3.19,3.19,0,0,1-3.19-3.19V21.29a3.19,3.19,0,0,1,3.19-3.19H36V29.31a1.25,1.25,0,0,0,1.25,1.25Z"/>
          <g>
            <path d="M30.5,46.43a9.11,9.11,0,0,0,.83.5,3.36,3.36,0,0,1,.6.38.55.55,0,0,1,0,.79.54.54,0,0,1-.41.18,1.16,1.16,0,0,1-.49-.13,5.35,5.35,0,0,1-.67-.37l-.84-.57a4.64,4.64,0,0,1-2.08.43,4.85,4.85,0,0,1-1.8-.32,3.49,3.49,0,0,1-1.33-.92A4,4,0,0,1,23.47,45a5.76,5.76,0,0,1-.28-1.8,5.5,5.5,0,0,1,.29-1.81A3.94,3.94,0,0,1,24.3,40a3.63,3.63,0,0,1,1.31-.89,4.89,4.89,0,0,1,1.76-.3,4.63,4.63,0,0,1,2.3.54,3.54,3.54,0,0,1,1.45,1.54,5.39,5.39,0,0,1,.49,2.35A4.58,4.58,0,0,1,30.5,46.43Zm-1.36-1a2.63,2.63,0,0,0,.53-1,4.41,4.41,0,0,0,.17-1.32,4.09,4.09,0,0,0-.3-1.63,2.27,2.27,0,0,0-.87-1,2.46,2.46,0,0,0-1.3-.35,2.17,2.17,0,0,0-1,.2,2,2,0,0,0-.76.57,2.77,2.77,0,0,0-.51,1A4.46,4.46,0,0,0,25,43.17a3.42,3.42,0,0,0,.69,2.29,2.22,2.22,0,0,0,1.75.8,2.3,2.3,0,0,0,.89-.19,6.63,6.63,0,0,0-.69-.41,4,4,0,0,1-.57-.31.38.38,0,0,1-.15-.32.4.4,0,0,1,.15-.31.44.44,0,0,1,.32-.13A4,4,0,0,1,29.14,45.48Z"/>
            <path d="M33.17,46.58V39.81a1.15,1.15,0,0,1,.24-.79.77.77,0,0,1,.62-.26.79.79,0,0,1,.63.26,1.09,1.09,0,0,1,.25.79v6.77a1.13,1.13,0,0,1-.25.8.83.83,0,0,1-.63.26.8.8,0,0,1-.62-.27A1.15,1.15,0,0,1,33.17,46.58Z"/>
            <path d="M42,40.24H38.56v2.2h2.86a.86.86,0,0,1,.6.18.62.62,0,0,1,.19.48.56.56,0,0,1-.2.47.85.85,0,0,1-.59.18H38.56v2.83a1.11,1.11,0,0,1-.25.8.88.88,0,0,1-1.25,0,1.18,1.18,0,0,1-.24-.8V40a1.36,1.36,0,0,1,.11-.61.67.67,0,0,1,.35-.35,1.5,1.5,0,0,1,.6-.11H42a.84.84,0,0,1,.61.19.6.6,0,0,1,.21.48.62.62,0,0,1-.21.49A.89.89,0,0,1,42,40.24Z"/>
          </g>
        </g>
        <g>
          <path d="M52.84,50.71V27.31a1.26,1.26,0,0,0-.32-.83l-.37-.42-8.87-10L41.42,14a1.21,1.21,0,0,0-.93-.42H22.85a5.7,5.7,0,0,0-5.69,5.69V50.71a5.7,5.7,0,0,0,5.69,5.69h24.3A5.7,5.7,0,0,0,52.84,50.71Zm-4-24.65H40.52v-9.3Zm1.54,2.5V50.71a3.2,3.2,0,0,1-3.19,3.19H22.85a3.19,3.19,0,0,1-3.19-3.19V19.29a3.19,3.19,0,0,1,3.19-3.19H38V27.31a1.25,1.25,0,0,0,1.25,1.25Z" fill="#fff"/>
          <g>
            <path d="M32.5,44.43a9.11,9.11,0,0,0,.83.5,3.36,3.36,0,0,1,.6.38.55.55,0,0,1,0,.79.54.54,0,0,1-.41.18,1.16,1.16,0,0,1-.49-.13,5.35,5.35,0,0,1-.67-.37l-.84-.57a4.64,4.64,0,0,1-2.08.43,4.85,4.85,0,0,1-1.8-.32,3.49,3.49,0,0,1-1.33-.92A4,4,0,0,1,25.47,43a5.76,5.76,0,0,1-.28-1.8,5.5,5.5,0,0,1,.29-1.81A3.94,3.94,0,0,1,26.3,38a3.63,3.63,0,0,1,1.31-.89,4.89,4.89,0,0,1,1.76-.3,4.63,4.63,0,0,1,2.3.54,3.54,3.54,0,0,1,1.45,1.54,5.39,5.39,0,0,1,.49,2.35A4.58,4.58,0,0,1,32.5,44.43Zm-1.36-1a2.63,2.63,0,0,0,.53-1,4.41,4.41,0,0,0,.17-1.32,4.09,4.09,0,0,0-.3-1.63,2.27,2.27,0,0,0-.87-1,2.46,2.46,0,0,0-1.3-.35,2.17,2.17,0,0,0-1,.2,2,2,0,0,0-.76.57,2.77,2.77,0,0,0-.51,1A4.46,4.46,0,0,0,27,41.17a3.42,3.42,0,0,0,.69,2.29,2.22,2.22,0,0,0,1.75.8,2.3,2.3,0,0,0,.89-.19,6.63,6.63,0,0,0-.69-.41,4,4,0,0,1-.57-.31.38.38,0,0,1-.15-.32.4.4,0,0,1,.15-.31.44.44,0,0,1,.32-.13A4,4,0,0,1,31.14,43.48Z" fill="#fff"/>
            <path d="M35.17,44.58V37.81a1.15,1.15,0,0,1,.24-.79.77.77,0,0,1,.62-.26.79.79,0,0,1,.63.26,1.09,1.09,0,0,1,.25.79v6.77a1.13,1.13,0,0,1-.25.8.83.83,0,0,1-.63.26.8.8,0,0,1-.62-.27A1.15,1.15,0,0,1,35.17,44.58Z" fill="#fff"/>
            <path d="M44,38.24H40.56v2.2h2.86a.86.86,0,0,1,.6.18.62.62,0,0,1,.19.48.56.56,0,0,1-.2.47.85.85,0,0,1-.59.18H40.56v2.83a1.11,1.11,0,0,1-.25.8.88.88,0,0,1-1.25,0,1.18,1.18,0,0,1-.24-.8V38a1.36,1.36,0,0,1,.11-.61.67.67,0,0,1,.35-.35,1.5,1.5,0,0,1,.6-.11H44a.84.84,0,0,1,.61.19.6.6,0,0,1,.21.48.62.62,0,0,1-.21.49A.89.89,0,0,1,44,38.24Z" fill="#fff"/>
          </g>
        </g>
      </g>
    </g>
  </g>
</svg>
