<svg id="Layer_1" data-name="Layer 1" xmlns="http://www.w3.org/2000/svg" xmlns:xlink="http://www.w3.org/1999/xlink" viewBox="0 0 70 70">
  <defs>
    <mask id="mask" x="-0.05" y="0" width="70.05" height="70" maskUnits="userSpaceOnUse">
      <g id="b">
        <path id="a" d="M4,0H65c4,0,5,1,5,5V65c0,4-1,5-5,5H4c-3,0-4-1-4-5V5C0,1,1,0,4,0Z" fill="#fff" fill-rule="evenodd"/>
      </g>
    </mask>
    <linearGradient id="linear-gradient" x1="-1172.36" y1="568.8" x2="-1173.36" y2="567.8" gradientTransform="matrix(70, 0, 0, -70, 82134.99, 39816)" gradientUnits="userSpaceOnUse">
      <stop offset="0" stop-color="#94b6c8"/>
      <stop offset="1" stop-color="#6a9eba"/>
    </linearGradient>
  </defs>
  <g mask="url(#mask)">
    <g>
      <path d="M0,0H70V70H0Z" fill-rule="evenodd" fill="url(#linear-gradient)"/>
      <path d="M4,1H65q4,0,5,2V0H0V3Q1,1,4,1Z" fill="#fff" fill-opacity="0.38" fill-rule="evenodd"/>
      <path d="M4,69H65q4,0,5-3v4H0V66A3.92,3.92,0,0,0,4,69Z" fill-opacity="0.38" fill-rule="evenodd"/>
      <path d="M34.67,69H4a3.66,3.66,0,0,1-4-4V37.68L12.29,25.4l16.25-15v3.23l-2.91,2.91.92,1,5.9-5.9,16.37,9,2.86-2.85L57.53,24l-1.9,1.92L62.13,32,52,42.11l.52.46L57.07,38c1.88,1.73-1.21,7.31-4.4,13Z" fill="#393939" fill-rule="evenodd" opacity="0.32" style="isolation: isolate"/>
      <g>
        <g opacity="0.4">
          <path d="M52.59,46.63,46.44,41c.11-.27.19-.55.28-.83H43.86a11,11,0,0,1-10.42,7.47,11,11,0,0,1-11-11,10.58,10.58,0,0,1,3.23-7.77,9.33,9.33,0,0,1,.81-.74V21.69l-4-4.2a22.54,22.54,0,0,1,4-1.73V12.53a22.43,22.43,0,0,0-3.05,1.05,24.37,24.37,0,0,0-7.82,5.22,24.67,24.67,0,0,0-5.23,7.82,24.3,24.3,0,0,0,0,19,24.67,24.67,0,0,0,5.23,7.82,24.37,24.37,0,0,0,7.82,5.22,24.3,24.3,0,0,0,19,0,24,24,0,0,0,13-13,23.76,23.76,0,0,0,1.59-5.49H55A21.49,21.49,0,0,1,52.59,46.63ZM20.44,41l-6.15,5.64a20.77,20.77,0,0,1,0-21l6.15,5.65a13.83,13.83,0,0,0,0,9.71Zm13,16.64a22.61,22.61,0,0,1-11-2.85l5.91-6.15a15,15,0,0,0,10.18,0l5.91,6.15A22.58,22.58,0,0,1,33.44,57.63Z" fill-rule="evenodd"/>
          <path d="M43.63,29.26H31.23A1.31,1.31,0,0,1,29.92,28V14.81a1.31,1.31,0,0,1,1.31-1.31H48.31a1.31,1.31,0,0,1,1.31,1.31V18a4.91,4.91,0,0,0-1.34,7.67H48c-1.34,0-.82-.15-2-1.35A7.78,7.78,0,0,0,42,28,7.26,7.26,0,0,1,43.63,29.26Zm6-.57a8.29,8.29,0,0,1,6.86,0q1.53,1,3.6,5.45c-1,1.17-1.71,1.66-2.06,1.49a22.74,22.74,0,0,1-1.54-2.48v3.47a13.34,13.34,0,0,1-7.2,0V33.15a37,37,0,0,0-5.57-4.55c0-.37,0-.65.66-1.31a7.2,7.2,0,0,1,2-1.31Q48.08,29.69,49.62,28.69Zm3.11.57-.74,3,1.11,1.5,1.12-1.5-.74-3Zm-16.9,4.6,3.94-4.6,3.94,4.6H42.4l-2.63-3.29-2.63,3.29Zm16.75-6.57A4.27,4.27,0,1,1,56.84,23,4.27,4.27,0,0,1,52.58,27.29Z" fill-rule="evenodd"/>
        </g>
        <g>
          <path d="M54.6,44.62,48.45,39a8.09,8.09,0,0,0,.28-.83H45.87a11,11,0,0,1-10.42,7.47,11,11,0,0,1-11-11,10.58,10.58,0,0,1,3.23-7.77,9.44,9.44,0,0,1,.82-.74V19.68l-4.05-4.21a23.83,23.83,0,0,1,4.05-1.73V10.52a23.45,23.45,0,0,0-3.06,1,24.67,24.67,0,0,0-7.82,5.23,24.37,24.37,0,0,0-5.22,7.82,23.8,23.8,0,0,0-2,9.51,24.17,24.17,0,0,0,2,9.52,24,24,0,0,0,13,13,24.3,24.3,0,0,0,19,0,24,24,0,0,0,13-13,23.76,23.76,0,0,0,1.59-5.49H57A21,21,0,0,1,54.6,44.62ZM22.45,39l-6.14,5.64a20.7,20.7,0,0,1,0-21l6.14,5.65a13.83,13.83,0,0,0,0,9.71Zm13,16.64a22.61,22.61,0,0,1-11-2.85l5.92-6.15a15.1,15.1,0,0,0,5.08.89,14.94,14.94,0,0,0,5.09-.89l5.91,6.15A22.58,22.58,0,0,1,35.45,55.62Z" fill="#fff" fill-rule="evenodd"/>
          <path d="M45.64,27.25H33.24a1.32,1.32,0,0,1-1.31-1.32V12.8a1.31,1.31,0,0,1,1.31-1.31H50.32a1.31,1.31,0,0,1,1.31,1.31V16a4.94,4.94,0,0,0-1.34,7.68H50c-1.35,0-.83-.15-2-1.35A7.82,7.82,0,0,0,44,26,7.69,7.69,0,0,1,45.64,27.25Zm6-.57a8.29,8.29,0,0,1,6.86,0q1.55,1,3.6,5.45c-1,1.16-1.71,1.66-2.06,1.49a22.74,22.74,0,0,1-1.54-2.48v3.47a13.34,13.34,0,0,1-7.2,0V31.14a37,37,0,0,0-5.57-4.55c0-.38,0-.66.66-1.31a7.6,7.6,0,0,1,2-1.32Q50.09,27.67,51.63,26.68Zm3.12.57-.75,3,1.12,1.51,1.11-1.51-.74-3ZM37.84,31.84l3.94-4.59,3.94,4.59H44.41l-2.63-3.28-2.63,3.28Zm16.75-6.56A4.27,4.27,0,1,1,58.86,21,4.27,4.27,0,0,1,54.59,25.28Z" fill="#fff" fill-rule="evenodd"/>
        </g>
      </g>
    </g>
  </g>
</svg>
