<?xml version="1.0" encoding="UTF-8"?><svg id="a" xmlns="http://www.w3.org/2000/svg" xmlns:xlink="http://www.w3.org/1999/xlink" viewBox="0 0 70 70"><defs><linearGradient id="b" x1="68.96161" y1=".96908" x2=".89905" y2="69.03165" gradientUnits="userSpaceOnUse"><stop offset="0" stop-color="#269396"/><stop offset="1" stop-color="#218689"/></linearGradient></defs><g><path d="M69.81525,2.70838C69.38165,.60145,68.08484,0,65,0H4C1.68396,0,.56317,.60285,.17102,2.71515c-.11578,.62378-.17102,1.37292-.17102,2.28485v60c0,.39148,.01276,.74615,.03284,1.08203,.18524,3.09613,1.2608,3.91797,3.96716,3.91797h61c3.60913,0,4.77246-.82227,4.96606-3.91962,.02094-.33545,.03394-.68951,.03394-1.08038V5c0-.91516-.05609-1.66656-.18475-2.29163Z" style="fill:url(#b); fill-rule:evenodd;"/><path d="M69.96606,66.08038c-.68561,1.9433-2.33716,2.91962-4.96606,2.91962H4c-1.97083,0-3.29077-.97589-3.96716-2.91797,.18524,3.09613,1.2608,3.91797,3.96716,3.91797h61c3.60913,0,4.77246-.82227,4.96606-3.91962Z" style="fill:#050505; fill-rule:evenodd; opacity:.3;"/><path d="M.17102,2.71515c.7099-1.13812,1.98096-1.71515,3.82898-1.71515h61c2.45953,0,4.05676,.57465,4.81525,1.70837-.43359-2.10693-1.73041-2.70837-4.81525-2.70837H4C1.68396,0,.56317,.60284,.17102,2.71515Z" style="fill:rgba(255,255,255,.383); fill-rule:evenodd;"/></g><path d="M24.98352,69H4c-2,0-4-1-4-4v-17.66769L27.70444,19.79748l19.67438,.69767-1.27907,9.34882,4.16278-4.11627,1.04651,1.46511-6.51161,22.186-19.81391,19.62119Z" style="fill:#393939; fill-rule:evenodd; isolation:isolate; opacity:.324;"/><g><path d="M51.65411,28.47025c.54119,.7712,.66296,1.64388,.36531,2.61803l-5.58108,18.38712c-.25707,.86591-.77459,1.59314-1.55255,2.18169s-1.60667,.88283-2.48612,.88283H23.66754c-1.0418,0-2.0464-.36193-3.01378-1.08577-.96739-.72385-1.6405-1.61344-2.01934-2.66877-.32472-.9065-.33825-1.76565-.04059-2.57744,0-.05412,.02029-.23677,.06088-.54796s.06765-.56149,.08118-.75091c.01353-.10824-.00676-.25369-.06088-.43634s-.07441-.31457-.06088-.39575c.02706-.14883,.08118-.29089,.16236-.42619s.1928-.29428,.33486-.47693,.25369-.34163,.33486-.47693c.31119-.51414,.61561-1.13313,.91327-1.85698,.29766-.72385,.50061-1.34284,.60884-1.85698,.04059-.1353,.04397-.33825,.01015-.60884s-.03721-.46002-.01015-.56826c.04059-.14883,.15559-.33825,.34501-.56826s.30442-.3856,.34501-.46678c.28413-.48708,.56826-1.10945,.85238-1.86712s.45325-1.36652,.50737-1.82653c.01353-.12177-.00338-.33825-.05074-.64943-.04735-.31119-.04397-.50061,.01015-.56826,.05412-.17589,.20295-.38222,.44649-.61899s.39237-.38898,.44649-.45663c.25707-.35178,.54458-.92341,.86253-1.71491s.50399-1.44432,.55811-1.95845c.01353-.10824-.00677-.28075-.06088-.51752-.05412-.23677-.06765-.41604-.04059-.53781,.02706-.10824,.08794-.23001,.18265-.36531s.21648-.29089,.36531-.46678,.26383-.31795,.34501-.42619c.10824-.16236,.21986-.36869,.33486-.61899,.115-.2503,.21648-.48708,.30442-.71032s.19618-.46678,.32472-.73061,.26045-.48031,.39575-.64943c.1353-.16912,.31457-.3281,.53781-.47693,.22324-.14883,.46678-.22663,.73061-.23339,.26383-.00676,.58517,.03044,.964,.11162l-.02029,.06088c.51414-.12177,.85915-.18265,1.03504-.18265h15.44437c1.00121,0,1.77242,.37884,2.31361,1.13651,.54119,.75767,.66296,1.63712,.36531,2.63833l-5.56078,18.38712c-.48708,1.61006-.97077,2.64848-1.45108,3.11526s-1.34961,.70017-2.60789,.70017H21.55687c-.36531,0-.62237,.10147-.7712,.30442-.14883,.21648-.15559,.50737-.02029,.87268,.32472,.94709,1.29887,1.42064,2.92246,1.42064h18.73213c.39237,0,.7712-.10486,1.13651-.31457s.60208-.49046,.71032-.84224l6.08845-20.031c.09471-.29766,.12853-.68326,.10147-1.15681,.51414,.20295,.91327,.49384,1.1974,.87268Zm-21.5937,.04059c-.05412,.17589-.04059,.3281,.04059,.45663s.21648,.1928,.4059,.1928h12.33926c.17589,0,.34839-.06427,.51752-.1928s.28075-.28075,.33486-.45663l.42619-1.29887c.05412-.17589,.04059-.3281-.04059-.45663s-.21648-.1928-.4059-.1928h-12.33926c-.17589,0-.3484,.06427-.51752,.1928s-.28074,.28075-.33486,.45663l-.42619,1.29887Zm-1.68447,5.19548c-.05412,.17589-.04059,.3281,.04059,.45663s.21648,.1928,.4059,.1928h12.33926c.17589,0,.34839-.06427,.51752-.1928s.28075-.28074,.33486-.45663l.42619-1.29887c.05412-.17589,.04059-.3281-.04059-.45663s-.21648-.1928-.4059-.1928h-12.33926c-.17589,0-.3484,.06427-.51752,.1928s-.28074,.28074-.33486,.45663l-.42619,1.29887Z" style="opacity:.4;"/><path d="M51.37504,26.51676c.54119,.7712,.66296,1.64388,.36531,2.61803l-5.58108,18.38712c-.25707,.86591-.77459,1.59314-1.55255,2.18169s-1.60667,.88283-2.48612,.88283H23.38847c-1.0418,0-2.0464-.36193-3.01378-1.08577-.96739-.72385-1.6405-1.61344-2.01934-2.66877-.32472-.9065-.33825-1.76565-.04059-2.57744,0-.05412,.02029-.23677,.06088-.54796s.06765-.56149,.08118-.75091c.01353-.10824-.00676-.25369-.06088-.43634s-.07441-.31457-.06088-.39575c.02706-.14883,.08118-.29089,.16236-.42619s.1928-.29428,.33486-.47693,.25369-.34163,.33486-.47693c.31119-.51414,.61561-1.13313,.91327-1.85698,.29766-.72385,.50061-1.34284,.60884-1.85698,.04059-.1353,.04397-.33825,.01015-.60884s-.03721-.46002-.01015-.56826c.04059-.14883,.15559-.33825,.34501-.56826s.30442-.3856,.34501-.46678c.28413-.48708,.56826-1.10945,.85238-1.86712s.45325-1.36652,.50737-1.82653c.01353-.12177-.00338-.33825-.05074-.64943-.04735-.31119-.04397-.50061,.01015-.56826,.05412-.17589,.20295-.38222,.44649-.61899s.39237-.38898,.44649-.45663c.25707-.35178,.54458-.92341,.86253-1.71491s.50399-1.44432,.55811-1.95845c.01353-.10824-.00677-.28075-.06088-.51752-.05412-.23677-.06765-.41604-.04059-.53781,.02706-.10824,.08794-.23001,.18265-.36531s.21648-.29089,.36531-.46678,.26383-.31795,.34501-.42619c.10824-.16236,.21986-.36869,.33486-.61899,.115-.2503,.21648-.48708,.30442-.71032s.19618-.46678,.32472-.73061,.26045-.48031,.39575-.64943c.1353-.16912,.31457-.3281,.53781-.47693,.22324-.14883,.46678-.22663,.73061-.23339,.26383-.00676,.58517,.03044,.964,.11162l-.02029,.06088c.51414-.12177,.85915-.18265,1.03504-.18265h15.44437c1.00121,0,1.77242,.37884,2.31361,1.13651,.54119,.75767,.66296,1.63712,.36531,2.63833l-5.56078,18.38712c-.48708,1.61006-.97077,2.64848-1.45108,3.11526s-1.34961,.70017-2.60789,.70017H21.27781c-.36531,0-.62237,.10147-.7712,.30442-.14883,.21648-.15559,.50737-.02029,.87268,.32472,.94709,1.29887,1.42064,2.92246,1.42064h18.73213c.39237,0,.7712-.10486,1.13651-.31457s.60208-.49046,.71032-.84224l6.08845-20.031c.09471-.29766,.12853-.68326,.10147-1.15681,.51414,.20295,.91327,.49384,1.1974,.87268Zm-21.5937,.04059c-.05412,.17589-.04059,.3281,.04059,.45663s.21648,.1928,.4059,.1928h12.33926c.17589,0,.34839-.06427,.51752-.1928s.28075-.28075,.33486-.45663l.42619-1.29887c.05412-.17589,.04059-.3281-.04059-.45663s-.21648-.1928-.4059-.1928h-12.33926c-.17589,0-.3484,.06427-.51752,.1928s-.28074,.28075-.33486,.45663l-.42619,1.29887Zm-1.68447,5.19548c-.05412,.17589-.04059,.3281,.04059,.45663s.21648,.1928,.4059,.1928h12.33926c.17589,0,.34839-.06427,.51752-.1928s.28075-.28074,.33486-.45663l.42619-1.29887c.05412-.17589,.04059-.3281-.04059-.45663s-.21648-.1928-.4059-.1928h-12.33926c-.17589,0-.3484,.06427-.51752,.1928s-.28074,.28074-.33486,.45663l-.42619,1.29887Z" style="fill:#fff;"/></g></svg>