<svg id="Layer_1" data-name="Layer 1" xmlns="http://www.w3.org/2000/svg" xmlns:xlink="http://www.w3.org/1999/xlink" viewBox="0 0 70 70">
  <defs>
    <mask id="mask" x="0" y="0" width="70" height="70" maskUnits="userSpaceOnUse">
      <g id="b">
        <path id="a" d="M4,0H65c4,0,5,1,5,5V65c0,4-1,5-5,5H4c-3,0-4-1-4-5V5C0,1,1,0,4,0Z" fill="#fff" fill-rule="evenodd"/>
      </g>
    </mask>
    <linearGradient id="linear-gradient" x1="-1083.78" y1="-4.39" x2="-1084.78" y2="-5.39" gradientTransform="matrix(70, 0, 0, -70, 75934.61, -307.17)" gradientUnits="userSpaceOnUse">
      <stop offset="0" stop-color="#d5cc95"/>
      <stop offset="1" stop-color="#c1b66c"/>
    </linearGradient>
  </defs>
  <g mask="url(#mask)">
    <g>
      <path d="M0,0H70V70H0Z" fill-rule="evenodd" fill="url(#linear-gradient)"/>
      <path d="M4,1H65c2.67,0,4.33.67,5,2V0H0V3C.67,1.67,2,1,4,1Z" fill="#fff" fill-opacity="0.38" fill-rule="evenodd"/>
      <path d="M4,69a3.66,3.66,0,0,1-4-4V29.7L12.15,17.55,18.43,17l.91,2.14L17.6,20.85l2.61,2.08,6.05-6.07c3.49-.83,4,.73,5.35,2.7l-3.18,3.17L28.38,24l-1.06,1.07,4,1.8-3.19,3.19,1.43,1.74,8.22-8.21L51,25l-.47,22.84L29.38,69Z" fill="#393939" fill-rule="evenodd" opacity="0.32" style="isolation: isolate"/>
      <path d="M4,69H65c2.67,0,4.33-1,5-3v4H0V66A3.92,3.92,0,0,0,4,69Z" fill-opacity="0.38" fill-rule="evenodd"/>
      <g>
        <g opacity="0.4">
          <path d="M47,24.7H35.27a7,7,0,0,1-.52,2.74h12a.35.35,0,0,1,.34.35V31H32.83a1.67,1.67,0,0,0-.12.16,8.21,8.21,0,0,1-1.22,1.08l1.86,5.26H47v9.71a.34.34,0,0,1-.34.34H17.25A2.73,2.73,0,0,0,20,50.29H47a2.72,2.72,0,0,0,2.71-2.74V27.44A2.73,2.73,0,0,0,47,24.7Z"/>
          <path d="M12,25.75a2.27,2.27,0,0,0,.43,1.18,2.47,2.47,0,0,0,2,.72,4.16,4.16,0,0,0,1.39-.19,1.35,1.35,0,0,0,1-1.34,1,1,0,0,0-.5-.89,5.09,5.09,0,0,0-1.58-.54l-1.23-.28A7.64,7.64,0,0,1,11,23.52,2.8,2.8,0,0,1,9.83,21,3.34,3.34,0,0,1,11,18.43a4.8,4.8,0,0,1,3.32-1,5,5,0,0,1,3.12,1,3.47,3.47,0,0,1,1.36,2.81H16.43a1.65,1.65,0,0,0-.91-1.48,3,3,0,0,0-1.41-.29,2.63,2.63,0,0,0-1.49.37,1.22,1.22,0,0,0-.56,1.06,1,1,0,0,0,.55.92,6.45,6.45,0,0,0,1.51.48l2,.48a5.25,5.25,0,0,1,2,.84,2.84,2.84,0,0,1,1,2.37,3.33,3.33,0,0,1-1.21,2.63,5.08,5.08,0,0,1-3.43,1.05,5.57,5.57,0,0,1-3.56-1,3.45,3.45,0,0,1-1.29-2.84Zm8.28.28.33-1.58H22.5a10.15,10.15,0,0,1,0-1.56H20.23l.33-1.58h2.16A5.63,5.63,0,0,1,23.84,19a3.77,3.77,0,0,1,3-1.43,3.87,3.87,0,0,1,3.59,1.92,4.66,4.66,0,0,1,.68,2.16h-2a3.49,3.49,0,0,0-.51-1.26,1.89,1.89,0,0,0-1.64-.75,2,2,0,0,0-1.75,1.07,3.5,3.5,0,0,0-.3.65H28l-.33,1.58h-3.1q0,.39,0,.78c0,.27,0,.54,0,.78h2.9L27.15,26H24.93a2.73,2.73,0,0,0,.3.56,2,2,0,0,0,1.72,1,1.81,1.81,0,0,0,1.62-.83,3.73,3.73,0,0,0,.52-1.34h2a5.49,5.49,0,0,1-1.35,3.08A3.59,3.59,0,0,1,27,29.64a3.89,3.89,0,0,1-3.3-1.6,5.47,5.47,0,0,1-.92-2Zm-3.34,9.63a1.6,1.6,0,0,0-.47-1.29A2.08,2.08,0,0,0,15.08,34H12.83v3.41h2.25A2,2,0,0,0,16.42,37,1.7,1.7,0,0,0,16.89,35.66Zm2.4,0a3.56,3.56,0,0,1-1,2.9,4.54,4.54,0,0,1-3,.85H12.83v4.16h-2.4V32h5a4.09,4.09,0,0,1,2.78.9A3.48,3.48,0,0,1,19.29,35.64Zm5,3.54H27.2l-1.44-4.56ZM24.42,32h2.73l4.1,11.58H28.63l-.75-2.38H23.61l-.8,2.38H20.28L24.42,32Z" fill-rule="evenodd"/>
        </g>
        <g>
          <path d="M49,22.7H37.26a6.92,6.92,0,0,1-.52,2.75h12a.34.34,0,0,1,.34.34V29H34.83c0,.05-.08.11-.13.16a7.32,7.32,0,0,1-1.22,1.08l1.87,5.26H49v9.71a.34.34,0,0,1-.34.34H19.25A2.73,2.73,0,0,0,22,48.3H49a2.73,2.73,0,0,0,2.71-2.75V25.45A2.73,2.73,0,0,0,49,22.7Z" fill="#fff"/>
          <path d="M13.94,23.75a2.43,2.43,0,0,0,.44,1.19,2.49,2.49,0,0,0,2,.71,4.12,4.12,0,0,0,1.39-.19,1.34,1.34,0,0,0,1-1.34,1,1,0,0,0-.51-.89,5.58,5.58,0,0,0-1.57-.54l-1.23-.28a7.76,7.76,0,0,1-2.5-.88A2.83,2.83,0,0,1,11.82,19,3.34,3.34,0,0,1,13,16.44a4.8,4.8,0,0,1,3.33-1,5,5,0,0,1,3.12,1,3.44,3.44,0,0,1,1.35,2.81H18.43a1.66,1.66,0,0,0-.91-1.48,3.13,3.13,0,0,0-1.41-.29,2.55,2.55,0,0,0-1.49.38,1.2,1.2,0,0,0-.56,1.05,1,1,0,0,0,.55.93,7.15,7.15,0,0,0,1.51.47l2,.48a5.11,5.11,0,0,1,2,.84,2.86,2.86,0,0,1,1,2.37,3.3,3.3,0,0,1-1.21,2.63,5.08,5.08,0,0,1-3.43,1.05,5.55,5.55,0,0,1-3.56-1,3.46,3.46,0,0,1-1.3-2.84Zm8.29.28.33-1.58H24.5a11.6,11.6,0,0,1,0-1.56H22.23l.33-1.58h2.15A5.55,5.55,0,0,1,25.84,17a3.72,3.72,0,0,1,3-1.43,3.87,3.87,0,0,1,3.59,1.91,4.78,4.78,0,0,1,.68,2.16h-2a3.43,3.43,0,0,0-.51-1.25,1.89,1.89,0,0,0-1.64-.76,2,2,0,0,0-1.75,1.07,4.22,4.22,0,0,0-.3.65H30l-.33,1.58H26.57c0,.26,0,.52,0,.78s0,.54,0,.78h2.91L29.15,24H26.93a2.49,2.49,0,0,0,.3.56,2,2,0,0,0,1.72,1,1.82,1.82,0,0,0,1.62-.84,3.84,3.84,0,0,0,.52-1.34h2a5.63,5.63,0,0,1-1.35,3.08A3.6,3.6,0,0,1,29,27.65,3.9,3.9,0,0,1,25.67,26a5.65,5.65,0,0,1-.93-2Zm-3.34,9.63a1.57,1.57,0,0,0-.48-1.29A2.09,2.09,0,0,0,17.08,32H14.83V35.4h2.25A1.93,1.93,0,0,0,18.41,35,1.67,1.67,0,0,0,18.89,33.66Zm2.39,0a3.54,3.54,0,0,1-1,2.89,4.54,4.54,0,0,1-3,.85H14.83v4.16H12.42V30h5a4.14,4.14,0,0,1,2.78.89A3.48,3.48,0,0,1,21.28,33.65Zm5,3.53H29.2l-1.44-4.56Zm.15-7.2h2.74l4.1,11.57H30.62l-.74-2.38H25.61l-.8,2.38H22.28L26.41,30Z" fill="#fff" fill-rule="evenodd"/>
        </g>
      </g>
    </g>
  </g>
</svg>
