<svg id="Layer_1" data-name="Layer 1" xmlns="http://www.w3.org/2000/svg" xmlns:xlink="http://www.w3.org/1999/xlink" viewBox="0 0 70 70">
  <defs>
    <mask id="mask" x="0" y="0" width="70" height="70" maskUnits="userSpaceOnUse">
      <g id="b">
        <path id="a" d="M4,0H65c4,0,5,1,5,5V65c0,4-1,5-5,5H4c-3,0-4-1-4-5V5C0,1,1,0,4,0Z" fill="#fff" fill-rule="evenodd"/>
      </g>
    </mask>
    <linearGradient id="linear-gradient" x1="-909.8" y1="-4.39" x2="-910.8" y2="-5.39" gradientTransform="matrix(70, 0, 0, -70, 63756, -307.17)" gradientUnits="userSpaceOnUse">
      <stop offset="0" stop-color="#da956b"/>
      <stop offset="1" stop-color="#cc7039"/>
    </linearGradient>
  </defs>
  <g mask="url(#mask)">
    <g>
      <path d="M0,0H70V70H0Z" fill-rule="evenodd" fill="url(#linear-gradient)"/>
      <path d="M4,1H65q4,0,5,2V0H0V3C.67,1.67,2,1,4,1Z" fill="#fff" fill-opacity="0.38" fill-rule="evenodd"/>
      <path d="M36.47,69H4c-2,0-4-.15-4-4.08V34.52L17.76,16.76l5.17-1.83H41L51.09,27l.37,25.83-1.74,2.84Z" fill="#393939" fill-rule="evenodd" opacity="0.32" style="isolation: isolate"/>
      <path d="M4,69H65q4,0,5-3v4H0V66A3.92,3.92,0,0,0,4,69Z" fill-opacity="0.38" fill-rule="evenodd"/>
      <g>
        <g opacity="0.4">
          <path d="M43.87,40.25a1,1,0,0,0-.19-1.31.94.94,0,0,0-1.32.22l-1.41,2a.37.37,0,0,1-.61,0l-1.41-2a.91.91,0,0,0-.76-.4H32.58a.93.93,0,0,0-.94.93v1.82a1,1,0,0,0,.91,1,.92.92,0,0,0,1-.93V41a.37.37,0,0,1,.37-.37h3.6a.37.37,0,0,1,.31.16l1.27,1.81a1.11,1.11,0,0,1,0,1.28l-1.63,2.34a.93.93,0,1,0,1.5,1.1l1.41-2a.37.37,0,0,1,.61,0l1.39,2a1,1,0,0,0,1.3.28.94.94,0,0,0,.25-1.32l-1.66-2.36a1.11,1.11,0,0,1,0-1.28Zm-13,3a4.48,4.48,0,1,0-4.48,4.47,4.48,4.48,0,0,0,4.48-4.47m-1.87,0a2.61,2.61,0,1,1-2.61-2.61A2.61,2.61,0,0,1,29,43.23m2.63,3.54a.93.93,0,0,0,1.86,0,2.61,2.61,0,0,1,2.61-2.61.94.94,0,1,0,0-1.87,4.48,4.48,0,0,0-4.47,4.48"/>
          <path d="M50.84,52.71V29.31a1.26,1.26,0,0,0-.32-.83l-.37-.42-8.87-10L39.42,16a1.21,1.21,0,0,0-.93-.42H20.85a5.7,5.7,0,0,0-5.69,5.69V52.71a5.7,5.7,0,0,0,5.69,5.69h24.3A5.7,5.7,0,0,0,50.84,52.71Zm-4-24.65H38.52v-9.3Zm1.54,2.5V52.71a3.2,3.2,0,0,1-3.19,3.19H20.85a3.19,3.19,0,0,1-3.19-3.19V21.29a3.19,3.19,0,0,1,3.19-3.19H36V29.31a1.25,1.25,0,0,0,1.25,1.25Z"/>
        </g>
        <g>
          <path d="M45.87,38.25a1,1,0,0,0-.19-1.31.94.94,0,0,0-1.32.22l-1.41,2a.37.37,0,0,1-.61,0l-1.41-2a.91.91,0,0,0-.76-.4H34.58a.93.93,0,0,0-.94.93v1.82a1,1,0,0,0,.91,1,.92.92,0,0,0,1-.93V39a.37.37,0,0,1,.37-.37h3.6a.37.37,0,0,1,.31.16l1.27,1.81a1.11,1.11,0,0,1,0,1.28l-1.63,2.34a.93.93,0,1,0,1.5,1.1l1.41-2a.37.37,0,0,1,.61,0l1.39,2a1,1,0,0,0,1.3.28.94.94,0,0,0,.25-1.32l-1.66-2.36a1.11,1.11,0,0,1,0-1.28Zm-13,3a4.48,4.48,0,1,0-4.48,4.47,4.48,4.48,0,0,0,4.48-4.47m-1.87,0a2.61,2.61,0,1,1-2.61-2.61A2.61,2.61,0,0,1,31,41.23m2.63,3.54a.93.93,0,0,0,1.86,0,2.61,2.61,0,0,1,2.61-2.61.94.94,0,1,0,0-1.87,4.48,4.48,0,0,0-4.47,4.48" fill="#fff"/>
          <path d="M52.84,50.71V27.31a1.26,1.26,0,0,0-.32-.83l-.37-.42-8.87-10L41.42,14a1.21,1.21,0,0,0-.93-.42H22.85a5.7,5.7,0,0,0-5.69,5.69V50.71a5.7,5.7,0,0,0,5.69,5.69h24.3A5.7,5.7,0,0,0,52.84,50.71Zm-4-24.65H40.52v-9.3Zm1.54,2.5V50.71a3.2,3.2,0,0,1-3.19,3.19H22.85a3.19,3.19,0,0,1-3.19-3.19V19.29a3.19,3.19,0,0,1,3.19-3.19H38V27.31a1.25,1.25,0,0,0,1.25,1.25Z" fill="#fff"/>
        </g>
      </g>
    </g>
  </g>
</svg>
