<svg id="Layer_1" data-name="Layer 1" xmlns="http://www.w3.org/2000/svg" xmlns:xlink="http://www.w3.org/1999/xlink" viewBox="0 0 70 70">
  <defs>
    <mask id="mask" x="0" y="0" width="70" height="70" maskUnits="userSpaceOnUse">
      <g id="b">
        <path id="a" d="M4,0H65c4,0,5,1,5,5V65c0,4-1,5-5,5H4c-3,0-4-1-4-5V5C0,1,1,0,4,0Z" fill="#fff" fill-rule="evenodd"/>
      </g>
    </mask>
    <linearGradient id="linear-gradient" x1="-996.17" y1="568.8" x2="-997.17" y2="567.8" gradientTransform="matrix(70, 0, 0, -70, 69801.64, 39816)" gradientUnits="userSpaceOnUse">
      <stop offset="0" stop-color="#b06161"/>
      <stop offset="0.46" stop-color="#984e4e"/>
      <stop offset="1" stop-color="#7c3838"/>
    </linearGradient>
  </defs>
  <g mask="url(#mask)">
    <g>
      <path d="M0,0H70V70H0Z" fill-rule="evenodd" fill="url(#linear-gradient)"/>
      <path d="M4,1H65c2.67,0,4.33.67,5,2V0H0V3C.67,1.67,2,1,4,1Z" fill="#fff" fill-opacity="0.38" fill-rule="evenodd"/>
      <path d="M4,69H65c2.67,0,4.33-1,5-3v4H0V66A3.92,3.92,0,0,0,4,69Z" fill-opacity="0.38" fill-rule="evenodd"/>
      <path d="M4,69a3.66,3.66,0,0,1-4-4V37.68L12.82,24.86A36.91,36.91,0,0,1,38.58,9.79l-9.69,9.7,1.12,3,6.74-6.74c7.84-3.68,15.19-5.05,19.43,8.2l3.34-3.33.25,10.85,3.69,3.82-4.11,4.08L53.92,50.26,35.26,69Z" fill="#393939" fill-rule="evenodd" opacity="0.32" style="isolation: isolate"/>
      <g>
        <g opacity="0.4">
          <path d="M55.44,40.66a21.21,21.21,0,0,1-2.35,6L47,41c.09-.25.16-.5.24-.76a15.45,15.45,0,0,1-2.55-1A11,11,0,0,1,34,47.64a11,11,0,0,1-11-11,10.57,10.57,0,0,1,3.22-7.77,11.24,11.24,0,0,1,2.58-1.95,8.25,8.25,0,0,1-.74-3.4,5.65,5.65,0,0,1,0-.71L23,17.5a22.49,22.49,0,0,1,8.4-2.7,15.17,15.17,0,0,1,5.18-3,26.12,26.12,0,0,0-3.08-.2,24,24,0,0,0-9.52,1.94,24.1,24.1,0,0,0-13,13.05,24.3,24.3,0,0,0,0,19,24,24,0,0,0,13,13,24.3,24.3,0,0,0,19,0,24,24,0,0,0,13-13,23.6,23.6,0,0,0,1.62-5.54A16.94,16.94,0,0,1,55.44,40.66ZM21,41,14.8,46.64a20.77,20.77,0,0,1,0-21L21,31.29A13.69,13.69,0,0,0,21,41ZM34,57.64a22.58,22.58,0,0,1-11-2.85l5.91-6.15a15,15,0,0,0,10.17,0L45,54.79A22.61,22.61,0,0,1,34,57.64Z" fill-rule="evenodd"/>
          <path id="e" d="M43.71,31.21a14.41,14.41,0,0,1-5.27-1,10.83,10.83,0,0,1-5.6,2.25.42.42,0,0,1-.45-.31c0-.2.1-.33.26-.48a5.23,5.23,0,0,0,2-3.8,7.06,7.06,0,0,1-2.31-5.07c0-4.62,5.07-8.37,11.33-8.37S55,18.22,55,22.84,50,31.21,43.71,31.21Zm-.26-13.42a2.91,2.91,0,1,0,0,5.82h0a2.91,2.91,0,0,0,0-5.82Zm3.34,6.08-1.3-.33a3.51,3.51,0,0,1-4.08,0l-1.3.33a1.73,1.73,0,0,0-1.32,1.69v.68a.87.87,0,0,0,.87.87h7.58a.87.87,0,0,0,.87-.87v-.68A1.73,1.73,0,0,0,46.79,23.87ZM61.26,36.7a4.74,4.74,0,0,1-1.89-3.46c3.48-3.3,2.64-8-1.91-10.6a1.34,1.34,0,0,1,0,.2c0,6.28-6.56,11.09-14.38,10.82A12.5,12.5,0,0,0,51,36.25a13.9,13.9,0,0,0,4.89-.87,10.26,10.26,0,0,0,5.21,2,.38.38,0,0,0,.42-.28C61.55,37,61.41,36.84,61.26,36.7Z"/>
        </g>
        <g>
          <path d="M57.49,38.61a21.6,21.6,0,0,1-2.34,6L49,39c.09-.25.17-.51.25-.76a15.59,15.59,0,0,1-2.56-1A11,11,0,0,1,36,45.59a11,11,0,0,1-11-11,10.59,10.59,0,0,1,3.22-7.78,11.53,11.53,0,0,1,2.58-1.95,8.24,8.24,0,0,1-.74-3.39c0-.24,0-.48.05-.71L25,15.44a22.9,22.9,0,0,1,8.41-2.7,15,15,0,0,1,5.17-3A24.2,24.2,0,0,0,26,11.53a24,24,0,0,0-13,13,24.33,24.33,0,0,0,0,19,24,24,0,0,0,13,13,24.33,24.33,0,0,0,19,0,24,24,0,0,0,13-13,23.71,23.71,0,0,0,1.61-5.54A16.53,16.53,0,0,1,57.49,38.61ZM23,39l-6.15,5.64a20.77,20.77,0,0,1,0-21L23,29.23A13.71,13.71,0,0,0,23,39ZM36,55.59a22.58,22.58,0,0,1-11-2.85l5.91-6.15a15.16,15.16,0,0,0,5.09.89,15,15,0,0,0,5.09-.89L47,52.74A22.58,22.58,0,0,1,36,55.59Z" fill="#fff" fill-rule="evenodd"/>
          <path id="e-2" data-name="e" d="M45.76,29.16a14.66,14.66,0,0,1-5.27-1,10.78,10.78,0,0,1-5.6,2.24.41.41,0,0,1-.45-.3c0-.21.11-.33.26-.48a5.24,5.24,0,0,0,2-3.81,7,7,0,0,1-2.31-5.06c0-4.63,5.07-8.37,11.33-8.37s11.33,3.74,11.33,8.37S52,29.16,45.76,29.16ZM45.5,15.73a2.92,2.92,0,0,0,0,5.83h0a2.92,2.92,0,1,0,0-5.83Zm3.34,6.08-1.3-.32a3.51,3.51,0,0,1-4.08,0l-1.29.32a1.75,1.75,0,0,0-1.33,1.7v.67a.88.88,0,0,0,.88.88h7.57a.89.89,0,0,0,.88-.88v-.67A1.75,1.75,0,0,0,48.84,21.81ZM63.32,34.65a4.74,4.74,0,0,1-1.9-3.46c3.48-3.31,2.64-8-1.9-10.61v.21c0,6.27-6.55,11.08-14.38,10.82a12.58,12.58,0,0,0,7.91,2.58,13.72,13.72,0,0,0,4.89-.87,10.2,10.2,0,0,0,5.2,2,.39.39,0,0,0,.42-.28C63.61,34.9,63.46,34.78,63.32,34.65Z" fill="#fff"/>
        </g>
      </g>
    </g>
  </g>
</svg>
