<?xml version="1.0" encoding="UTF-8" standalone="no"?>
<svg
   xmlns:dc="http://purl.org/dc/elements/1.1/"
   xmlns:cc="http://creativecommons.org/ns#"
   xmlns:rdf="http://www.w3.org/1999/02/22-rdf-syntax-ns#"
   xmlns:svg="http://www.w3.org/2000/svg"
   xmlns="http://www.w3.org/2000/svg"
   xmlns:sodipodi="http://sodipodi.sourceforge.net/DTD/sodipodi-0.dtd"
   xmlns:inkscape="http://www.inkscape.org/namespaces/inkscape"
   aria-hidden="true"
   data-prefix="fas"
   data-icon="shopping-cart"
   class="svg-inline--fa fa-shopping-cart fa-w-18"
   role="img"
   viewBox="0 0 576 512"
   version="1.1"
   id="svg3773"
   sodipodi:docname="shopping-cart-po-solid.svg"
   inkscape:version="0.92.3 (2405546, 2018-03-11)">
  <metadata
     id="metadata3779">
    <rdf:RDF>
      <cc:Work
         rdf:about="">
        <dc:format>image/svg+xml</dc:format>
        <dc:type
           rdf:resource="http://purl.org/dc/dcmitype/StillImage" />
        <dc:title />
      </cc:Work>
    </rdf:RDF>
  </metadata>
  <defs
     id="defs3777" />
  <sodipodi:namedview
     pagecolor="#ffffff"
     bordercolor="#666666"
     borderopacity="1"
     objecttolerance="10"
     gridtolerance="10"
     guidetolerance="10"
     inkscape:pageopacity="0"
     inkscape:pageshadow="2"
     inkscape:window-width="1920"
     inkscape:window-height="1031"
     id="namedview3775"
     showgrid="false"
     inkscape:zoom="0.1448395"
     inkscape:cx="-1057.7952"
     inkscape:cy="-291.17828"
     inkscape:window-x="0"
     inkscape:window-y="0"
     inkscape:window-maximized="1"
     inkscape:current-layer="svg3773"
     inkscape:snap-page="false"
     inkscape:snap-grids="true"
     inkscape:snap-to-guides="true" />
  <path
     d="m 540.41801,355.43179 35.131,-154.57581 c 2.5364,-11.16067 -5.9467,-21.7885 -17.392,-21.7885 h -291.8971 l -6.8117,-33.30068 c -1.6974,-8.30028 -9.0011,-14.2611 -17.47377,-14.2611 h -76.19473 c -9.85049,0 -17.83567,7.98517 -17.83567,17.83567 v 11.89044 c 0,9.8505 7.98518,17.83567 17.83567,17.83567 h 51.93375 l 52.20505,255.22474 c -12.4895,7.18257 -20.9057,20.64999 -20.9057,36.09122 0,22.98423 18.6324,41.61656 41.6166,41.61656 22.9842,0 41.6166,-18.63233 41.6166,-41.61656 0,-11.64818 -4.7911,-22.17197 -12.5029,-29.72612 h 155.7998 c -7.7109,7.55415 -12.502,18.07794 -12.502,29.72612 0,22.98423 18.6323,41.61656 41.6165,41.61656 22.9843,0 41.6166,-18.63233 41.6166,-41.61656 0,-16.47719 -9.5778,-30.716 -23.468,-37.45863 l 4.0999,-18.04077 c 2.5364,-11.16068 -5.9467,-21.78851 -17.392,-21.78851 h -199.4756 l -4.8639,-23.7809 h 217.8515 c 8.3278,0 15.5468,-5.7624 17.3921,-13.88284 z"
     id="path3771"
     inkscape:connector-curvature="0"
     style="fill:#8f8f8f;stroke-width:0.74315292" />
  <g
     inkscape:groupmode="layer"
     id="layer1"
     inkscape:label="Layer 1"
     style="display:inline" />
  <path
     style="opacity:1;fill:#8f8f8f;fill-opacity:1;stroke:none;stroke-width:1.73005068;stroke-opacity:1"
     d="M 33.783203 0 C 15.066628 0 0 15.066643 0 33.783203 L 0 244.9375 C 0 263.65407 15.066627 278.7207 33.783203 278.7207 L 205.43359 278.7207 L 199.06055 247.55859 L 39.513672 247.55859 C 32.426632 247.55859 26.720703 241.8527 26.720703 234.76562 L 26.720703 138.10352 L 117.27734 138.10352 C 122.49153 116.21483 142.49004 99.505859 165.7793 99.505859 L 241.97461 99.505859 C 265.02653 99.505859 285.3269 115.7422 290.51367 138.10352 L 331.18359 138.10352 L 331.18359 147.06836 L 357.9043 147.06836 L 357.9043 33.783203 C 357.9043 15.066623 342.83378 0 324.11719 0 L 33.783203 0 z M 39.513672 31.162109 L 318.39062 31.162109 C 325.47767 31.162109 331.18359 36.866055 331.18359 43.953125 L 331.18359 58.970703 L 26.720703 58.970703 L 26.720703 43.953125 C 26.720703 36.866055 32.426632 31.162109 39.513672 31.162109 z "
     id="path825" />
  <path
     style="opacity:1;fill:#8f8f8f;fill-opacity:1;stroke:none;stroke-width:1.73005068;stroke-opacity:1"
     d="m 68.119141,176.83984 c -4.98379,0 -8.996094,4.01232 -8.996094,8.9961 v 21.07031 c 0,4.98378 4.012304,8.99609 8.996094,8.99609 h 41.658199 c 4.98379,0 8.9961,-4.01231 8.9961,-8.99609 v -21.07031 c 0,-4.98378 -4.01231,-8.9961 -8.9961,-8.9961 z"
     id="path821" />
</svg>
