<svg id="Layer_1" data-name="Layer 1" xmlns="http://www.w3.org/2000/svg" xmlns:xlink="http://www.w3.org/1999/xlink" viewBox="0 0 70 70">
  <defs>
    <mask id="mask" x="0" y="0" width="70" height="70" maskUnits="userSpaceOnUse">
      <g id="b">
        <path id="a" d="M4,0H65c4,0,5,1,5,5V65c0,4-1,5-5,5H4c-3,0-4-1-4-5V5C0,1,1,0,4,0Z" fill="#fff" fill-rule="evenodd"/>
      </g>
    </mask>
    <linearGradient id="linear-gradient" x1="-1264.65" y1="725.89" x2="-1265.65" y2="724.91" gradientTransform="matrix(70, 0, 0, -70, 88596, 50812.72)" gradientUnits="userSpaceOnUse">
      <stop offset="0" stop-color="#797c79"/>
      <stop offset="1" stop-color="#545554"/>
    </linearGradient>
  </defs>
  <g mask="url(#mask)">
    <g>
      <path d="M0,0H70V70H0Z" fill-rule="evenodd" fill="url(#linear-gradient)"/>
      <path d="M4,1H65c2.67,0,4.33.67,5,2V0H0V3C.67,1.67,2,1,4,1Z" fill="#fff" fill-opacity="0.38" fill-rule="evenodd"/>
      <path d="M52.61,69H4a3.66,3.66,0,0,1-4-4V35.43L18,15.8l35.35,1,2.32,33,4.8.46c1.63.15,2.42,1,2.39,3.51Z" fill="#393939" fill-rule="evenodd" opacity="0.32" style="isolation: isolate"/>
      <path d="M4,69H65c2.67,0,4.33-1,5-3v4H0V66A3.92,3.92,0,0,0,4,69Z" fill-opacity="0.38" fill-rule="evenodd"/>
      <g opacity="0.4">
        <path d="M59.93,50.37a2.82,2.82,0,1,0,2.82,2.82,2.83,2.83,0,0,0-2.82-2.82Zm0,.32a2.5,2.5,0,1,1-2.51,2.5,2.51,2.51,0,0,1,2.51-2.5"/>
        <path d="M59.85,53.08h-.5v-1H60c.32,0,.7.06.7.49s-.38.53-.84.53m.5.3a.76.76,0,0,0,.77-.76v0c0-.57-.34-.85-1-.85H58.92v3h.43V53.42h.54l.83,1.3h.46l-.89-1.34Z"/>
        <path d="M51,15.79H15.83a3,3,0,0,0-3.05,3V54.11a3,3,0,0,0,3.05,3H51a3,3,0,0,0,3.06-3V18.77a3,3,0,0,0-3.06-3M25,51H18.9V31.27H25V51ZM22,28.58A3.56,3.56,0,1,1,25.52,25,3.55,3.55,0,0,1,22,28.58h0M48,51H41.85V41.39c0-2.28,0-5.22-3.18-5.22S35,38.66,35,41.23V51H28.87V31.27h5.88V34h.08a6.43,6.43,0,0,1,5.8-3.18c6.2,0,7.34,4.08,7.34,9.39V51Z"/>
      </g>
      <g>
        <path d="M60.18,50.15A2.82,2.82,0,1,0,63,53a2.82,2.82,0,0,0-2.83-2.82Zm0,.32a2.5,2.5,0,1,1-2.5,2.5,2.5,2.5,0,0,1,2.5-2.5" fill="#fff"/>
        <path d="M60.11,52.86h-.5v-1h.63c.33,0,.71.06.71.49s-.38.53-.84.53m.5.3a.76.76,0,0,0,.77-.76v0c0-.57-.35-.85-1.06-.85H59.18v3h.43V53.2h.54l.82,1.3h.47l-.89-1.34Z" fill="#fff"/>
        <path d="M52.59,14.36H17.4a3,3,0,0,0-3,3V52.67a3,3,0,0,0,3,3H52.59a3,3,0,0,0,3.06-3V17.33a3,3,0,0,0-3.06-3m-26,35.19H20.47V29.83H26.6V49.54Zm-3.06-22.4a3.55,3.55,0,1,1,3.55-3.55,3.55,3.55,0,0,1-3.55,3.55h0m26,22.4H43.42V40c0-2.29,0-5.23-3.18-5.23s-3.68,2.49-3.68,5.06v9.75H30.44V29.83h5.88v2.7h.08a6.45,6.45,0,0,1,5.8-3.19c6.2,0,7.34,4.08,7.34,9.39V49.54Z" fill="#fff"/>
      </g>
    </g>
  </g>
</svg>
