<svg id="Layer_1" data-name="Layer 1" xmlns="http://www.w3.org/2000/svg" xmlns:xlink="http://www.w3.org/1999/xlink" viewBox="0 0 70 70">
  <defs>
    <mask id="mask" x="0" y="0" width="70" height="70" maskUnits="userSpaceOnUse">
      <g id="b">
        <path id="a" d="M4,0H65c4,0,5,1,5,5V65c0,4-1,5-5,5H4c-3,0-4-1-4-5V5C0,1,1,0,4,0Z" fill="#fff" fill-rule="evenodd"/>
      </g>
    </mask>
    <linearGradient id="linear-gradient" x1="-1704.64" y1="477.94" x2="-1705.64" y2="476.95" gradientTransform="matrix(70, 0, 0, -70, 119394.99, 33455.73)" gradientUnits="userSpaceOnUse">
      <stop offset="0" stop-color="#797c79"/>
      <stop offset="1" stop-color="#545554"/>
    </linearGradient>
  </defs>
  <g mask="url(#mask)">
    <g>
      <path d="M0,0H70V70H0Z" fill-rule="evenodd" fill="url(#linear-gradient)"/>
      <path d="M4,1H65c2.67,0,4.33.67,5,2V0H0V3C.67,1.67,2,1,4,1Z" fill="#fff" fill-opacity="0.38" fill-rule="evenodd"/>
      <path d="M4,69c-2,0-4-.14-4-4V32.28L18.71,13.64,29.64,36l5.65-5.66,12.56-3.94,9.61,3,2.65,3.35-2.65,2.65.22,5.83L29.9,69Z" fill="#393939" fill-rule="evenodd" opacity="0.32" style="isolation: isolate"/>
      <path d="M4,69H65c2.67,0,4.33-1,5-3v4H0V66A3.92,3.92,0,0,0,4,69Z" fill-opacity="0.38" fill-rule="evenodd"/>
      <g>
        <g opacity="0.4">
          <path d="M17.64,45.89h-1a.48.48,0,0,0-.36.12.41.41,0,0,0-.14.31v4.82h-3.5a.48.48,0,0,0-.36.12.41.41,0,0,0-.14.31v.88a.41.41,0,0,0,.14.31.53.53,0,0,0,.36.13h5a.53.53,0,0,0,.36-.13.41.41,0,0,0,.14-.31V46.32A.41.41,0,0,0,18,46,.52.52,0,0,0,17.64,45.89Z"/>
          <path d="M26.52,43.79a1,1,0,0,0-1.38-.19l-1.27.93a10,10,0,0,0-2.71-2.3A9.62,9.62,0,0,0,17.64,41v-1.1h.5a1,1,0,0,0,0-2h-4a1,1,0,0,0,0,2h.5V41a9.62,9.62,0,0,0-3.52,1.24A10,10,0,0,0,7.48,55.91a10,10,0,0,0,3.64,3.64,10.07,10.07,0,0,0,10,0,10.08,10.08,0,0,0,3.64-3.64,10.12,10.12,0,0,0,.4-9.29l1.41-1h0a1,1,0,0,0,.18-1.41ZM22.2,54.4A7,7,0,0,1,19.65,57a7,7,0,0,1-9.57-2.55,7,7,0,0,1,0-7,7,7,0,0,1,2.55-2.54,6.79,6.79,0,0,1,3.51-.94h0a6.88,6.88,0,0,1,3.51.95,7,7,0,0,1,2.55,2.54,7,7,0,0,1,0,7Z"/>
          <path d="M27.59,36.68c-.27-5.93,3.7-11.21,8.92-13.61V23c-.76.18-2,.57-3.87,1.18a38,38,0,0,1-4.28,1.21,4.65,4.65,0,0,1-2.62-.16,2.28,2.28,0,0,1-1.41-1.84,4,4,0,0,1,.09-1.81A6.66,6.66,0,0,1,25.07,20a5.63,5.63,0,0,0,.64-1.61,4.37,4.37,0,0,0,.06-2,3.76,3.76,0,0,0-1.89-2.75,5,5,0,0,0-3.45-.46A5.62,5.62,0,0,0,17.16,15a3.76,3.76,0,0,0-.82,3.38,5.72,5.72,0,0,0,.75,2,6.36,6.36,0,0,0,1.12,1.41,9.54,9.54,0,0,1,1.06,1.14,2.75,2.75,0,0,1,.6,1.16,3.13,3.13,0,0,1-.69,2.38,4.11,4.11,0,0,1-2.67,1.4,39.08,39.08,0,0,1-6,.57,4,4,0,0,0-.53,0l-.85,0H8.65l1.4,7.17a14.47,14.47,0,0,1,4.59-.74c4.78,0,8,1.4,10.17,3.38l.44-.1a5.41,5.41,0,0,1,2.48.07C27.66,37.73,27.61,37.21,27.59,36.68Z"/>
          <path d="M56.86,36.91a.22.22,0,0,1,.09.17v5.47a.21.21,0,0,1-.13.2L46.75,46.91a.2.2,0,0,1-.2,0,.2.2,0,0,1-.09-.17V36.65a.21.21,0,0,1,.21-.21.21.21,0,0,1,.16.08l2.24,2.77a.26.26,0,0,0,.27.09l7.33-2.5A.22.22,0,0,1,56.86,36.91Zm3-2.84a.21.21,0,0,1,0,.19.2.2,0,0,1-.14.13l-9.93,3.2a.22.22,0,0,1-.24-.07l-2.78-3.25-.82.22h-.13L45,34.28l-2.78,3.25a.22.22,0,0,1-.24.06L32,34.4a.2.2,0,0,1-.14-.14.22.22,0,0,1,0-.19l2-2.56a.19.19,0,0,1,.12-.07l11.74-3.15h.13l11.74,3.14a.25.25,0,0,1,.12.08l2,2.56ZM45.88,33.6l8.41-2.18-8.41-2.24-8.42,2.24Zm-.74,2.85a.21.21,0,0,1,.15.2V46.72a.19.19,0,0,1-.1.17.21.21,0,0,1-.2,0L34.36,42.75a.22.22,0,0,1-.14-.2V37.08a.2.2,0,0,1,.09-.17.24.24,0,0,1,.2,0l7.74,2.5a.27.27,0,0,0,.28-.09l2.37-2.77a.22.22,0,0,1,.24-.07Z"/>
        </g>
        <g>
          <path d="M19.64,43.89h-1a.48.48,0,0,0-.36.12.41.41,0,0,0-.14.31v4.82h-3.5a.48.48,0,0,0-.36.12.41.41,0,0,0-.14.31v.88a.41.41,0,0,0,.14.31.53.53,0,0,0,.36.13h5a.53.53,0,0,0,.36-.13.41.41,0,0,0,.14-.31V44.32A.41.41,0,0,0,20,44,.52.52,0,0,0,19.64,43.89Z" fill="#fff"/>
          <path d="M28.52,41.79a1,1,0,0,0-1.38-.19l-1.27.93a10,10,0,0,0-2.71-2.3A9.62,9.62,0,0,0,19.64,39v-1.1h.5a1,1,0,0,0,0-2h-4a1,1,0,0,0,0,2h.5V39a9.62,9.62,0,0,0-3.52,1.24A10,10,0,0,0,9.48,53.91a10,10,0,0,0,3.64,3.64,10.07,10.07,0,0,0,10,0,10.08,10.08,0,0,0,3.64-3.64,10.12,10.12,0,0,0,.4-9.29l1.41-1h0a1,1,0,0,0,.18-1.41ZM24.2,52.4A7,7,0,0,1,21.65,55a7,7,0,0,1-9.57-2.55,7,7,0,0,1,0-7,7,7,0,0,1,2.55-2.54,6.79,6.79,0,0,1,3.51-.94h0a6.88,6.88,0,0,1,3.51.95,7,7,0,0,1,2.55,2.54,7,7,0,0,1,0,7Z" fill="#fff"/>
          <path d="M29.59,34.68c-.27-5.93,3.7-11.21,8.92-13.61V21c-.76.18-2,.57-3.87,1.18a38,38,0,0,1-4.28,1.21,4.65,4.65,0,0,1-2.62-.16,2.28,2.28,0,0,1-1.41-1.84,4,4,0,0,1,.09-1.81A6.66,6.66,0,0,1,27.07,18a5.63,5.63,0,0,0,.64-1.61,4.37,4.37,0,0,0,.06-2,3.76,3.76,0,0,0-1.89-2.75,5,5,0,0,0-3.45-.46A5.62,5.62,0,0,0,19.16,13a3.76,3.76,0,0,0-.82,3.38,5.72,5.72,0,0,0,.75,2,6.36,6.36,0,0,0,1.12,1.41,9.54,9.54,0,0,1,1.06,1.14,2.75,2.75,0,0,1,.6,1.16,3.13,3.13,0,0,1-.69,2.38,4.11,4.11,0,0,1-2.67,1.4,39.08,39.08,0,0,1-6,.57,4,4,0,0,0-.53,0l-.85,0h-.44l1.4,7.17a14.47,14.47,0,0,1,4.59-.74c4.78,0,8,1.4,10.17,3.38l.44-.1a5.41,5.41,0,0,1,2.48.07C29.66,35.73,29.61,35.21,29.59,34.68Z" fill="#fff"/>
          <path d="M58.86,34.91a.22.22,0,0,1,.09.17v5.47a.21.21,0,0,1-.13.2L48.75,44.91a.2.2,0,0,1-.2,0,.2.2,0,0,1-.09-.17V34.65a.21.21,0,0,1,.21-.21.21.21,0,0,1,.16.08l2.24,2.77a.26.26,0,0,0,.27.09l7.33-2.5A.22.22,0,0,1,58.86,34.91Zm3-2.84a.21.21,0,0,1,0,.19.2.2,0,0,1-.14.13l-9.93,3.2a.22.22,0,0,1-.24-.07l-2.78-3.25-.82.22h-.13L47,32.28l-2.78,3.25a.22.22,0,0,1-.24.06L34,32.4a.2.2,0,0,1-.14-.14.22.22,0,0,1,0-.19l2-2.56a.19.19,0,0,1,.12-.07l11.74-3.15h.13l11.74,3.14a.25.25,0,0,1,.12.08l2,2.56ZM47.88,31.6l8.41-2.18-8.41-2.24-8.42,2.24Zm-.74,2.85a.21.21,0,0,1,.15.2V44.72a.19.19,0,0,1-.1.17.21.21,0,0,1-.2,0L36.36,40.75a.22.22,0,0,1-.14-.2V35.08a.2.2,0,0,1,.09-.17.24.24,0,0,1,.2,0l7.74,2.5a.27.27,0,0,0,.28-.09l2.37-2.77a.22.22,0,0,1,.24-.07Z" fill="#fff"/>
        </g>
      </g>
    </g>
  </g>
</svg>
