<svg id="Layer_1" data-name="Layer 1" xmlns="http://www.w3.org/2000/svg" xmlns:xlink="http://www.w3.org/1999/xlink" viewBox="0 0 70 70">
  <defs>
    <mask id="mask" x="0" y="0" width="70" height="70" maskUnits="userSpaceOnUse">
      <g id="b">
        <path id="a" d="M4,0H65c4,0,5,1,5,5V65c0,4-1,5-5,5H4c-3,0-4-1-4-5V5C0,1,1,0,4,0Z" fill="#fff" fill-rule="evenodd"/>
      </g>
    </mask>
    <linearGradient id="linear-gradient" x1="-1438.5" y1="891.77" x2="-1439.5" y2="890.77" gradientTransform="matrix(70, 0, 0, -70, 100764.99, 62423.68)" gradientUnits="userSpaceOnUse">
      <stop offset="0" stop-color="red"/>
      <stop offset="1" stop-color="red"/>
    </linearGradient>
  </defs>
  <g mask="url(#mask)">
    <g>
      <path d="M0,0H70V70H0Z" fill-rule="evenodd" fill="url(#linear-gradient)"/>
      <path d="M4,1H65c2.67,0,4.33.67,5,2V0H0V3C.67,1.67,2,1,4,1Z" fill="#fff" fill-opacity="0.38" fill-rule="evenodd"/>
      <path d="M4,69H65c2.67,0,4.33-1,5-3v4H0V66A3.92,3.92,0,0,0,4,69Z" fill-opacity="0.38" fill-rule="evenodd"/>
      <path d="M55.29,24.74A5.33,5.33,0,0,0,51.54,21c-3.3-.89-16.54-.89-16.54-.89s-13.24,0-16.54.89a5.33,5.33,0,0,0-3.75,3.77C13.83,28.07,13.83,35,13.83,35s0,6.93.88,10.26A5.33,5.33,0,0,0,18.46,49c3.3.89,16.54.89,16.54.89s13.24,0,16.54-.89a5.33,5.33,0,0,0,3.75-3.77c.88-3.33.88-10.26.88-10.26S56.17,28.07,55.29,24.74ZM30.67,41.3V28.7L41.74,35Z" fill="#fff"/>
    </g>
  </g>
</svg>
