<svg id="Layer_1" data-name="Layer 1" xmlns="http://www.w3.org/2000/svg" xmlns:xlink="http://www.w3.org/1999/xlink" viewBox="0 0 70 70">
  <defs>
    <mask id="mask" x="0" y="0" width="70" height="70" maskUnits="userSpaceOnUse">
      <g id="b">
        <path id="a" d="M4,0H65c4,0,5,1,5,5V65c0,4-1,5-5,5H4c-3,0-4-1-4-5V5C0,1,1,0,4,0Z" fill="#fff" fill-rule="evenodd"/>
      </g>
    </mask>
    <linearGradient id="linear-gradient" x1="-1175.94" y1="809.68" x2="-1176.94" y2="808.68" gradientTransform="matrix(70, 0, 0, -70, 82386, 56677.64)" gradientUnits="userSpaceOnUse">
      <stop offset="0" stop-color="#18b5f2"/>
      <stop offset="1" stop-color="#1877f2"/>
    </linearGradient>
  </defs>
  <g mask="url(#mask)">
    <g>
      <path d="M0,0H70V70H0Z" fill-rule="evenodd" fill="url(#linear-gradient)"/>
      <path d="M35.66,69H4a3.66,3.66,0,0,1-4-4V39.15L31.15,14.77l18.83,6L54.17,43Z" fill="#393939" fill-rule="evenodd" opacity="0.32" style="isolation: isolate"/>
      <g opacity="0.4">
        <path d="M54.17,36.63A20.84,20.84,0,1,0,30.08,57.22V42.66H24.79v-6h5.29V32c0-5.22,3.11-8.1,7.87-8.1a31.71,31.71,0,0,1,4.66.41v5.12H40c-2.59,0-3.4,1.61-3.4,3.26v3.9h5.78l-.92,6H36.59V57.22A20.85,20.85,0,0,0,54.17,36.63Z"/>
      </g>
      <path d="M55.83,35A20.83,20.83,0,1,0,31.74,55.58V41H26.45V35h5.29V30.41c0-5.22,3.12-8.11,7.87-8.11a31.94,31.94,0,0,1,4.67.41v5.13H41.65c-2.59,0-3.39,1.6-3.39,3.25V35H44l-.92,6H38.26V55.58A20.83,20.83,0,0,0,55.83,35Z" fill="#fff"/>
      <path d="M4,1H65c2.67,0,4.33.67,5,2V0H0V3C.67,1.67,2,1,4,1Z" fill="#fff" fill-opacity="0.38" fill-rule="evenodd"/>
      <path d="M4,69H65c2.67,0,4.33-1,5-3v4H0V66A3.92,3.92,0,0,0,4,69Z" fill-opacity="0.38" fill-rule="evenodd"/>
    </g>
  </g>
</svg>
