<svg id="Layer_1" data-name="Layer 1" xmlns="http://www.w3.org/2000/svg" xmlns:xlink="http://www.w3.org/1999/xlink" viewBox="0 0 70 70">
  <defs>
    <mask id="mask" x="0" y="0" width="70" height="70" maskUnits="userSpaceOnUse">
      <g id="mask-2" data-name="mask">
        <g id="b">
          <path id="a" d="M4,0H65c4,0,5,1,5,5V65c0,4-1,5-5,5H4c-3,0-4-1-4-5V5C0,1,1,0,4,0Z" fill="#fff" fill-rule="evenodd"/>
        </g>
      </g>
    </mask>
    <linearGradient id="linear-gradient" x1="-1820.6" y1="14.4" x2="-1821.6" y2="15.39" gradientTransform="translate(127512 -1008) scale(70)" gradientUnits="userSpaceOnUse">
      <stop offset="0" stop-color="#797c79"/>
      <stop offset="1" stop-color="#545554"/>
    </linearGradient>
  </defs>
  <g mask="url(#mask)">
    <g>
      <path d="M0,0H70V70H0Z" fill-rule="evenodd" fill="url(#linear-gradient)"/>
      <path d="M4,1H65c2.67,0,4.33.67,5,2V0H0V3C.67,1.67,2,1,4,1Z" fill="#fff" fill-opacity="0.38" fill-rule="evenodd"/>
      <path d="M46.41,69H4c-2,0-4-.14-4-4V38.12L20.31,17.85,32.23,31.16l-4.66,4.63,6.69,3.46,4-4,11.83-.76,6,5.95v18.9Z" fill="#393939" fill-rule="evenodd" opacity="0.32" style="isolation: isolate"/>
      <path d="M4,69H65c2.67,0,4.33-1,5-3v4H0V66A3.92,3.92,0,0,0,4,69Z" fill-opacity="0.38" fill-rule="evenodd"/>
      <g>
        <g opacity="0.4">
          <g>
            <path id="e" d="M43.69,49.45c0,1.32,4,1,4,3.49a2.51,2.51,0,0,1-2.31,2.44v1a.26.26,0,0,1-.26.25h-.87a.26.26,0,0,1-.26-.25v-1a4.23,4.23,0,0,1-2.15-1,.24.24,0,0,1,0-.33l.66-.85a.26.26,0,0,1,.37,0h0a3.4,3.4,0,0,0,1.92.75c.77,0,1.13-.44,1.13-.86,0-1.22-4-1-4-3.54A2.43,2.43,0,0,1,44,47.28v-1a.25.25,0,0,1,.25-.25h.88a.26.26,0,0,1,.26.25v1a3.74,3.74,0,0,1,2,.79.24.24,0,0,1,.06.31l-.55.78a.29.29,0,0,1-.37.1h0a3.07,3.07,0,0,0-1.67-.59C44.16,48.65,43.69,49,43.69,49.45Z"/>
            <g>
              <path d="M51.28,62.81H38.57a3.5,3.5,0,0,1-3.49-3.49V39.8a3.49,3.49,0,0,1,3.49-3.49h8.66a3,3,0,0,1,2.06.83c1.83,1.78,3.05,3,4.5,4.5a3.41,3.41,0,0,1,1,2.42V59.29a3.48,3.48,0,0,1-3.45,3.52Zm-12.71-25a2,2,0,0,0-2,2V59.32a2,2,0,0,0,2,2H51.3a2,2,0,0,0,1.39-.6,1.92,1.92,0,0,0,.57-1.41V44.06a2,2,0,0,0-.55-1.38c-1.44-1.52-2.65-2.7-4.46-4.46a1.44,1.44,0,0,0-1-.41H38.57Z"/>
              <path d="M49.41,44.69a3.27,3.27,0,0,1-3.22-3v-4.2a.75.75,0,0,1,1.5,0v4.15a1.79,1.79,0,0,0,1.88,1.59h4.12a.75.75,0,0,1,0,1.5H49.41Z"/>
            </g>
          </g>
          <g>
            <path d="M32.41,36.15l-2.08-.52a11,11,0,0,1-12.76,0l-4.06,1a5.48,5.48,0,0,0-4.14,5.31v2.12a2.73,2.73,0,0,0,2.73,2.73H32.41Z"/>
            <path d="M23.94,17.62h0a9.12,9.12,0,0,0,0,18.23h.19a9.12,9.12,0,0,0-.19-18.23Z"/>
          </g>
        </g>
        <g>
          <g>
            <path id="e-2" data-name="e" d="M45.75,47.39c0,1.32,4,1,4,3.49a2.51,2.51,0,0,1-2.31,2.44v1a.26.26,0,0,1-.26.25h-.87a.26.26,0,0,1-.26-.25v-1a4.23,4.23,0,0,1-2.15-1,.24.24,0,0,1,0-.33l.66-.85a.27.27,0,0,1,.37,0h0a3.3,3.3,0,0,0,1.92.75c.77,0,1.13-.44,1.13-.86,0-1.22-4-1-4-3.54a2.42,2.42,0,0,1,2.12-2.27v-1a.25.25,0,0,1,.25-.25h.88a.26.26,0,0,1,.26.25v1a3.77,3.77,0,0,1,2,.79.25.25,0,0,1,.06.31L49,47.1a.28.28,0,0,1-.37.1h0A3.15,3.15,0,0,0,47,46.61C46.22,46.59,45.75,46.91,45.75,47.39Z" fill="#fff"/>
            <g>
              <path d="M53.34,60.75H40.63a3.5,3.5,0,0,1-3.49-3.49V37.74a3.5,3.5,0,0,1,3.49-3.49h8.66a3,3,0,0,1,2.06.83c1.83,1.78,3,3,4.5,4.5a3.5,3.5,0,0,1,1,2.42V57.23a3.48,3.48,0,0,1-3.45,3.52Zm-12.71-25a2,2,0,0,0-2,2V57.26a2,2,0,0,0,2,2H53.36a2,2,0,0,0,1.39-.6,2,2,0,0,0,.57-1.41V42a2,2,0,0,0-.56-1.38c-1.43-1.52-2.64-2.7-4.45-4.46a1.5,1.5,0,0,0-1-.41H40.63Z" fill="#fff"/>
              <path d="M51.47,42.63a3.27,3.27,0,0,1-3.22-3.05v-4.2a.75.75,0,1,1,1.5,0v4.15a1.78,1.78,0,0,0,1.88,1.59h4.12a.75.75,0,0,1,0,1.5H51.47Z" fill="#fff"/>
            </g>
          </g>
          <g>
            <path d="M34.47,34.09l-2.08-.52a11,11,0,0,1-12.76,0l-4.06,1a5.48,5.48,0,0,0-4.14,5.31V42a2.73,2.73,0,0,0,2.73,2.73H34.47Z" fill="#fff"/>
            <path d="M26,15.56h0a9.12,9.12,0,0,0,0,18.23h.19A9.12,9.12,0,0,0,26,15.56Z" fill="#fff"/>
          </g>
        </g>
      </g>
    </g>
  </g>
</svg>
