<svg id="Layer_1" data-name="Layer 1" xmlns="http://www.w3.org/2000/svg" xmlns:xlink="http://www.w3.org/1999/xlink" viewBox="0 0 70 70">
  <defs>
    <mask id="mask" x="0" y="0" width="70" height="70.03" maskUnits="userSpaceOnUse">
      <g id="b">
        <path id="a" d="M4,0H65c4,0,5,1,5,5V65c0,4-1,5-5,5H4c-3,0-4-1-4-5V5C0,1,1,0,4,0Z" fill="#fff" fill-rule="evenodd"/>
      </g>
    </mask>
    <linearGradient id="linear-gradient" x1="-1615.93" y1="568.8" x2="-1616.93" y2="567.8" gradientTransform="matrix(70, 0, 0, -70, 113184.99, 39816)" gradientUnits="userSpaceOnUse">
      <stop offset="0" stop-color="#cd7690"/>
      <stop offset="1" stop-color="#ca5377"/>
    </linearGradient>
  </defs>
  <g mask="url(#mask)">
    <g>
      <path d="M0,0H70V70H0Z" fill-rule="evenodd" fill="url(#linear-gradient)"/>
      <path d="M4,1H65c2.67,0,4.33.67,5,2V0H0V3C.67,1.7,2,1,4,1Z" fill="#fff" fill-opacity="0.38" fill-rule="evenodd"/>
      <path d="M4,69H65c2.67,0,4.33-1,5-3v4H0V66A3.92,3.92,0,0,0,4,69Z" fill-opacity="0.38" fill-rule="evenodd"/>
      <path d="M34.64,69H4a3.66,3.66,0,0,1-4-4V37.68L12.07,25.62l14.43-14,17.86-.24-3.8,3.79,8.59-2.51,12.58,3.88,3.12,3-3.18,3.18L61.59,29,49.88,40.7l.54-.08,7.06-7.07L58.9,37.4,51.34,52.27Z" fill="#393939" fill-rule="evenodd" opacity="0.33" style="isolation: isolate"/>
      <g>
        <g opacity="0.4">
          <path d="M59.63,24.5a.21.21,0,0,1,.1.19v6.18a.22.22,0,0,1-.14.22L48.21,35.8a.25.25,0,0,1-.22,0,.24.24,0,0,1-.11-.2V24.2a.23.23,0,0,1,.24-.23.25.25,0,0,1,.19.09l2.53,3.13a.27.27,0,0,0,.3.09l8.28-2.81A.2.2,0,0,1,59.63,24.5ZM63,21.29a.23.23,0,0,1,0,.21.24.24,0,0,1-.15.16L51.64,25.27a.25.25,0,0,1-.27-.08l-3.14-3.67-.93.24h0a.33.33,0,0,1-.14,0l-.93-.25L43.08,25.2a.26.26,0,0,1-.27.07L31.6,21.66a.22.22,0,0,1-.16-.15.22.22,0,0,1,0-.22l2.28-2.89a.3.3,0,0,1,.13-.09l13.26-3.55h.15l13.26,3.55a.25.25,0,0,1,.13.09L63,21.29Zm-15.75-.53,9.5-2.47-9.5-2.53L37.72,18.3ZM46.4,24a.23.23,0,0,1,.17.22V35.58a.24.24,0,0,1-.11.2.29.29,0,0,1-.24,0l-12-4.71a.23.23,0,0,1-.15-.22V24.69a.23.23,0,0,1,.1-.19.24.24,0,0,1,.23,0l8.74,2.81a.3.3,0,0,0,.32-.09l2.67-3.13A.27.27,0,0,1,46.4,24Z"/>
          <path d="M55.48,35.65c0,.15,0,.3,0,.45a20.83,20.83,0,0,1-2.85,10.5L46.5,41A12.61,12.61,0,0,0,47,39.2l-2.65-1a10.47,10.47,0,0,1-3.09,6.13A10.59,10.59,0,0,1,33.5,47.6a11,11,0,0,1-11-11,10.63,10.63,0,0,1,3.22-7.78,9.7,9.7,0,0,1,5.85-3.08v-.51l-2-2c-.28.08-.54.19-1.13.4L22.5,17.45a22.61,22.61,0,0,1,11-2.85,19.66,19.66,0,0,1,4.2.35c1.56-.48,3.11-1,4.66-1.47a24.26,24.26,0,0,0-18.87.06,24.1,24.1,0,0,0-13,13,24.33,24.33,0,0,0,0,19,24.1,24.1,0,0,0,13.05,13,24.3,24.3,0,0,0,19,0,24,24,0,0,0,13-13A24,24,0,0,0,57.5,36.1a10.22,10.22,0,0,0,0-1.11A19,19,0,0,0,55.48,35.65ZM20.5,41,14.35,46.6a20.77,20.77,0,0,1,0-21l6.15,5.64a13.88,13.88,0,0,0-.89,4.86A14.17,14.17,0,0,0,20.5,41Zm13,16.64a22.61,22.61,0,0,1-11-2.85l5.91-6.15a15.16,15.16,0,0,0,5.09.89,14.94,14.94,0,0,0,5.09-.89l5.91,6.15A22.58,22.58,0,0,1,33.5,57.6Z" fill-rule="evenodd"/>
        </g>
        <g>
          <path d="M61.63,22.5a.22.22,0,0,1,.1.19v6.19a.26.26,0,0,1-.14.22L50.21,33.8a.24.24,0,0,1-.33-.22V22.21a.24.24,0,0,1,.24-.24.21.21,0,0,1,.18.09l2.54,3.13a.28.28,0,0,0,.3.1l8.28-2.82A.23.23,0,0,1,61.63,22.5ZM65,19.29a.2.2,0,0,1,0,.21.23.23,0,0,1-.16.16L53.64,23.27a.25.25,0,0,1-.27-.08l-3.14-3.67-.93.25h0a.28.28,0,0,1-.13,0l-.93-.24L45.08,23.2a.23.23,0,0,1-.27.07L33.59,19.66a.23.23,0,0,1-.15-.15.22.22,0,0,1,0-.21l2.29-2.9a.22.22,0,0,1,.13-.08l13.26-3.56h.15l13.26,3.55a.3.3,0,0,1,.13.09L65,19.29Zm-15.74-.53,9.5-2.47-9.5-2.53L39.72,16.3ZM48.4,22a.26.26,0,0,1,.17.23V33.58a.25.25,0,0,1-.12.2.26.26,0,0,1-.23,0l-12-4.7a.25.25,0,0,1-.15-.22V22.69a.24.24,0,0,1,.1-.19.27.27,0,0,1,.23,0l8.73,2.82a.32.32,0,0,0,.33-.1l2.67-3.13A.27.27,0,0,1,48.4,22Z" fill="#fff"/>
          <path d="M57.48,33.65c0,.15,0,.3,0,.45a20.77,20.77,0,0,1-2.85,10.5L48.5,39A12.61,12.61,0,0,0,49,37.2l-2.65-1A11,11,0,0,1,35.5,45.6a11,11,0,0,1-11-11,10.59,10.59,0,0,1,3.22-7.78,9.75,9.75,0,0,1,5.85-3.08v-.51l-2-2c-.29.08-.54.19-1.13.4L24.5,15.45a22.58,22.58,0,0,1,11-2.85,20.33,20.33,0,0,1,4.2.35l4.66-1.47a24.28,24.28,0,0,0-18.88.06,24.1,24.1,0,0,0-13,13.05,24.3,24.3,0,0,0,0,19,24,24,0,0,0,13,13,24.33,24.33,0,0,0,19,0,24,24,0,0,0,13-13A24,24,0,0,0,59.5,34.1c0-.51,0-.61,0-1.11A19,19,0,0,0,57.48,33.65ZM22.5,39,16.35,44.6a20.77,20.77,0,0,1,0-21l6.15,5.64a13.71,13.71,0,0,0,0,9.72Zm13,16.64a22.58,22.58,0,0,1-11-2.85l5.91-6.15a15.16,15.16,0,0,0,5.09.89,15,15,0,0,0,5.09-.89l5.91,6.15A22.58,22.58,0,0,1,35.5,55.6Z" fill="#fff" fill-rule="evenodd"/>
        </g>
      </g>
    </g>
  </g>
</svg>
