<svg id="Layer_1" data-name="Layer 1" xmlns="http://www.w3.org/2000/svg" xmlns:xlink="http://www.w3.org/1999/xlink" viewBox="0 0 70 70">
  <defs>
    <mask id="mask" x="0" y="0" width="70" height="70" maskUnits="userSpaceOnUse">
      <g id="b">
        <path id="a" d="M4,0H65c4,0,5,1,5,5V65c0,4-1,5-5,5H4c-3,0-4-1-4-5V5C0,1,1,0,4,0Z" fill="#fff" fill-rule="evenodd"/>
      </g>
    </mask>
    <linearGradient id="linear-gradient" x1="-1261.07" y1="568.8" x2="-1262.07" y2="567.8" gradientTransform="matrix(70, 0, 0, -70, 88344.99, 39816)" gradientUnits="userSpaceOnUse">
      <stop offset="0" stop-color="#da956b"/>
      <stop offset="1" stop-color="#cc7039"/>
    </linearGradient>
  </defs>
  <g mask="url(#mask)">
    <g>
      <path d="M0,0H70V70H0Z" fill-rule="evenodd" fill="url(#linear-gradient)"/>
      <path d="M4,1H65c2.67,0,4.33.67,5,2V0H0V3C.67,1.67,2,1,4,1Z" fill="#fff" fill-opacity="0.38" fill-rule="evenodd"/>
      <path d="M34.72,69H4a3.66,3.66,0,0,1-4-4V37.68l11.85-11.6L23.11,15.4l9-3.8.71,1.06h0l3.32-3.32,14-1.78,8.3,6L59,36.62,52.58,43l1.05.78,2.57-2.6h2.22L53.9,49.61Z" fill="#393939" fill-rule="evenodd" opacity="0.32" style="isolation: isolate"/>
      <path d="M4,69H65c2.67,0,4.33-1,5-3v4H0V66A3.92,3.92,0,0,0,4,69Z" fill-opacity="0.38" fill-rule="evenodd"/>
      <g>
        <g opacity="0.4">
          <path id="e" d="M57.27,15.49V37.72a1.19,1.19,0,0,1-1.35,1.34H35a1.19,1.19,0,0,1-1.35-1.34V10.77A1.19,1.19,0,0,1,35,9.42H48.51C49.86,10.1,55.25,14.14,57.27,15.49Zm-8.76-4v4.71h6.74ZM55.25,37V18.18H48.51a1.78,1.78,0,0,1-2-2V11.45H35.71V37ZM43.86,24.5c0,1.7,5.49,1.27,5.49,4.49a3.32,3.32,0,0,1-3.16,3.14v1.28a.34.34,0,0,1-.35.32H44.65a.35.35,0,0,1-.36-.32v-1.3a5.9,5.9,0,0,1-2.93-1.29.3.3,0,0,1,0-.43h0l.9-1.1a.38.38,0,0,1,.51-.05,4.66,4.66,0,0,0,2.61,1c1.07,0,1.55-.57,1.55-1.1,0-1.58-5.49-1.24-5.49-4.57,0-1.42,1.15-2.56,2.89-2.92V20.27a.35.35,0,0,1,.36-.33h1.19a.34.34,0,0,1,.35.33v1.27a5.34,5.34,0,0,1,2.71,1A.29.29,0,0,1,49,23l-.7,1.17a.36.36,0,0,1-.52.11,4.34,4.34,0,0,0-2.27-.76C44.5,23.47,43.86,23.88,43.86,24.5Z"/>
          <path d="M54.19,43.27a22.9,22.9,0,0,1-1.56,3.34L49,43.27H42.23a12.63,12.63,0,0,1-1,1.11,11,11,0,0,1-15.56,0,11,11,0,0,1,0-15.55,10.71,10.71,0,0,1,5.13-2.91V23a14.89,14.89,0,0,0-2.44.65l-5.91-6.15a22.8,22.8,0,0,1,8.35-2.7V11.7a23.71,23.71,0,0,0-7.36,1.85,24.37,24.37,0,0,0-7.82,5.22,24.67,24.67,0,0,0-5.23,7.82,24.3,24.3,0,0,0,0,19,24.67,24.67,0,0,0,5.23,7.82,24.37,24.37,0,0,0,7.82,5.22,24.19,24.19,0,0,0,19,0,24,24,0,0,0,13-13,22,22,0,0,0,.86-2.35ZM20.48,41l-6.15,5.65a20.77,20.77,0,0,1,0-21l6.15,5.64a13.88,13.88,0,0,0-.89,4.86A14.11,14.11,0,0,0,20.48,41Zm13,16.65a22.62,22.62,0,0,1-11-2.86l5.91-6.14a15.16,15.16,0,0,0,10.18,0l5.91,6.14A22.48,22.48,0,0,1,33.48,57.61Z" fill-rule="evenodd"/>
        </g>
        <g>
          <path id="e-2" data-name="e" d="M59.28,13.48V35.71a1.19,1.19,0,0,1-1.35,1.34H37.05a1.19,1.19,0,0,1-1.35-1.34V8.76a1.19,1.19,0,0,1,1.35-1.34H50.52C51.87,8.09,57.26,12.13,59.28,13.48Zm-8.76-4v4.71h6.74ZM57.26,35V16.17H50.52a1.78,1.78,0,0,1-2-2V9.44H37.72V35ZM45.87,22.49c0,1.7,5.49,1.27,5.49,4.49a3.32,3.32,0,0,1-3.16,3.14V31.4a.34.34,0,0,1-.35.32H46.66a.34.34,0,0,1-.36-.32V30.1a5.9,5.9,0,0,1-2.93-1.29.3.3,0,0,1,0-.43h0l.9-1.09a.37.37,0,0,1,.51-.06,4.66,4.66,0,0,0,2.61,1c1.06,0,1.55-.57,1.55-1.1,0-1.58-5.49-1.24-5.49-4.57,0-1.41,1.15-2.56,2.89-2.92V18.26a.35.35,0,0,1,.36-.33h1.19a.34.34,0,0,1,.35.33v1.27a5.34,5.34,0,0,1,2.71,1,.29.29,0,0,1,.08.39l-.7,1.17a.36.36,0,0,1-.52.11,4.37,4.37,0,0,0-2.27-.76C46.51,21.46,45.87,21.87,45.87,22.49Z" fill="#fff"/>
          <path d="M56.2,41.27a23.29,23.29,0,0,1-1.56,3.33L51,41.27H44.24a12.51,12.51,0,0,1-1,1.1,11,11,0,0,1-15.56,0,11,11,0,0,1,0-15.55,10.71,10.71,0,0,1,5.13-2.91V21a14.89,14.89,0,0,0-2.44.65l-5.91-6.15a22.6,22.6,0,0,1,8.35-2.69V9.69a23.71,23.71,0,0,0-7.36,1.85,24.37,24.37,0,0,0-7.82,5.22,24.67,24.67,0,0,0-5.23,7.82,24.3,24.3,0,0,0,0,19,24.67,24.67,0,0,0,5.23,7.82,24.37,24.37,0,0,0,7.82,5.22,24.19,24.19,0,0,0,19,0,24,24,0,0,0,13-13,22.69,22.69,0,0,0,.86-2.34ZM22.49,39,16.34,44.6a20.77,20.77,0,0,1,0-21l6.15,5.64a13.88,13.88,0,0,0-.89,4.86A14.07,14.07,0,0,0,22.49,39Zm13,16.65a22.62,22.62,0,0,1-11-2.86L30.4,46.6a15.16,15.16,0,0,0,10.18,0l5.91,6.14A22.48,22.48,0,0,1,35.49,55.6Z" fill="#fff" fill-rule="evenodd"/>
        </g>
      </g>
    </g>
  </g>
</svg>
