<svg id="Layer_1" data-name="Layer 1" xmlns="http://www.w3.org/2000/svg" xmlns:xlink="http://www.w3.org/1999/xlink" viewBox="0 0 70 70">
  <defs>
    <mask id="mask" x="0" y="0" width="70" height="70" maskUnits="userSpaceOnUse">
      <g id="icon-b">
        <path id="icon-a" d="M4,0H65c4,0,5,1,5,5V65c0,4-1,5-5,5H4c-3,0-4-1-4-5V5C0,1,1,0,4,0Z" fill="#fff" fill-rule="evenodd"/>
      </g>
    </mask>
    <linearGradient id="linear-gradient" x1="-1704.64" y1="568.8" x2="-1705.64" y2="567.8" gradientTransform="matrix(70, 0, 0, -70, 119394.99, 39816)" gradientUnits="userSpaceOnUse">
      <stop offset="0" stop-color="#94b6c8"/>
      <stop offset="1" stop-color="#6a9eba"/>
    </linearGradient>
  </defs>
  <g mask="url(#mask)">
    <g>
      <path d="M0,0H70V70H0Z" fill-rule="evenodd" fill="url(#linear-gradient)"/>
      <path d="M4,1H65c2.67,0,4.33.67,5,2V0H0V3C.67,1.67,2,1,4,1Z" fill="#fff" fill-opacity="0.38" fill-rule="evenodd"/>
      <path d="M4,69H65c2.67,0,4.33-1,5-3v4H0V66A3.92,3.92,0,0,0,4,69Z" fill-opacity="0.38" fill-rule="evenodd"/>
      <path d="M4,69.12c-2,0-4-.7-4-4.69V37.68L13.5,24.29,26.78,11.5l10.48,1.07L29.4,20.43l.75,1.46,2.59,1.05L45.63,10l5.47.89-1.79,1.8a8.27,8.27,0,0,1,7.14,4.93c.1.19,2.29-.83,2.29-.83-.37.34-1.35,1.36-1.35,1.36L54.17,30.77,46.92,38l3.75,3.27,6.81-6.82,1.8-1.62L57,44.9l-7,8.51L34.32,69.12Z" fill="#393939" fill-rule="evenodd" opacity="0.32" style="isolation: isolate"/>
      <g>
        <g opacity="0.4">
          <path d="M47.69,19.89V26a.41.41,0,0,1-.12.31.44.44,0,0,1-.32.13H42.87a.44.44,0,0,1-.44-.44v-.88a.42.42,0,0,1,.13-.31.39.39,0,0,1,.31-.13h3.07V19.89a.41.41,0,0,1,.12-.31.46.46,0,0,1,.32-.13h.87a.44.44,0,0,1,.32.13A.41.41,0,0,1,47.69,19.89Zm5.7,4.82a7.28,7.28,0,0,0-1-3.74,7.49,7.49,0,0,0-2.71-2.71,7.49,7.49,0,0,0-7.48,0A7.49,7.49,0,0,0,39.49,21a7.49,7.49,0,0,0,0,7.48,7.41,7.41,0,0,0,2.71,2.71,7.49,7.49,0,0,0,7.48,0,7.41,7.41,0,0,0,2.71-2.71A7.25,7.25,0,0,0,53.39,24.71Zm.52-6.87,1.36-1a.51.51,0,0,1,.72.1l.93,1.23a.52.52,0,0,1-.1.72L55.34,20a10.59,10.59,0,0,1-.29,10,10.5,10.5,0,0,1-3.83,3.83,10.59,10.59,0,0,1-10.56,0A10.5,10.5,0,0,1,36.83,30a10.59,10.59,0,0,1,0-10.56,10.47,10.47,0,0,1,3.83-3.82,10,10,0,0,1,4-1.34v-1.1h-1a.51.51,0,0,1-.51-.51v-1a.51.51,0,0,1,.51-.51h5.13a.51.51,0,0,1,.51.51v1a.51.51,0,0,1-.51.51h-1v1.17a10.57,10.57,0,0,1,6.17,3.5Z" fill-rule="evenodd"/>
          <path d="M55.48,36.57a20.78,20.78,0,0,1-2.83,10L46.5,41c.1-.28.19-.56.28-.85-.3,0-.59,0-.89,0A14.93,14.93,0,0,1,44,40a10.73,10.73,0,0,1-2.7,4.36,11,11,0,0,1-15.56,0,11,11,0,0,1,0-15.55A10.65,10.65,0,0,1,31,25.89c0-.24-.06-.48-.07-.73A12.67,12.67,0,0,1,31,22.93a14.86,14.86,0,0,0-2.6.68L22.5,17.46a22.58,22.58,0,0,1,11-2.85c.59,0,1.17,0,1.76.07a16,16,0,0,1,3.22-2.45A24.36,24.36,0,0,0,33,11.61a24,24,0,0,0-9.52,1.94,24,24,0,0,0-13,13,24.3,24.3,0,0,0,0,19,24,24,0,0,0,13,13,24.19,24.19,0,0,0,19,0,24.37,24.37,0,0,0,7.82-5.22,24.67,24.67,0,0,0,5.23-7.82,24,24,0,0,0,1.94-9.51c0-.49,0-1,0-1.46A16.26,16.26,0,0,1,55.48,36.57ZM20.5,41l-6.15,5.65a20.77,20.77,0,0,1,0-21l6.15,5.64a13.88,13.88,0,0,0-.89,4.86A13.62,13.62,0,0,0,20.5,41Zm13,16.65a22.59,22.59,0,0,1-11-2.86l5.91-6.14a15.16,15.16,0,0,0,10.18,0l5.91,6.14A22.51,22.51,0,0,1,33.5,57.61Z" fill-rule="evenodd"/>
        </g>
        <g>
          <path d="M49.69,17.89V24a.41.41,0,0,1-.43.43H44.87a.41.41,0,0,1-.43-.43v-.88a.45.45,0,0,1,.12-.32.43.43,0,0,1,.31-.12h3.07V17.89a.41.41,0,0,1,.12-.31.42.42,0,0,1,.32-.13h.88a.4.4,0,0,1,.31.13A.41.41,0,0,1,49.69,17.89Zm5.7,4.82a7.25,7.25,0,0,0-1-3.74,7.49,7.49,0,0,0-2.71-2.71,7.49,7.49,0,0,0-7.48,0A7.49,7.49,0,0,0,41.49,19a7.49,7.49,0,0,0,0,7.48,7.41,7.41,0,0,0,2.71,2.71,7.49,7.49,0,0,0,7.48,0,7.41,7.41,0,0,0,2.71-2.71A7.25,7.25,0,0,0,55.39,22.71Zm.52-6.88,1.36-1a.51.51,0,0,1,.72.1l.93,1.23a.52.52,0,0,1-.1.72L57.34,18a10.59,10.59,0,0,1-.29,10,10.5,10.5,0,0,1-3.83,3.83,10.59,10.59,0,0,1-10.56,0A10.5,10.5,0,0,1,38.83,28a10.59,10.59,0,0,1,0-10.56,10.57,10.57,0,0,1,3.83-3.83,10.23,10.23,0,0,1,4-1.33v-1.1h-1a.51.51,0,0,1-.51-.51v-1a.51.51,0,0,1,.51-.51h5.13a.51.51,0,0,1,.52.51v1a.51.51,0,0,1-.52.51h-1v1.17a10.4,10.4,0,0,1,3.48,1.26A10.6,10.6,0,0,1,55.91,15.83Z" fill="#fff" fill-rule="evenodd"/>
          <path d="M57.48,34.57a20.71,20.71,0,0,1-2.83,10L48.5,39c.11-.28.19-.56.28-.85-.3,0-.59,0-.89,0A14.93,14.93,0,0,1,46,38a10.73,10.73,0,0,1-2.7,4.36,11,11,0,0,1-15.56,0,11,11,0,0,1,0-15.55A10.65,10.65,0,0,1,33,23.89c0-.24-.06-.49-.07-.73A12.67,12.67,0,0,1,33,20.93a15.76,15.76,0,0,0-2.6.67L24.5,15.46a22.48,22.48,0,0,1,11-2.86c.59,0,1.18,0,1.76.08a15.8,15.8,0,0,1,3.23-2.45A24.45,24.45,0,0,0,35,9.6a24,24,0,0,0-9.52,2,24,24,0,0,0-13,13,24.3,24.3,0,0,0,0,19,24,24,0,0,0,13,13,24.33,24.33,0,0,0,19,0,24,24,0,0,0,13-13A24,24,0,0,0,59.5,34.1c0-.48,0-1,0-1.46A15,15,0,0,1,57.48,34.57ZM22.5,39,16.35,44.6a20.77,20.77,0,0,1,0-21l6.15,5.65a13.69,13.69,0,0,0,0,9.71Zm13,16.64a22.58,22.58,0,0,1-11-2.85l5.91-6.15a15,15,0,0,0,10.18,0l5.91,6.15A22.58,22.58,0,0,1,35.5,55.6Z" fill="#fff" fill-rule="evenodd"/>
        </g>
      </g>
    </g>
  </g>
</svg>
