<svg xmlns="http://www.w3.org/2000/svg" xmlns:xlink="http://www.w3.org/1999/xlink" width="70" height="70"><defs><path id="a" d="M4 0h61c4 0 5 1 5 5v60c0 4-1 5-5 5H4c-3 0-4-1-4-5V5c0-4 1-5 4-5z"/><linearGradient id="c" x1="100%" x2="0%" y1="0%" y2="100%"><stop offset="0%" stop-color="#B06161"/><stop offset="45.785%" stop-color="#984E4E"/><stop offset="100%" stop-color="#7C3838"/></linearGradient></defs><g fill="none" fill-rule="evenodd"><mask id="b" fill="#fff"><use xlink:href="#a"/></mask><g mask="url(#b)"><path fill="url(#c)" d="M0 0H70V70H0z"/><path fill="#FFF" fill-opacity=".383" d="M4 1h61c2.667 0 4.333.667 5 2V0H0v3c.667-1.333 2-2 4-2z"/><path fill="#393939" d="M4 69c-2 0-4-.143-4-4V40.04l7.817-16.025 9.351-2.366L21.065 16l2.674 7 4.761-1.351 5.345 2.976 4.735-2.626 5.89-.859L47 21l3.207.033 2.686 7.662 7.091-7.662L63 21 43.5 69H4z" opacity=".324"/><g fill="#000" fill-rule="nonzero" opacity=".3" transform="translate(7 18)"><path d="M7.203 5C3.274 5 0 6.643 0 11.6 0 15.527 2.202 18 7.304 18c6.007 0 6.392-3.9 6.392-3.9h-2.91s-.625 2.1-3.66 2.1c-2.47 0-4.248-1.646-4.248-3.952H14V10.8C14 8.518 12.53 5 7.203 5zM7.1 6.85c2.353 0 3.957 1.42 3.957 3.55H2.942c0-2.26 2.094-3.55 4.16-3.55z"/><path d="M35.922 28.708c.24.298.345.638.311 1.018-.033.38-.194.697-.483.949l-4.689 3.97 1.47 1.772-1.872 1.589c-1.27 1.079-2.725 1.632-4.362 1.66-1.637.029-3.079-.464-4.325-1.478-1.189.216-2.3.921-3.336 2.115-1.633.34-2.05-.212-1.252-1.656 1.343-.685 2.282-1.551 2.816-2.597-.771-1.418-1-2.94-.689-4.567.312-1.627 1.103-2.98 2.374-4.058l1.871-1.589 1.47 1.771 4.678-3.982c.295-.244.633-.35 1.013-.317.38.033.69.196.931.487.242.291.346.63.312 1.018a1.351 1.351 0 0 1-.484.95l-4.679 3.982 2.292 2.763 4.688-3.97c.296-.245.634-.35 1.013-.317.38.033.69.195.932.487z"/><path d="M14.065 0v15.45c0 .877-.065 2.109-.065 2.109h2.858s.102-.885.102-1.693c0 0 1.412 2.134 5.251 2.134C26.254 18 29 15.288 29 11.403c0-3.614-2.522-6.521-6.782-6.521-3.99 0-5.229 2.08-5.229 2.08V0h-2.924zm7.415 6.793c2.745 0 4.491 1.968 4.491 4.61 0 2.833-2.016 4.686-4.471 4.686-2.93 0-4.51-2.21-4.51-4.66 0-2.284 1.417-4.636 4.49-4.636zM35.992 5c-5.738 0-6.106 3.173-6.106 3.68h2.856s.15-1.853 3.053-1.853c1.887 0 3.349.872 3.349 2.549v.597h-3.349C31.35 9.973 29 11.286 29 13.95 29 16.573 31.171 18 34.106 18c3.999 0 5.287-2.231 5.287-2.231 0 .887.068 1.762.068 1.762H42s-.098-1.084-.098-1.778V9.758c0-3.93-3.14-4.758-5.91-4.758zm3.152 6.763v.795c0 1.038-.634 3.618-4.367 3.618-2.044 0-2.92-1.03-2.92-2.225 0-2.174 2.95-2.188 7.287-2.188z"/><path d="M40 5L43.352 5 48.163 14.549 52.963 5 56 5 47.257 22 44.072 22 46.594 17.261z"/></g><g fill="#FFF" fill-rule="nonzero" transform="translate(7 16)"><path d="M7.203 5C3.274 5 0 6.643 0 11.6 0 15.527 2.202 18 7.304 18c6.007 0 6.392-3.9 6.392-3.9h-2.91s-.625 2.1-3.66 2.1c-2.47 0-4.248-1.646-4.248-3.952H14V10.8C14 8.518 12.53 5 7.203 5zM7.1 6.85c2.353 0 3.957 1.42 3.957 3.55H2.942c0-2.26 2.094-3.55 4.16-3.55z"/><path d="M35.922 28.708c.24.298.345.638.311 1.018-.033.38-.194.697-.483.949l-4.689 3.97 1.47 1.772-1.872 1.589c-1.27 1.079-2.725 1.632-4.362 1.66-1.637.029-3.079-.464-4.325-1.478-1.189.216-2.3.921-3.336 2.115-1.633.34-2.05-.212-1.252-1.656 1.343-.685 2.282-1.551 2.816-2.597-.771-1.418-1-2.94-.689-4.567.312-1.627 1.103-2.98 2.374-4.058l1.871-1.589 1.47 1.771 4.678-3.982c.295-.244.633-.35 1.013-.317.38.033.69.196.931.487.242.291.346.63.312 1.018a1.351 1.351 0 0 1-.484.95l-4.679 3.982 2.292 2.763 4.688-3.97c.296-.245.634-.35 1.013-.317.38.033.69.195.932.487z"/><path d="M14.065 0v15.45c0 .877-.065 2.109-.065 2.109h2.858s.102-.885.102-1.693c0 0 1.412 2.134 5.251 2.134C26.254 18 29 15.288 29 11.403c0-3.614-2.522-6.521-6.782-6.521-3.99 0-5.229 2.08-5.229 2.08V0h-2.924zm7.415 6.793c2.745 0 4.491 1.968 4.491 4.61 0 2.833-2.016 4.686-4.471 4.686-2.93 0-4.51-2.21-4.51-4.66 0-2.284 1.417-4.636 4.49-4.636zM35.992 5c-5.738 0-6.106 3.173-6.106 3.68h2.856s.15-1.853 3.053-1.853c1.887 0 3.349.872 3.349 2.549v.597h-3.349C31.35 9.973 29 11.286 29 13.95 29 16.573 31.171 18 34.106 18c3.999 0 5.287-2.231 5.287-2.231 0 .887.068 1.762.068 1.762H42s-.098-1.084-.098-1.778V9.758c0-3.93-3.14-4.758-5.91-4.758zm3.152 6.763v.795c0 1.038-.634 3.618-4.367 3.618-2.044 0-2.92-1.03-2.92-2.225 0-2.174 2.95-2.188 7.287-2.188z"/><path d="M40 5L43.352 5 48.163 14.549 52.963 5 56 5 47.257 22 44.072 22 46.594 17.261z"/></g><path fill="#000" fill-opacity=".383" d="M4 69h61c2.667 0 4.333-1 5-3v4H0v-4c.667 2 2 3 4 3z"/></g></g></svg>