<svg id="Layer_1" data-name="Layer 1" xmlns="http://www.w3.org/2000/svg" xmlns:xlink="http://www.w3.org/1999/xlink" viewBox="0 0 70 70">
  <defs>
    <mask id="mask" x="0" y="0" width="70" height="70" maskUnits="userSpaceOnUse">
      <g id="b">
        <path id="a" d="M4,0H65c4,0,5,1,5,5V65c0,4-1,5-5,5H4c-3,0-4-1-4-5V5C0,1,1,0,4,0Z" fill="#fff" fill-rule="evenodd"/>
      </g>
    </mask>
    <linearGradient id="linear-gradient" x1="-1438.5" y1="568.8" x2="-1439.5" y2="567.8" gradientTransform="matrix(70, 0, 0, -70, 100764.99, 39816)" gradientUnits="userSpaceOnUse">
      <stop offset="0" stop-color="#7cc098"/>
      <stop offset="1" stop-color="#5f8a71"/>
    </linearGradient>
  </defs>
  <g mask="url(#mask)">
    <g>
      <path d="M0,0H70V70H0Z" fill-rule="evenodd" fill="url(#linear-gradient)"/>
      <path d="M4,1H65c2.67,0,4.33.67,5,2V0H0V3C.67,1.67,2,1,4,1Z" fill="#fff" fill-opacity="0.38" fill-rule="evenodd"/>
      <path d="M4,69a3.66,3.66,0,0,1-4-4V37.68L24.5,15.35l7.25-5.58a6.35,6.35,0,0,0-1.34,3.37l-4.12,4.12.75.87,6.66-6.64L40.6,9.6l8,6-1.81,5.17,2.09-2c4.49,4.74,10.9,10.11,12,14.62L52,42.1l.83.75,4.05-4a8.63,8.63,0,0,0,2.13-.15L54.46,48.9,34.74,69Z" fill="#393939" fill-rule="evenodd" opacity="0.32" style="isolation: isolate"/>
      <path d="M4,69H65c2.67,0,4.33-1,5-3v4H0V66A3.92,3.92,0,0,0,4,69Z" fill-opacity="0.38" fill-rule="evenodd"/>
      <g>
        <g opacity="0.4">
          <path id="e" d="M32.23,20.71h5.86l2.22-3-2.22-3.05H32.23a.65.65,0,0,1-.57-1,8.07,8.07,0,0,1,6.87-3.79,8,8,0,0,1,8,7.88,7.93,7.93,0,0,1-8,7.78,8,8,0,0,1-6.87-3.8A.66.66,0,0,1,32.23,20.71Zm10.56,6-1-1a8.87,8.87,0,0,0,5-4.92L58,31.74a3.42,3.42,0,0,1,.08,4.84.3.3,0,0,1-.08.08,3.62,3.62,0,0,1-5,0L51.18,35A9.18,9.18,0,0,0,42.79,26.75Zm10.44,6.58A1.34,1.34,0,1,0,54.56,32,1.33,1.33,0,0,0,53.23,33.33ZM37.9,36.1a5.23,5.23,0,0,1,0-1.85l-1.12-.65a.33.33,0,0,1-.15-.37,6.5,6.5,0,0,1,1.45-2.5.32.32,0,0,1,.39-.06l1.12.65a5.29,5.29,0,0,1,1.61-.93v-1.3a.33.33,0,0,1,.25-.31,6.66,6.66,0,0,1,2.88,0,.33.33,0,0,1,.25.31v1.3a5.13,5.13,0,0,1,1.6.93l1.13-.65a.32.32,0,0,1,.39.06,6.62,6.62,0,0,1,1.45,2.5.33.33,0,0,1-.15.37l-1.12.65a5.23,5.23,0,0,1,0,1.85l1.12.65a.33.33,0,0,1,.15.37,6.55,6.55,0,0,1-1.45,2.5.31.31,0,0,1-.39.06L46.19,39a5.09,5.09,0,0,1-1.61.93v1.3a.31.31,0,0,1-.25.31,6.66,6.66,0,0,1-2.88,0,.31.31,0,0,1-.25-.31V40A5.09,5.09,0,0,1,39.59,39l-1.12.65a.31.31,0,0,1-.39-.06,6.42,6.42,0,0,1-1.45-2.5.33.33,0,0,1,.15-.37Zm2.81-.92a2.2,2.2,0,0,0,4.4,0,2.2,2.2,0,1,0-4.4,0Z"/>
          <path d="M55.16,41l-.27,0a21.32,21.32,0,0,1-2.28,5.7L48.69,43a9.38,9.38,0,0,1-6.18,2.1A11.16,11.16,0,0,1,40.63,45a11,11,0,0,1-14.94-.57,11,11,0,0,1,0-15.55,10.49,10.49,0,0,1,4.46-2.7,12.52,12.52,0,0,1-1.34-2.66l-.43.14-5.91-6.15a22.3,22.3,0,0,1,5.91-2.21,12.94,12.94,0,0,1,1.33-3.37,23.47,23.47,0,0,0-6.26,1.67,24,24,0,0,0-13,13,24.3,24.3,0,0,0,0,19,24.1,24.1,0,0,0,13,13.05,24.3,24.3,0,0,0,19,0,24.1,24.1,0,0,0,13-13.05A24.15,24.15,0,0,0,57,40.79,11.08,11.08,0,0,1,55.16,41ZM20.47,41l-6.15,5.65a20.77,20.77,0,0,1,0-21l6.15,5.64a13.69,13.69,0,0,0,0,9.71Zm13,16.65a22.48,22.48,0,0,1-11-2.86l5.91-6.14a15.13,15.13,0,0,0,10.17,0l5.92,6.14A22.51,22.51,0,0,1,33.47,57.64Z" fill-rule="evenodd"/>
        </g>
        <g>
          <path id="e-2" data-name="e" d="M34.27,18.68h5.85l2.23-3-2.23-3H34.27a.66.66,0,0,1-.57-1A8,8,0,0,1,40.57,7.8a8,8,0,0,1,8,7.88,7.93,7.93,0,0,1-8,7.79,8.07,8.07,0,0,1-6.88-3.81A.65.65,0,0,1,34.27,18.68Zm10.55,6-1-1a8.84,8.84,0,0,0,5-4.92L60,29.71a3.43,3.43,0,0,1,.08,4.84l-.08.08a3.62,3.62,0,0,1-5,0l-1.75-1.71A9.2,9.2,0,0,0,44.82,24.71ZM55.26,31.3A1.34,1.34,0,1,0,56.6,30,1.32,1.32,0,0,0,55.26,31.3ZM39.94,34.07a4.85,4.85,0,0,1,0-1.86l-1.13-.65a.3.3,0,0,1-.14-.37,6.49,6.49,0,0,1,1.44-2.49.31.31,0,0,1,.39-.06l1.13.65a5,5,0,0,1,1.6-.93v-1.3a.32.32,0,0,1,.25-.31,6.71,6.71,0,0,1,2.89,0,.31.31,0,0,1,.24.31v1.3a5,5,0,0,1,1.61.93l1.13-.65a.31.31,0,0,1,.39.06,6.49,6.49,0,0,1,1.44,2.49.3.3,0,0,1-.14.37l-1.13.65a5.28,5.28,0,0,1,0,1.86l1.13.65a.31.31,0,0,1,.14.37,6.6,6.6,0,0,1-1.44,2.5.33.33,0,0,1-.4.06L48.22,37a5.24,5.24,0,0,1-1.6.93v1.29a.33.33,0,0,1-.25.31,6.41,6.41,0,0,1-2.89,0,.32.32,0,0,1-.25-.31V37.93a5.24,5.24,0,0,1-1.6-.93l-1.13.65a.32.32,0,0,1-.39-.06,6.6,6.6,0,0,1-1.44-2.5.31.31,0,0,1,.14-.37Zm2.81-.93a2.2,2.2,0,1,0,2.2-2.2A2.19,2.19,0,0,0,42.75,33.14Z" fill="#fff"/>
          <path d="M57.19,38.92h-.27a21.69,21.69,0,0,1-2.27,5.69L50.73,41a9.46,9.46,0,0,1-6.19,2.1,11.33,11.33,0,0,1-1.88-.17,11,11,0,0,1-14.94-.56,11,11,0,0,1,0-15.56,10.75,10.75,0,0,1,4.46-2.7,12.76,12.76,0,0,1-1.34-2.66l-.43.14L24.5,15.45a22.92,22.92,0,0,1,5.91-2.21,13.11,13.11,0,0,1,1.34-3.37,23.64,23.64,0,0,0-6.27,1.67,24.1,24.1,0,0,0-13,13.05,24.3,24.3,0,0,0,0,19,24,24,0,0,0,13,13,24.33,24.33,0,0,0,19,0,24,24,0,0,0,13-13,24.12,24.12,0,0,0,1.49-4.86A11,11,0,0,1,57.19,38.92ZM22.5,39,16.35,44.6a20.77,20.77,0,0,1,0-21l6.15,5.64a13.71,13.71,0,0,0,0,9.72Zm13,16.64a22.58,22.58,0,0,1-11-2.85l5.91-6.15a15.16,15.16,0,0,0,5.09.89,15,15,0,0,0,5.09-.89l5.91,6.15A22.58,22.58,0,0,1,35.5,55.6Z" fill="#fff" fill-rule="evenodd"/>
        </g>
      </g>
    </g>
  </g>
</svg>
